<mxfile host="app.diagrams.net" modified="2024-03-18T09:22:27.026Z" agent="Mozilla/5.0 (Windows NT 10.0; Win64; x64) AppleWebKit/537.36 (KHTML, like Gecko) Chrome/122.0.0.0 Safari/537.36 Edg/122.0.0.0" etag="I7TfCH-U3G5wPAGaGLUI" version="24.0.7" type="device">
  <diagram name="Page-1" id="bnW29TCO3U3M27Tk2cbe">
    <mxGraphModel dx="1397" dy="790" grid="1" gridSize="10" guides="1" tooltips="1" connect="1" arrows="1" fold="1" page="1" pageScale="1" pageWidth="850" pageHeight="1100" math="0" shadow="0">
      <root>
        <mxCell id="0" />
        <mxCell id="1" parent="0" />
        <mxCell id="FzzvjinRueu_OwRG8yQ0-1" value="" style="rounded=1;whiteSpace=wrap;html=1;fillColor=#ffe6cc;strokeColor=#d79b00;opacity=70;" vertex="1" parent="1">
          <mxGeometry x="170" y="360" width="1050" height="640" as="geometry" />
        </mxCell>
        <mxCell id="FzzvjinRueu_OwRG8yQ0-62" value="" style="rounded=1;whiteSpace=wrap;html=1;fillColor=#d5e8d4;strokeColor=#82b366;opacity=70;" vertex="1" parent="1">
          <mxGeometry x="865" y="400" width="325" height="560" as="geometry" />
        </mxCell>
        <mxCell id="FzzvjinRueu_OwRG8yQ0-61" value="" style="rounded=1;whiteSpace=wrap;html=1;fillColor=#d5e8d4;strokeColor=#82b366;opacity=70;" vertex="1" parent="1">
          <mxGeometry x="530" y="400" width="300" height="560" as="geometry" />
        </mxCell>
        <mxCell id="FzzvjinRueu_OwRG8yQ0-2" value="&lt;font style=&quot;font-size: 14px;&quot;&gt;Tenant&lt;/font&gt;" style="text;html=1;align=center;verticalAlign=middle;whiteSpace=wrap;rounded=0;" vertex="1" parent="1">
          <mxGeometry x="256" y="330" width="60" height="30" as="geometry" />
        </mxCell>
        <mxCell id="FzzvjinRueu_OwRG8yQ0-3" value="" style="rounded=1;whiteSpace=wrap;html=1;fillColor=#d5e8d4;strokeColor=#82b366;opacity=70;" vertex="1" parent="1">
          <mxGeometry x="190" y="400" width="310" height="560" as="geometry" />
        </mxCell>
        <mxCell id="FzzvjinRueu_OwRG8yQ0-4" value="&lt;font style=&quot;font-size: 14px;&quot;&gt;Capacity&lt;/font&gt;" style="text;html=1;align=center;verticalAlign=middle;whiteSpace=wrap;rounded=0;" vertex="1" parent="1">
          <mxGeometry x="256" y="367" width="70" height="30" as="geometry" />
        </mxCell>
        <mxCell id="FzzvjinRueu_OwRG8yQ0-5" value="" style="rounded=1;whiteSpace=wrap;html=1;fillColor=#dae8fc;strokeColor=#6c8ebf;opacity=70;" vertex="1" parent="1">
          <mxGeometry x="210" y="430" width="960" height="220" as="geometry" />
        </mxCell>
        <mxCell id="FzzvjinRueu_OwRG8yQ0-7" value="&lt;font style=&quot;font-size: 14px;&quot;&gt;Finance Domain&lt;/font&gt;" style="text;html=1;align=center;verticalAlign=middle;whiteSpace=wrap;rounded=0;" vertex="1" parent="1">
          <mxGeometry x="259" y="404" width="110" height="30" as="geometry" />
        </mxCell>
        <mxCell id="FzzvjinRueu_OwRG8yQ0-10" value="" style="rounded=1;whiteSpace=wrap;html=1;fillColor=#f8cecc;strokeColor=#b85450;opacity=80;" vertex="1" parent="1">
          <mxGeometry x="239" y="460" width="231" height="160" as="geometry" />
        </mxCell>
        <mxCell id="FzzvjinRueu_OwRG8yQ0-8" value="" style="shape=image;verticalLabelPosition=bottom;labelBackgroundColor=default;verticalAlign=top;aspect=fixed;imageAspect=0;image=data:image/png,iVBORw0KGgoAAAANSUhEUgAAAKAAAAClCAYAAADbAvaeAAAEDmlDQ1BrQ0dDb2xvclNwYWNlR2VuZXJpY1JHQgAAOI2NVV1oHFUUPpu5syskzoPUpqaSDv41lLRsUtGE2uj+ZbNt3CyTbLRBkMns3Z1pJjPj/KRpKT4UQRDBqOCT4P9bwSchaqvtiy2itFCiBIMo+ND6R6HSFwnruTOzu5O4a73L3PnmnO9+595z7t4LkLgsW5beJQIsGq4t5dPis8fmxMQ6dMF90A190C0rjpUqlSYBG+PCv9rt7yDG3tf2t/f/Z+uuUEcBiN2F2Kw4yiLiZQD+FcWyXYAEQfvICddi+AnEO2ycIOISw7UAVxieD/Cyz5mRMohfRSwoqoz+xNuIB+cj9loEB3Pw2448NaitKSLLRck2q5pOI9O9g/t/tkXda8Tbg0+PszB9FN8DuPaXKnKW4YcQn1Xk3HSIry5ps8UQ/2W5aQnxIwBdu7yFcgrxPsRjVXu8HOh0qao30cArp9SZZxDfg3h1wTzKxu5E/LUxX5wKdX5SnAzmDx4A4OIqLbB69yMesE1pKojLjVdoNsfyiPi45hZmAn3uLWdpOtfQOaVmikEs7ovj8hFWpz7EV6mel0L9Xy23FMYlPYZenAx0yDB1/PX6dledmQjikjkXCxqMJS9WtfFCyH9XtSekEF+2dH+P4tzITduTygGfv58a5VCTH5PtXD7EFZiNyUDBhHnsFTBgE0SQIA9pfFtgo6cKGuhooeilaKH41eDs38Ip+f4At1Rq/sjr6NEwQqb/I/DQqsLvaFUjvAx+eWirddAJZnAj1DFJL0mSg/gcIpPkMBkhoyCSJ8lTZIxk0TpKDjXHliJzZPO50dR5ASNSnzeLvIvod0HG/mdkmOC0z8VKnzcQ2M/Yz2vKldduXjp9bleLu0ZWn7vWc+l0JGcaai10yNrUnXLP/8Jf59ewX+c3Wgz+B34Df+vbVrc16zTMVgp9um9bxEfzPU5kPqUtVWxhs6OiWTVW+gIfywB9uXi7CGcGW/zk98k/kmvJ95IfJn/j3uQ+4c5zn3Kfcd+AyF3gLnJfcl9xH3OfR2rUee80a+6vo7EK5mmXUdyfQlrYLTwoZIU9wsPCZEtP6BWGhAlhL3p2N6sTjRdduwbHsG9kq32sgBepc+xurLPW4T9URpYGJ3ym4+8zA05u44QjST8ZIoVtu3qE7fWmdn5LPdqvgcZz8Ww8BWJ8X3w0PhQ/wnCDGd+LvlHs8dRy6bLLDuKMaZ20tZrqisPJ5ONiCq8yKhYM5cCgKOu66Lsc0aYOtZdo5QCwezI4wm9J/v0X23mlZXOfBjj8Jzv3WrY5D+CsA9D7aMs2gGfjve8ArD6mePZSeCfEYt8CONWDw8FXTxrPqx/r9Vt4biXeANh8vV7/+/16ffMD1N8AuKD/A/8leAvFY9bLAAAAOGVYSWZNTQAqAAAACAABh2kABAAAAAEAAAAaAAAAAAACoAIABAAAAAEAAACgoAMABAAAAAEAAAClAAAAAEzEtMMAABB8SURBVHgB7Z1rzFxVFYYRhLbcJBRCIdiPcisiUpSWm/yQSzVA1CalBlIDISlSJUgiKAYwBlL4ZRQxhNIAYuIfWiEE0GJCQDQGSgETKCjUYCkkUG5WCnIVfZ/4DZkOZ85Ze5+zz2VmreTNmTl7r7Xe9e49Z85lf/Nts42bK+AKuAKugCvgCrgCroAr4Aq4Aq6AK+AKuAKugCvgCrgCroAr4Aq4Aq6AK+AKuAKugCvgCrgCroAr4Aq4Aq6AK+AKuAKugCvgCrgCroAr4ApEKPCJCJ9RdZmlwk4Tjhb2nizyRW3XCL8V/jG5zzeuQKUKHKRotwofCv8dAtroQ183V6AyBb6hSFuEYRNvcD998XFzBUorcLEiDE4w63t83VyBaAWulKd1sg3rRww3VyBIAS66rhGGTarQ/cTyC7mgIRjfztup9JuF0ElW1P8mxSS2myswVIHt1bJSKJpMse3EJoebK/AxBaZpD/fxYieX1Y8c5HJzBT5SYBe9+oNgnURl+5GLnG6uwDa7S4OHhZhJxVdq7Fc2OcntNsYKzFDtTwgxk48LFS4qyly0kBsObmOowIRqXi/ETL6fy6//tgqv2RcTCw5wcRsjBWar1ueFmAmzLEcn2mJibpQfnNzGQIE5qnGTEDNRvm/Qhz4xseEEN7cRVuAY1fZPIXSC/Ec+SwN0oS8+oXngBke3EVTgJNX0phA6Kd6Xz+IIPfDBNzQfHOHqNkIKfE21vCOETgZ8vl5CB3xj88LZbQQUOFM1xB6JTq6gfmLEHnnh7tZhBb4l7rHnYsdVWDexYs89qcGtgwpcJM6hX7n0f1k4IkG9xCR2DCdqceuQAleIa8xAc2/wkIR1Ejv2/iM1ubVcAZ5IxC4k/bt896uhPnKQK+YD4gtbaxig2BTbypFFnzEDu05+vT+xjM0f4kcucsZwpUZqdWuRAizyvFWIGdC18pveQC3kJHcMZ2r1ha0NDFpWyqnaGbuQ9AH57poVtKZ95IZDzCSkZmp3a1CBMgtJV4v3tAa591LDAS4xk/B++fnC1p6SNW9ZzLlGiBm4VfLboWa+eengAqeYWtDAF7bmqZugbYZiPiHEDNgv5bddAk5lQ8IJbjE1PS4/NHGrQYEJ5VgvxAzUtfLjVk1bDW5wjKkNTdDGLaECBys2izdjBihvIWlCylGhyyxsRSO3BArMUcxNQszk+0ECPqlDwjmmVjRCK7cKFThGsV4XQgeEn0tbWiGPukPBnRpC60YrNHOrQIETFWOLEDoILMFaXEH+pkNQA7WE1o9maOdWQoGvyvdtIVT8d+SzoETetrlSCzWF6oB2aOgWoUDTC0kjKCd18YWtSeXdOvi5ehuzkHSz/KpcSLo1q+bfURs1hh4J0RJN3QwKXKQ+oQLTn8WenzfE73oXavSFrYlG8QrFjZl8L8jvkESc2hiWWqk5Ris0dhtQgCcAPxNiBK1rIekA5cbf7icGsQtb0RrN3aQAiytvFGImX90LSds2YGUWtqI52o+1lVlI+oiUmz7W6v2/eDRAi5gP8K3yG9uFrVNV/N2Rwv1Rfk0uJFX6VhlaoEnMJGQMGIuxMhZR3i/ECNaWhaRtG7BpIlRmYevObSsoFR8WT64RYibfb+TXpoWkqTSKjYs2aBSjLWPC2Iy07aXqHhdiBLpFfm1cSCparTI0ukWI0ZixYYxG0maqqmeEGGF+IT+/bWCfFmiFZjFaM0aM1UhZmYWkV42UEvUWg3Yxk3Cj/EZmYevnVMxLkUJcIj+3cgqgYcwkZMwYu04bv3u8SQgVgEWY3+505e0ij5YxC1sZu87+djW3Wv4mhE4+Fl9+U3CrVgE0jVnYyhgylp2zFWIcOvlGbSFp2wYtdmErY9kpmyu2oYf8t+Qzv1NVdpMsGqN1yMGBsWRMO2N3iGlIgSyy/GJnqus+UbQOXdjKmHbCWKHxgWCdgOOykLRtgxe6sJUxZWxbb98RQ+vkG7eFpG0bvM+IUMjC1k7cmVhpnIBvqB8CuDWrAGPAWFgOGoxt6+1JMbQU86PWVzI+BBkLy5gxtq23f4mhpZiDWl/J+BBkLCxjxtg2YiELAfgTQMtS7+3VjxNbt+YV+KQocJO6yLgd08iKpJAJyCfJYiExLfG8TzkFWj1uliNaufLd2xXIUcAnYI443pReAZ+A6TX2DDkK+ATMEceb0ivgEzC9xp4hRwGfgDnieFN6BXwCptfYM+Qo4BMwRxxvSq+AT8D0GnuGHAV4VOM22gp8SeV9SuC58BeELwt7CJ0zy0Nt62OfzhU/QoT51vuK8Duhf0xbX2I/2bzXrS/ECX6kwEl69ZTQiQNH3qTrb/uoOn/RCQV2FMtfN8U0ZOWK9VMSErOpuj1vSxTwq+CWDMS40vAJOK4j35K6fQK2ZCDGlYZPwHEd+ZbU7ROwJQMxrjT8SUjcyM+U23nCPIGrfv6dwg3CBqENNiESPX7wWSvA7znedNX67/Xlve5qfVbep6hj1o8AsW+RNUjCfguH8Pu39p+aMG/y0HmTrr8tOZEGE8xR7neF/nr7X7+ntiMa5Hd4AT+489sxnbR+ofNed7I4I2l+SSqvdtpuN8ZK0W2Vgd9dKRLXEbNI+F57HVyayHGoklp+G5E/4J/VAMEJ5bT8ehk1HNYAv9IpexOsaFs6UUsD3CleRbX32q9voIbrAvjxb7w6Zz1xi7adK8xA+Ez1Kaq7v50jUZ1HGY7Oob8TvdhQd6u69Auc97pVpCsgc4BivCrk1ZzVdp986liYQY57I/i9Jp8Dhc5YlshZ+zpTkIHodPXhPwxl1WnZV8f/Q7m4BL/18u3M6miL4PQZFdtbhTwqWOvO6sfX4vEJBTlOsbn1k5Xbuu8x+e+TkGNloa0FVZawwUD87cRGwVpzXj++6lL8YuxsxY05Ncji+rxiHSm02rKIZ+1rdREF5PiNvEuFskeVQV1eUcyjCnKHNM9V55eFwTxl3lPz5QIatNKsxbWSvIEUj6nWCdY6Q/vxz3ouFMpcmOB7gfC2EJrf2v9JxT5NaJ1ZC2gd8RxC/Ev7swQe1lvrK9vvEeWaL4TayXKom+fZyolGrTCr8K0gO4QEq394VrtEuE14U7DWVXU//hrtMoFzL/4j+qCxjzb6cFSqOr81HhrxePFcAe34CebKLOTrAMIWC4lpiRfaZ6YclgrzhJ0FeCPajEkwCaswHuwvFJggx5YMyI1rLno2T8bhD8knhLJcH1SMqwQ+bFOEKgyumwT+7SvnjYw3k5Sj83KBOpKY9ROTJLkx6Onqx7IjK9fYfgjOOSO2p/CMEBsrlR+c4IbBFc6pcvXioj1jkMR6SYq2SZIbghYtlSribW1/UVwGb1nsr33st8ZI3Q8us4R+g3MdHPlmYCwqN6tolSc2BlylflaOsf0eUo6JIXwO1v5na+BQxB0OcMkyuFNDUYyy7SuzkpfdZyVVNk+sf1U3ZbPq5LznSqHonGwv9anzSnWQK7nhkGfUQC3UNOhf1XvGonKzkqs8sTFgqntja5T/aCMHuk0RfiJ8KFg1K9uPXOQkt9WoidrK5s7yZywqt6xEWfsqT2wMyDPNLD6x+zYo3mIh9qr+BPmuE2LzW/3IQa4YozZq3CBY81n6MRaVmyUxfZqy85XYyjGvH+dIZwhFX7eWOnmstUTg1kRezpg2YhK7ikdn1ErNVZ0fMhaVm1WkyhMbAzIQqwUrz/5+T8vvaoFFCCkMbguEe4T3hf7cIa/xJQaxqph4CvMxQwO0QJMQbr2+jEESbr0ERVvlb8y44bxM4IbuMJ6sTnlUWC6cI8wW6rTdlGyRsELgHGyLMIwrbfShLz741mlog0ZohWZoN4wrmqN90JMSzgGsRmKLhcS0xIvpgwjcithJ4I+EADdJX5jcatMaQy9uGPP0Y9dJVm9oy79QfUWw6j7pmnyzozLsK7DlSAfeErjxzRE6yEImi1WIkJhBZL3z6Cmw7eiV5BV1SQGfgF0arRHk6hNwBAe1SyVx/8ctXIGZcjlPmCdwzvuIcIOwQWiDTYhEjx981grwe443XTUuQizoan1W3qeoI1d9g1qwb5E1SMJ+CxU7ix93AViW1VkbFHzY+84WaCBetOTrPcU4whAnVZfDFfhdYdjY0Oa/jpVK/Rri3pEzuL1Bv70GHsNSrDLwu2uYc9v39wQu2ra9jlh+h8rRssLFfx0rVuECP+v6sSkFcbrafKeIF334eu3XN1DkdQH87m6AX+mUrxsLbPIcqHSRQwKcaay9NwH5sB42JFaK3RydQxc5LE5BJGXMvyh4T+C87bUpSTQQ+wDlfNVYe78u98mnjseS5Lg3gh8LCw4UOmO/EtN+gYe95pM4vzNV5ROdrmYesg+rtWj/JfnhK2m9uAS/9fLdoxIWNQQ5K6BQLvd/KOxSA69UKfZWYJYgFU2yvHY+jMenIqi4xwnc+snjUNT2mPz3ERqxkK8Ilgu9JEwNYIo4Twusa6vCblKQm6sIVBCDRZnccvl0QT9LM+fOTMK/WjoH9Jmtvn8WOEqXNZapLRD4wLXabhS7ok9UqvaHlTtosWOEkqxtu1Qoe1QZ1IB1fUdF8BnmMlcNLwuDecq8p+bLBTRore0vZu8IZQqN8eWr7LOJVTlV8dclrA3dLhRCvnXUfSvD9wLhbSFGR4vPk4p9mtBa+7GYWQqpss+KRGpwOsG57doaa2LhQsxF2skN8DxbOUNOudQ9vXGIfkCocoLlxfpQuTjfqcJY/cN9yiXCbcKbQl7ulG1PKfdlwpHCDsKgsY82+nBUSsklLzYa8XjxXAHtKj0Niv062F1E/iRwAzS1PaQExwYkmam+S4V5ws4C4iLajEkwCaswrvQXCkyQEH5ZuT/Qzo3C5slGLvgmhLJcH1SMqwQ+bFU9oYLrJuElgfNG5hCTlG+R5QJ11GJ7KAuTI+/TU0UbA2y109WRZUdV5M2LgeCcM2J7Cs8Ief2baIMT3DC4wjk1D7RnDGozviauEXgAn6q4E43VzFE/jkqpePTivqgcfDX2Gxdn7O/1aXoLl1n9BPUaznVwZAwYi1ptrrL9Xkgh/L7GSlYlyt9fE0f8iSF8+DPQZ2vg0M8n6zUc4JJlcK/jW2tlVvI69nFOuEx4WOD8IEug0H1TFcdiMc9rrVw477lSKDon20t96ryiHuRPbjjkGTVQCzUN+lf1nrEwWexFiCU4hfIkYTdhisVhSB8+sRbj3ph1slri9frwYfquwC8UWIxaOfH/npBS334uTJyfCpwv8xVosaPViYUjVd4g7+Xlnue03ptx2T6mQqv6BBNng7BYiJ1EJ8h3nVAlp6xY5CBXjFEbNW4QsmLH7mMsxs7OV8WxgvX7ccQ9Qyj6urUIzD3TJcJGoT9HFa+JSewqHp1RKzVTexXcGIuxMwZitRAj4NPyu1pgEUIKg9sC4R7hfSGGIz74EoNYVUw8hfmYoQFaoEkMT8YgFTeFbrdxw3mZsFkYJt5rantUWC6cI8wW6jTOiRcJKwTOK7cIw7jSRh/64oNvnYY2aIRWaIZ2w7iiOdozBmbjHGAUDRG4FbGTwD1KwE3SFya32rTGGANuGPP0Y9dJVm9oOxa/jjVZr29cAVfAFXAFXAFXwBVwBVwBV8AVcAVcAVfAFXAFXAFXwBVwBVwBV8AVGEEF/gdmWb8rEpz33AAAAABJRU5ErkJggg==;" vertex="1" parent="1">
          <mxGeometry x="261.21" y="480" width="38.79" height="40" as="geometry" />
        </mxCell>
        <mxCell id="FzzvjinRueu_OwRG8yQ0-11" value="&lt;span style=&quot;font-size: 14px;&quot;&gt;Finance Dev Workspace&lt;/span&gt;" style="text;html=1;align=center;verticalAlign=middle;whiteSpace=wrap;rounded=0;" vertex="1" parent="1">
          <mxGeometry x="260" y="437" width="155" height="30" as="geometry" />
        </mxCell>
        <mxCell id="FzzvjinRueu_OwRG8yQ0-12" value="" style="shape=image;verticalLabelPosition=bottom;labelBackgroundColor=default;verticalAlign=top;aspect=fixed;imageAspect=0;image=data:image/png,iVBORw0KGgoAAAANSUhEUgAAAKAAAAClCAYAAADbAvaeAAAEDmlDQ1BrQ0dDb2xvclNwYWNlR2VuZXJpY1JHQgAAOI2NVV1oHFUUPpu5syskzoPUpqaSDv41lLRsUtGE2uj+ZbNt3CyTbLRBkMns3Z1pJjPj/KRpKT4UQRDBqOCT4P9bwSchaqvtiy2itFCiBIMo+ND6R6HSFwnruTOzu5O4a73L3PnmnO9+595z7t4LkLgsW5beJQIsGq4t5dPis8fmxMQ6dMF90A190C0rjpUqlSYBG+PCv9rt7yDG3tf2t/f/Z+uuUEcBiN2F2Kw4yiLiZQD+FcWyXYAEQfvICddi+AnEO2ycIOISw7UAVxieD/Cyz5mRMohfRSwoqoz+xNuIB+cj9loEB3Pw2448NaitKSLLRck2q5pOI9O9g/t/tkXda8Tbg0+PszB9FN8DuPaXKnKW4YcQn1Xk3HSIry5ps8UQ/2W5aQnxIwBdu7yFcgrxPsRjVXu8HOh0qao30cArp9SZZxDfg3h1wTzKxu5E/LUxX5wKdX5SnAzmDx4A4OIqLbB69yMesE1pKojLjVdoNsfyiPi45hZmAn3uLWdpOtfQOaVmikEs7ovj8hFWpz7EV6mel0L9Xy23FMYlPYZenAx0yDB1/PX6dledmQjikjkXCxqMJS9WtfFCyH9XtSekEF+2dH+P4tzITduTygGfv58a5VCTH5PtXD7EFZiNyUDBhHnsFTBgE0SQIA9pfFtgo6cKGuhooeilaKH41eDs38Ip+f4At1Rq/sjr6NEwQqb/I/DQqsLvaFUjvAx+eWirddAJZnAj1DFJL0mSg/gcIpPkMBkhoyCSJ8lTZIxk0TpKDjXHliJzZPO50dR5ASNSnzeLvIvod0HG/mdkmOC0z8VKnzcQ2M/Yz2vKldduXjp9bleLu0ZWn7vWc+l0JGcaai10yNrUnXLP/8Jf59ewX+c3Wgz+B34Df+vbVrc16zTMVgp9um9bxEfzPU5kPqUtVWxhs6OiWTVW+gIfywB9uXi7CGcGW/zk98k/kmvJ95IfJn/j3uQ+4c5zn3Kfcd+AyF3gLnJfcl9xH3OfR2rUee80a+6vo7EK5mmXUdyfQlrYLTwoZIU9wsPCZEtP6BWGhAlhL3p2N6sTjRdduwbHsG9kq32sgBepc+xurLPW4T9URpYGJ3ym4+8zA05u44QjST8ZIoVtu3qE7fWmdn5LPdqvgcZz8Ww8BWJ8X3w0PhQ/wnCDGd+LvlHs8dRy6bLLDuKMaZ20tZrqisPJ5ONiCq8yKhYM5cCgKOu66Lsc0aYOtZdo5QCwezI4wm9J/v0X23mlZXOfBjj8Jzv3WrY5D+CsA9D7aMs2gGfjve8ArD6mePZSeCfEYt8CONWDw8FXTxrPqx/r9Vt4biXeANh8vV7/+/16ffMD1N8AuKD/A/8leAvFY9bLAAAAOGVYSWZNTQAqAAAACAABh2kABAAAAAEAAAAaAAAAAAACoAIABAAAAAEAAACgoAMABAAAAAEAAAClAAAAAEzEtMMAAAybSURBVHgB7V1NyCTVFZ0x45j/iJKJGIVPnGHUlSFmRFEREZUEBHHjKhmYkE1MQCGbuBmDusmggSgGx01EsjILoxAyDoKbIZDxZysy8Vv4A+JvHH9GR5NzZrq/9DRVXedVvffqVdW5cL+vu+q+e84979Ld1fWqetMmmxWwAlbAClgBK2AFrIAVsAJWwApYAStgBayAFbACVsAKWAErYAWsgBWwAlbACoxNgc0DK+ir4PutGecP8f/TgfFPRXewupTagFswUz+CXwf/IXwn/EL4GfBFO4YnR+Avw5+HPwv/F/w4fIxmXRLP6hXI/yf4u/D/tnSOZQ7mGotZl8Qz+WPkPwRv23R145iTuYdq1iXxzPGt9SC8roFibScGsYZi1iXDTN0JjGPwWE3WlIdYxCzdrEviGeJR7N/gTQ2Taj+x50fSiUsNSm9dguRqF7wNw3i0mqq51LzkQC6lmHXJMBPfBcbLcLVJUseRCzn1bdYlwwx8ExiH4ambKjQ/OZFbX2ZdMin/BHBCm6Mqnmc+3pp5rAMYcuvLrEsG5X8JjKpmUra9jbEPw2+Bnw9fPHPDx9zGfYxhrJKzKoYcc5t1yaD4GjA+hldN+qpt6xizB74VrhpjOWYdvip31T5yXIPnsjUAWZcMaj8JjKoJr9v2JeL3wb/WgdvXZzmYqw6naju55jLrkkHpq4BRNdF12z5C/M0ReTEXc9bhVW0n59RmXVIrPMv/d/yvmuSqbXw7ujoBL+YMeasj59RmXVIrjPwXw6sarW7brQk5MXcdbtV2ck9l1iWVskt578Pzqsmt2vbg0tgUTx8K4EPuqcy6pFJ2Ke86nlc12/K2NxH37aWxKZ4Sg1jL+FXP11MQmOVk7irM5W1T0yWq5DtEkSn6HVGRVycj1vJE1z3fvjpVq73WpZVs4YN+gSF1E7u4nQcHOVelEEs9IGENsc26VCh6WsW2rpt+ICZ4GnG8sCiXEYuYiqk1KLnmMWrOSemSogF3zhVv+M9VyrlNxVRrCOGv5lQ5hmA3xaqYag1NeBv7UzTgBRvZVz94cfXuJHtVTLWGEJJqTpVjCHZTrIqp1tCEl3T/u8i++Fmv7vHZSVlUJydmHZ/F7awhtlmX2IrW5PsM2xcns+7x6TXjU24mZh2fxe2sIbZZlwpFU7wFcyIVS4HdhKtiqjU04S3uV3OqHBdzd32sYqo1yHxUYDkhAo+KwWeJcTHDVEy1hhBuak6VYwh2U6yKqdbQhLexP0UDvrORffWDFF/2rkbctIlfBivGxa2xTc05KV1SNOARceYuF+Nihu0Sk/1bjAsJU3NOSpcUDcirzRS7SQmKHKNiqjWE0FNzqhxDsJtiVUy1hia8pPtvQ3Z+WG3yLxBzXlImpyYnFjGbeHE/a4ht1iW2ojX5vo/tyiQzhsvvcxmxVF6sIbZZl9iKrsjHe/Qpk83FAWsr8sTaRQx1IQK5pzLrsqRsis+AhHhiCafuKS8+egS+uS4gwnbmJgaxFFO5K7mWY9TcU9NlWafOz7chwzG48irImL3wVLYXiVUe5Ezuqcy6pFK2Iu+fsU2deMbdXpGj6ybmDOFAzqnNuqRWeJaf93T+HB7SAPciPsbHAuZgrhBsciXn1GZdUiu8kP+PeBzSBIx9Dn7RQo7QhxzLHKG45JrLrEsmpXkx0Gvw0GbgypH98EvgqjGWY9RVJ4ucyJFcc5l1mSm9OYPiNwKDF2O3xXoJYw/AD8N5mu99OO1MON/OLoPfAL8U3sbYiDwTQIycZl0yqv07YC2+4pT0mNz6MuuSSXm++v0FXlLjkQs5tX1lxtDOZl06S6gn2IrQp+ClNCG5kFPfZl0yzgCXxPNVp+8mJIctGetugrIuTQpF3M+3nd/C1ZUpMZuVmMTu820X8JVmXSplSbfxWqTmIs2YDbYqF7GIWbpdC4LWJdMsfQM498HVlSqrGqxuH3MTg1hDMeuSeaa4WPQP8P/A6xopdDtzMWfORa+Ai2rWJaqczcl4hmAP/Bn4Z/DQpuOYA3DmyHlmA3BJba4La7MuSaX+f3LebPx6uNqEjOWYsduodCnxaHC5gdiAig2hFqUONWYUupymVus4K5BCATdgClWdU1bADShL5cAUCrgBU6jqnLICbkBZqqICzxDZ8NdFizY3YNHTU0uut7tZ1TJqucMN2FK4noftEPHfE+N6C3MD9iZ9J+Bd4uhXxLjewtyAvUnfCXhUd7PqpESGweqpuAxUioDo+y5fRYiQk4Qb8FS19+Gpqsn3Th3qZ20UUMVuk3toY9ZAWF07+cIQivNnwCHM0kmOXGzxCFy9y9fjwymtbKZ+BTw5P3vxT9WCawbPOTnMf7sqoIreFafk8aF3+Xq05GKGxm3KDciPSKF3+TqOMduHNskl851qA7a9y9cDJU/mELlNrQG73OXrdUxwzh8B79xPWzpnKCcBv6Admm0F4Vh3+foSuX4G/3BoIpTOV30FnHrc3aVP5FD5Tb2xlPr5nd/ULsrK1s/KBEw5hnf54s2NbIkUmHJzNdX+GDQf0+f4RC3ULW3TJExxP7/ruwvut91uvSWNnmKDrar5Vah2jaScg6IosGoyprSPFxjdA1cXI0QR30n0E/BjbcajaIL74ee6GfpRYKyNtaouvtrxDmG74YM6swG+QTamI6jXgiovI5jLpnjm4gM4fwOFv0jO30M5BP8EPnobwlEUXykUG0ItSh2TivGK6ElNd3nFugHLm5NJMXIDTmq6yyvWDVjenEyKkRtwUtNdXrFuwPLmZFKM3ICTmu7yinUDljcnk2LkBpzUdJdX7FfKo3SCEVf4Xgn/Kfy6E1ua//CXMHlhzpuz/80jHGEFlhS4As/3w9+BrzpZv2ofxzIHc9msgKTATxD1T/iqxmqzjzmZ22YFKhW4GFufhbdprpAxxCCWzQqcUIArV34D57q3kEbqEkssYnrVDESYsvGnR5+Ed2mmLmOJTQ62CSqwDTW/BO/SQDHGkgO52CakAO9XzBW/MRooRg5y8T2UJ9KAvK7h+YKab97A5ERutpEr8FfUN5/0Lv95IPHWzGMdwJCbbcQK/Bq1tW26tzH2Yfgt8PPhi0ewfMxt3McYxrbF+RXG2kaowAWo6SN4aGOsY8weOO+fpxpjOWYdHopHjuRqG5kCT6OekGbgudx98C5X/3MsczBXCDa52kakwFWoJaQB+Cp0c8T6mSv01ZecbSNRgFf2qw3IX/+5OkHdzKn+shC5krNtBArwDu9q8zHu1oQ1M3cIF3K3DVyB34O/OukPZqj1oQA+5G4buAJHwF9pQC4ezXFelhjEUjiRu23ACnDZkzLRjLkjY53EUnl56VbGiYkN9XNxonlwkPM0GLHUAxLWYMugQIqLknaJvPm9G29NlsuIpX7Xp9aQi/tocVI04A5RrYNiXMwwFVOtISa3SeZK0YDqKa0Xe1BcxVRr6KEEQzYp8D4ClA/7ZzclSrCfmAo31mAbqAKfg7cyyX38ug8xFW6swZZBgRRvwV+IvFNgN0GrmMebEnl/HAXUCQlBU49szwpJGilWxTwaCc9pGhRI0YDvNWDOd2+fP8j4Xz26VWvISH2cUCka8BVRqsvFuJhh6vd7ag0xuU0yV4oG5NVmit2kBEWOUTHVGiLTc7oYCtyGJMqRJg9WzosBKOYgFjEVbqzBNlAFeK2tMsmM4dL5XEYslRdrsA1YgRfAXZlsLg5Yy1AnMYilcCJ328AVuBP8lclmzAH45oT1MjcxVD7kbhu4AueAP3+IT530vQnrZW6VBzmTu20ECjyKGtSJZ9ztCWpmzhAO5GwbiQL8ovk4PKQB7kV8jK+GmIO5QrDJtY8vxwFrS6XAA0gc0gSMfQ7e5co0jmWOUFxytY1MAV4M9AY8tBn4WWw//BK4aozlmJDPnnNer2NczssD1JpGH5fy6HMu3vV48A9427dW3kzyAPwwnFeszdfqnYnHF8Ivg98AvxTexngLjxvhB9sM9phhKHA3aM5fbUr7T262kSvAV9rH4aU1HznleBcY+fQOo7zTQfMpeClNSC7kZJuQAltQ62PwvpuQHMjFNkEF+JZ3Fzz0O8IYTUtMYvttFyJM3a6BAK/CYzSWkoNYxLRZgQ0FeDfTe+CfwpUmahPD3MQgls0KVCpwLrbeD+fFQG2arGoMczEnc9usgKQAz0bshj8Db/OqyDEcuxvuMxsQoXQr+cM43zKvhPNMx044z3p8Bz5vLF7++QGcZ0d4DQfPlByCfwK3WQErYAWsgBWwAlbAClgBK2AFrIAVsAJWwApYAStgBayAFbACVsAKWAErYAWsgBWwAj0p8D+bTrXJ/RLxDwAAAABJRU5ErkJggg==;" vertex="1" parent="1">
          <mxGeometry x="259" y="540" width="38.79" height="40" as="geometry" />
        </mxCell>
        <mxCell id="FzzvjinRueu_OwRG8yQ0-13" value="" style="shape=image;verticalLabelPosition=bottom;labelBackgroundColor=default;verticalAlign=top;aspect=fixed;imageAspect=0;image=data:image/png,iVBORw0KGgoAAAANSUhEUgAAAKAAAAClCAYAAADbAvaeAAAEDmlDQ1BrQ0dDb2xvclNwYWNlR2VuZXJpY1JHQgAAOI2NVV1oHFUUPpu5syskzoPUpqaSDv41lLRsUtGE2uj+ZbNt3CyTbLRBkMns3Z1pJjPj/KRpKT4UQRDBqOCT4P9bwSchaqvtiy2itFCiBIMo+ND6R6HSFwnruTOzu5O4a73L3PnmnO9+595z7t4LkLgsW5beJQIsGq4t5dPis8fmxMQ6dMF90A190C0rjpUqlSYBG+PCv9rt7yDG3tf2t/f/Z+uuUEcBiN2F2Kw4yiLiZQD+FcWyXYAEQfvICddi+AnEO2ycIOISw7UAVxieD/Cyz5mRMohfRSwoqoz+xNuIB+cj9loEB3Pw2448NaitKSLLRck2q5pOI9O9g/t/tkXda8Tbg0+PszB9FN8DuPaXKnKW4YcQn1Xk3HSIry5ps8UQ/2W5aQnxIwBdu7yFcgrxPsRjVXu8HOh0qao30cArp9SZZxDfg3h1wTzKxu5E/LUxX5wKdX5SnAzmDx4A4OIqLbB69yMesE1pKojLjVdoNsfyiPi45hZmAn3uLWdpOtfQOaVmikEs7ovj8hFWpz7EV6mel0L9Xy23FMYlPYZenAx0yDB1/PX6dledmQjikjkXCxqMJS9WtfFCyH9XtSekEF+2dH+P4tzITduTygGfv58a5VCTH5PtXD7EFZiNyUDBhHnsFTBgE0SQIA9pfFtgo6cKGuhooeilaKH41eDs38Ip+f4At1Rq/sjr6NEwQqb/I/DQqsLvaFUjvAx+eWirddAJZnAj1DFJL0mSg/gcIpPkMBkhoyCSJ8lTZIxk0TpKDjXHliJzZPO50dR5ASNSnzeLvIvod0HG/mdkmOC0z8VKnzcQ2M/Yz2vKldduXjp9bleLu0ZWn7vWc+l0JGcaai10yNrUnXLP/8Jf59ewX+c3Wgz+B34Df+vbVrc16zTMVgp9um9bxEfzPU5kPqUtVWxhs6OiWTVW+gIfywB9uXi7CGcGW/zk98k/kmvJ95IfJn/j3uQ+4c5zn3Kfcd+AyF3gLnJfcl9xH3OfR2rUee80a+6vo7EK5mmXUdyfQlrYLTwoZIU9wsPCZEtP6BWGhAlhL3p2N6sTjRdduwbHsG9kq32sgBepc+xurLPW4T9URpYGJ3ym4+8zA05u44QjST8ZIoVtu3qE7fWmdn5LPdqvgcZz8Ww8BWJ8X3w0PhQ/wnCDGd+LvlHs8dRy6bLLDuKMaZ20tZrqisPJ5ONiCq8yKhYM5cCgKOu66Lsc0aYOtZdo5QCwezI4wm9J/v0X23mlZXOfBjj8Jzv3WrY5D+CsA9D7aMs2gGfjve8ArD6mePZSeCfEYt8CONWDw8FXTxrPqx/r9Vt4biXeANh8vV7/+/16ffMD1N8AuKD/A/8leAvFY9bLAAAAOGVYSWZNTQAqAAAACAABh2kABAAAAAEAAAAaAAAAAAACoAIABAAAAAEAAACgoAMABAAAAAEAAAClAAAAAEzEtMMAAAYhSURBVHgB7d0xqxxlG8bxaNQiFgYURG0iUWKlgrFPK2glkhQBy/g5/A4pLQIpErATtBa0MhaiFhbhVCpiDAkkTUKM1wVbBNzZvebM3DNznvk/8HBed++5n53ffbnnPXuEc+wYCwEEEEAAAQQQQAABBBBAAAEEEEAAAQQQQAABBBBAAAEEEEAAAQQQQAABBBBAAAEEEEAAAQQQQAABBBBAAAEEEEAAAQQQQAABBBBAAAEEEEAAAQQQQAABBBBAAAEEEEBAAk8VKbjv69qntU9uzrijrze1D7Qfbx7jy7IEjvTcnpblR9rXtG9pO2Tbtp9zjWt9DWtegSbm9okMf9PeFrhdj/kaX8uaR+DIz+1FuX2lvStkyXPu4V6saQSamNubsjrQTgKW1LiXe7JqBZqYm3/A+EM7CVafGvd0b1aNQBNzOyGbX7X7BKtPrXv7DNa4As3M7bJc+gTqMLU+gzWuQBNze1cmj7QPE6o+1/gMn8UaR6CZuX0pjz5BGlLrs1jjCCx2bv7kO10vq/B37ePpBZv6G5v6s/r6Wo9r/S7o+r96XEPp/wWamdtnurf0He22as9rPxlw/28/5ufSPpdUyxom0Mzc/OuzJDj3VffODjM/55qkl89kDRNoZm6/yCEJzeeBl2uSXj6TNUygmbndlUMSmrcCL9ckvXwma5jAouf25P9H23eb/qEg+a9XnlPdwz3NntXzD/bU+Ol/tT8N6ijpFriip+aYW/TDap8A+h0rWWnPtF9yJjXDBcaeW9Qv+Tdj+K3RAYEOAQLYAcPD0wgQwGmcOaVDgAB2wPDwNAIEcBpnTukQIIAdMDw8jQABnMaZUzoECGAHDA9PI/DMNMcMOuXqoKu5+OKSCaJPqzc3kP7mIu05dr8lO8/52sZ2HrUf34LnjAZnR7+khgmBMgHeActoaZwIEMBEiZoyAQJYRkvjRIAAJkrUlAkQwDJaGicCBDBRoqZMgACW0dI4ESCAiRI1ZQIEsIyWxokAAUyUqCkTIIBltDROBAhgokRNmQABLKOlcSJAABMlasoECGAZLY0TAQKYKFFTJkAAy2hpnAgQwESJmjIBAlhGS+NEgAAmStSUCRDAMloaJwIEMFGipkyAAJbR0jgRIICJEjVlAgSwjJbGiQABTJSoKRMggGW0NE4ECGCiRE2ZAAEso6VxIkAAEyVqygQIYBktjRMBApgoUVMmQADLaGmcCBDARImaMgECWEZL40SAACZK1JQJEMAyWhonAgQwUaKmTIAAltHSOBEggIkSNWUCBLCMlsaJAAFMlKgpEyCAZbQ0TgQIYKJETZkAASyjpXEiQAATJWrKBI7CX0xf9F/8LpvMShqnf93cHKP+pewe/VYyitlvM83CqDngW/Dsc1/3CyCA657/7HdPAGcfwbpfAAFc9/xnv3sCOPsI1v0CCOC65z/73RPA2Uew7hdAANc9/9nvvuI3If5Ac9+HlemHnga6OrvS0X4B6W+Sxp7b6Gr31NHB2rdfCU52zb4+ft5nsoYJLHpufb4F/x06fBDUJTVuk54ZHLnaktQwmUlSUza3r9U5edc6UN0LO8bt51yT9PKZrGECi55bn3fA70OHU6r7RvvVLfV+zM+d2vLctoe+2/Ygj/USWPTc+vww8LZu+6cet35ftde1f9hc876+ntd+fvPPyRef+XNSSE2nQFNzu6HbTL51jlHjs1jjCDQzt4/lMUa4kh4+izWOQFNz+1YmSYCG1PgM1rgCzcztDbnc1R4SsF3Xuvfpce3pJoGm5vahbuih9q4gHeY593RvVo1AU3O7IKMH2ocJ2rZr3Ms9WbUCTc3tnKz+1N4WqD6PuYd7saYROKdjmpnbS7qZL7QfafcJnWt9ja91D9a0As3N7Yz8Lmv/o70viK5xra9hzSsw69z6/CYkZTquwve0z2r7p9mT2l53tG9q+0PRH7X97sdajgBzW84seCUIIIAAAggggAACCCCAAAIIIIAAAggggAACCCCAAAIIIIAAAggggAACCCCAAAIIIIAAAggggAACCCCAAAIIIIAAAggggAACCCCAAAIIIIAAAggggAACCCCAAAIIIIAAAggggMB6BP4D8oE4pVcI2JkAAAAASUVORK5CYII=;" vertex="1" parent="1">
          <mxGeometry x="326" y="475" width="48.48" height="50" as="geometry" />
        </mxCell>
        <mxCell id="FzzvjinRueu_OwRG8yQ0-14" value="&lt;font style=&quot;font-size: 14px;&quot;&gt;Items&lt;/font&gt;" style="text;html=1;align=center;verticalAlign=middle;whiteSpace=wrap;rounded=0;" vertex="1" parent="1">
          <mxGeometry x="320.24" y="535" width="60" height="30" as="geometry" />
        </mxCell>
        <mxCell id="FzzvjinRueu_OwRG8yQ0-40" value="" style="rounded=1;whiteSpace=wrap;html=1;fillColor=#dae8fc;strokeColor=#6c8ebf;opacity=70;" vertex="1" parent="1">
          <mxGeometry x="200" y="700" width="970" height="220" as="geometry" />
        </mxCell>
        <mxCell id="FzzvjinRueu_OwRG8yQ0-49" value="" style="rounded=1;whiteSpace=wrap;html=1;fillColor=#f8cecc;strokeColor=#b85450;opacity=80;" vertex="1" parent="1">
          <mxGeometry x="565" y="460" width="231" height="160" as="geometry" />
        </mxCell>
        <mxCell id="FzzvjinRueu_OwRG8yQ0-50" value="" style="shape=image;verticalLabelPosition=bottom;labelBackgroundColor=default;verticalAlign=top;aspect=fixed;imageAspect=0;image=data:image/png,iVBORw0KGgoAAAANSUhEUgAAAKAAAAClCAYAAADbAvaeAAAEDmlDQ1BrQ0dDb2xvclNwYWNlR2VuZXJpY1JHQgAAOI2NVV1oHFUUPpu5syskzoPUpqaSDv41lLRsUtGE2uj+ZbNt3CyTbLRBkMns3Z1pJjPj/KRpKT4UQRDBqOCT4P9bwSchaqvtiy2itFCiBIMo+ND6R6HSFwnruTOzu5O4a73L3PnmnO9+595z7t4LkLgsW5beJQIsGq4t5dPis8fmxMQ6dMF90A190C0rjpUqlSYBG+PCv9rt7yDG3tf2t/f/Z+uuUEcBiN2F2Kw4yiLiZQD+FcWyXYAEQfvICddi+AnEO2ycIOISw7UAVxieD/Cyz5mRMohfRSwoqoz+xNuIB+cj9loEB3Pw2448NaitKSLLRck2q5pOI9O9g/t/tkXda8Tbg0+PszB9FN8DuPaXKnKW4YcQn1Xk3HSIry5ps8UQ/2W5aQnxIwBdu7yFcgrxPsRjVXu8HOh0qao30cArp9SZZxDfg3h1wTzKxu5E/LUxX5wKdX5SnAzmDx4A4OIqLbB69yMesE1pKojLjVdoNsfyiPi45hZmAn3uLWdpOtfQOaVmikEs7ovj8hFWpz7EV6mel0L9Xy23FMYlPYZenAx0yDB1/PX6dledmQjikjkXCxqMJS9WtfFCyH9XtSekEF+2dH+P4tzITduTygGfv58a5VCTH5PtXD7EFZiNyUDBhHnsFTBgE0SQIA9pfFtgo6cKGuhooeilaKH41eDs38Ip+f4At1Rq/sjr6NEwQqb/I/DQqsLvaFUjvAx+eWirddAJZnAj1DFJL0mSg/gcIpPkMBkhoyCSJ8lTZIxk0TpKDjXHliJzZPO50dR5ASNSnzeLvIvod0HG/mdkmOC0z8VKnzcQ2M/Yz2vKldduXjp9bleLu0ZWn7vWc+l0JGcaai10yNrUnXLP/8Jf59ewX+c3Wgz+B34Df+vbVrc16zTMVgp9um9bxEfzPU5kPqUtVWxhs6OiWTVW+gIfywB9uXi7CGcGW/zk98k/kmvJ95IfJn/j3uQ+4c5zn3Kfcd+AyF3gLnJfcl9xH3OfR2rUee80a+6vo7EK5mmXUdyfQlrYLTwoZIU9wsPCZEtP6BWGhAlhL3p2N6sTjRdduwbHsG9kq32sgBepc+xurLPW4T9URpYGJ3ym4+8zA05u44QjST8ZIoVtu3qE7fWmdn5LPdqvgcZz8Ww8BWJ8X3w0PhQ/wnCDGd+LvlHs8dRy6bLLDuKMaZ20tZrqisPJ5ONiCq8yKhYM5cCgKOu66Lsc0aYOtZdo5QCwezI4wm9J/v0X23mlZXOfBjj8Jzv3WrY5D+CsA9D7aMs2gGfjve8ArD6mePZSeCfEYt8CONWDw8FXTxrPqx/r9Vt4biXeANh8vV7/+/16ffMD1N8AuKD/A/8leAvFY9bLAAAAOGVYSWZNTQAqAAAACAABh2kABAAAAAEAAAAaAAAAAAACoAIABAAAAAEAAACgoAMABAAAAAEAAAClAAAAAEzEtMMAABB8SURBVHgB7Z1rzFxVFYYRhLbcJBRCIdiPcisiUpSWm/yQSzVA1CalBlIDISlSJUgiKAYwBlL4ZRQxhNIAYuIfWiEE0GJCQDQGSgETKCjUYCkkUG5WCnIVfZ/4DZkOZ85Ze5+zz2VmreTNmTl7r7Xe9e49Z85lf/Nts42bK+AKuAKugCvgCrgCroAr4Aq4Aq6AK+AKuAKugCvgCrgCroAr4Aq4Aq6AK+AKuAKugCvgCrgCroAr4Aq4Aq6AK+AKuAKugCvgCrgCroAr4ApEKPCJCJ9RdZmlwk4Tjhb2nizyRW3XCL8V/jG5zzeuQKUKHKRotwofCv8dAtroQ183V6AyBb6hSFuEYRNvcD998XFzBUorcLEiDE4w63t83VyBaAWulKd1sg3rRww3VyBIAS66rhGGTarQ/cTyC7mgIRjfztup9JuF0ElW1P8mxSS2myswVIHt1bJSKJpMse3EJoebK/AxBaZpD/fxYieX1Y8c5HJzBT5SYBe9+oNgnURl+5GLnG6uwDa7S4OHhZhJxVdq7Fc2OcntNsYKzFDtTwgxk48LFS4qyly0kBsObmOowIRqXi/ETL6fy6//tgqv2RcTCw5wcRsjBWar1ueFmAmzLEcn2mJibpQfnNzGQIE5qnGTEDNRvm/Qhz4xseEEN7cRVuAY1fZPIXSC/Ec+SwN0oS8+oXngBke3EVTgJNX0phA6Kd6Xz+IIPfDBNzQfHOHqNkIKfE21vCOETgZ8vl5CB3xj88LZbQQUOFM1xB6JTq6gfmLEHnnh7tZhBb4l7rHnYsdVWDexYs89qcGtgwpcJM6hX7n0f1k4IkG9xCR2DCdqceuQAleIa8xAc2/wkIR1Ejv2/iM1ubVcAZ5IxC4k/bt896uhPnKQK+YD4gtbaxig2BTbypFFnzEDu05+vT+xjM0f4kcucsZwpUZqdWuRAizyvFWIGdC18pveQC3kJHcMZ2r1ha0NDFpWyqnaGbuQ9AH57poVtKZ95IZDzCSkZmp3a1CBMgtJV4v3tAa591LDAS4xk/B++fnC1p6SNW9ZzLlGiBm4VfLboWa+eengAqeYWtDAF7bmqZugbYZiPiHEDNgv5bddAk5lQ8IJbjE1PS4/NHGrQYEJ5VgvxAzUtfLjVk1bDW5wjKkNTdDGLaECBys2izdjBihvIWlCylGhyyxsRSO3BArMUcxNQszk+0ECPqlDwjmmVjRCK7cKFThGsV4XQgeEn0tbWiGPukPBnRpC60YrNHOrQIETFWOLEDoILMFaXEH+pkNQA7WE1o9maOdWQoGvyvdtIVT8d+SzoETetrlSCzWF6oB2aOgWoUDTC0kjKCd18YWtSeXdOvi5ehuzkHSz/KpcSLo1q+bfURs1hh4J0RJN3QwKXKQ+oQLTn8WenzfE73oXavSFrYlG8QrFjZl8L8jvkESc2hiWWqk5Ris0dhtQgCcAPxNiBK1rIekA5cbf7icGsQtb0RrN3aQAiytvFGImX90LSds2YGUWtqI52o+1lVlI+oiUmz7W6v2/eDRAi5gP8K3yG9uFrVNV/N2Rwv1Rfk0uJFX6VhlaoEnMJGQMGIuxMhZR3i/ECNaWhaRtG7BpIlRmYevObSsoFR8WT64RYibfb+TXpoWkqTSKjYs2aBSjLWPC2Iy07aXqHhdiBLpFfm1cSCparTI0ukWI0ZixYYxG0maqqmeEGGF+IT+/bWCfFmiFZjFaM0aM1UhZmYWkV42UEvUWg3Yxk3Cj/EZmYevnVMxLkUJcIj+3cgqgYcwkZMwYu04bv3u8SQgVgEWY3+505e0ij5YxC1sZu87+djW3Wv4mhE4+Fl9+U3CrVgE0jVnYyhgylp2zFWIcOvlGbSFp2wYtdmErY9kpmyu2oYf8t+Qzv1NVdpMsGqN1yMGBsWRMO2N3iGlIgSyy/GJnqus+UbQOXdjKmHbCWKHxgWCdgOOykLRtgxe6sJUxZWxbb98RQ+vkG7eFpG0bvM+IUMjC1k7cmVhpnIBvqB8CuDWrAGPAWFgOGoxt6+1JMbQU86PWVzI+BBkLy5gxtq23f4mhpZiDWl/J+BBkLCxjxtg2YiELAfgTQMtS7+3VjxNbt+YV+KQocJO6yLgd08iKpJAJyCfJYiExLfG8TzkFWj1uliNaufLd2xXIUcAnYI443pReAZ+A6TX2DDkK+ATMEceb0ivgEzC9xp4hRwGfgDnieFN6BXwCptfYM+Qo4BMwRxxvSq+AT8D0GnuGHAV4VOM22gp8SeV9SuC58BeELwt7CJ0zy0Nt62OfzhU/QoT51vuK8Duhf0xbX2I/2bzXrS/ECX6kwEl69ZTQiQNH3qTrb/uoOn/RCQV2FMtfN8U0ZOWK9VMSErOpuj1vSxTwq+CWDMS40vAJOK4j35K6fQK2ZCDGlYZPwHEd+ZbU7ROwJQMxrjT8SUjcyM+U23nCPIGrfv6dwg3CBqENNiESPX7wWSvA7znedNX67/Xlve5qfVbep6hj1o8AsW+RNUjCfguH8Pu39p+aMG/y0HmTrr8tOZEGE8xR7neF/nr7X7+ntiMa5Hd4AT+489sxnbR+ofNed7I4I2l+SSqvdtpuN8ZK0W2Vgd9dKRLXEbNI+F57HVyayHGoklp+G5E/4J/VAMEJ5bT8ehk1HNYAv9IpexOsaFs6UUsD3CleRbX32q9voIbrAvjxb7w6Zz1xi7adK8xA+Ez1Kaq7v50jUZ1HGY7Oob8TvdhQd6u69Auc97pVpCsgc4BivCrk1ZzVdp986liYQY57I/i9Jp8Dhc5YlshZ+zpTkIHodPXhPwxl1WnZV8f/Q7m4BL/18u3M6miL4PQZFdtbhTwqWOvO6sfX4vEJBTlOsbn1k5Xbuu8x+e+TkGNloa0FVZawwUD87cRGwVpzXj++6lL8YuxsxY05Ncji+rxiHSm02rKIZ+1rdREF5PiNvEuFskeVQV1eUcyjCnKHNM9V55eFwTxl3lPz5QIatNKsxbWSvIEUj6nWCdY6Q/vxz3ouFMpcmOB7gfC2EJrf2v9JxT5NaJ1ZC2gd8RxC/Ev7swQe1lvrK9vvEeWaL4TayXKom+fZyolGrTCr8K0gO4QEq394VrtEuE14U7DWVXU//hrtMoFzL/4j+qCxjzb6cFSqOr81HhrxePFcAe34CebKLOTrAMIWC4lpiRfaZ6YclgrzhJ0FeCPajEkwCaswHuwvFJggx5YMyI1rLno2T8bhD8knhLJcH1SMqwQ+bFOEKgyumwT+7SvnjYw3k5Sj83KBOpKY9ROTJLkx6Onqx7IjK9fYfgjOOSO2p/CMEBsrlR+c4IbBFc6pcvXioj1jkMR6SYq2SZIbghYtlSribW1/UVwGb1nsr33st8ZI3Q8us4R+g3MdHPlmYCwqN6tolSc2BlylflaOsf0eUo6JIXwO1v5na+BQxB0OcMkyuFNDUYyy7SuzkpfdZyVVNk+sf1U3ZbPq5LznSqHonGwv9anzSnWQK7nhkGfUQC3UNOhf1XvGonKzkqs8sTFgqntja5T/aCMHuk0RfiJ8KFg1K9uPXOQkt9WoidrK5s7yZywqt6xEWfsqT2wMyDPNLD6x+zYo3mIh9qr+BPmuE2LzW/3IQa4YozZq3CBY81n6MRaVmyUxfZqy85XYyjGvH+dIZwhFX7eWOnmstUTg1kRezpg2YhK7ikdn1ErNVZ0fMhaVm1WkyhMbAzIQqwUrz/5+T8vvaoFFCCkMbguEe4T3hf7cIa/xJQaxqph4CvMxQwO0QJMQbr2+jEESbr0ERVvlb8y44bxM4IbuMJ6sTnlUWC6cI8wW6rTdlGyRsELgHGyLMIwrbfShLz741mlog0ZohWZoN4wrmqN90JMSzgGsRmKLhcS0xIvpgwjcithJ4I+EADdJX5jcatMaQy9uGPP0Y9dJVm9oy79QfUWw6j7pmnyzozLsK7DlSAfeErjxzRE6yEImi1WIkJhBZL3z6Cmw7eiV5BV1SQGfgF0arRHk6hNwBAe1SyVx/8ctXIGZcjlPmCdwzvuIcIOwQWiDTYhEjx981grwe443XTUuQizoan1W3qeoI1d9g1qwb5E1SMJ+CxU7ix93AViW1VkbFHzY+84WaCBetOTrPcU4whAnVZfDFfhdYdjY0Oa/jpVK/Rri3pEzuL1Bv70GHsNSrDLwu2uYc9v39wQu2ra9jlh+h8rRssLFfx0rVuECP+v6sSkFcbrafKeIF334eu3XN1DkdQH87m6AX+mUrxsLbPIcqHSRQwKcaay9NwH5sB42JFaK3RydQxc5LE5BJGXMvyh4T+C87bUpSTQQ+wDlfNVYe78u98mnjseS5Lg3gh8LCw4UOmO/EtN+gYe95pM4vzNV5ROdrmYesg+rtWj/JfnhK2m9uAS/9fLdoxIWNQQ5K6BQLvd/KOxSA69UKfZWYJYgFU2yvHY+jMenIqi4xwnc+snjUNT2mPz3ERqxkK8Ilgu9JEwNYIo4Twusa6vCblKQm6sIVBCDRZnccvl0QT9LM+fOTMK/WjoH9Jmtvn8WOEqXNZapLRD4wLXabhS7ok9UqvaHlTtosWOEkqxtu1Qoe1QZ1IB1fUdF8BnmMlcNLwuDecq8p+bLBTRore0vZu8IZQqN8eWr7LOJVTlV8dclrA3dLhRCvnXUfSvD9wLhbSFGR4vPk4p9mtBa+7GYWQqpss+KRGpwOsG57doaa2LhQsxF2skN8DxbOUNOudQ9vXGIfkCocoLlxfpQuTjfqcJY/cN9yiXCbcKbQl7ulG1PKfdlwpHCDsKgsY82+nBUSsklLzYa8XjxXAHtKj0Niv062F1E/iRwAzS1PaQExwYkmam+S4V5ws4C4iLajEkwCaswrvQXCkyQEH5ZuT/Qzo3C5slGLvgmhLJcH1SMqwQ+bFU9oYLrJuElgfNG5hCTlG+R5QJ11GJ7KAuTI+/TU0UbA2y109WRZUdV5M2LgeCcM2J7Cs8Ief2baIMT3DC4wjk1D7RnDGozviauEXgAn6q4E43VzFE/jkqpePTivqgcfDX2Gxdn7O/1aXoLl1n9BPUaznVwZAwYi1ptrrL9Xkgh/L7GSlYlyt9fE0f8iSF8+DPQZ2vg0M8n6zUc4JJlcK/jW2tlVvI69nFOuEx4WOD8IEug0H1TFcdiMc9rrVw477lSKDon20t96ryiHuRPbjjkGTVQCzUN+lf1nrEwWexFiCU4hfIkYTdhisVhSB8+sRbj3ph1slri9frwYfquwC8UWIxaOfH/npBS334uTJyfCpwv8xVosaPViYUjVd4g7+Xlnue03ptx2T6mQqv6BBNng7BYiJ1EJ8h3nVAlp6xY5CBXjFEbNW4QsmLH7mMsxs7OV8WxgvX7ccQ9Qyj6urUIzD3TJcJGoT9HFa+JSewqHp1RKzVTexXcGIuxMwZitRAj4NPyu1pgEUIKg9sC4R7hfSGGIz74EoNYVUw8hfmYoQFaoEkMT8YgFTeFbrdxw3mZsFkYJt5rantUWC6cI8wW6jTOiRcJKwTOK7cIw7jSRh/64oNvnYY2aIRWaIZ2w7iiOdozBmbjHGAUDRG4FbGTwD1KwE3SFya32rTGGANuGPP0Y9dJVm9oOxa/jjVZr29cAVfAFXAFXAFXwBVwBVwBV8AVcAVcAVfAFXAFXAFXwBVwBVwBV8AVGEEF/gdmWb8rEpz33AAAAABJRU5ErkJggg==;" vertex="1" parent="1">
          <mxGeometry x="587.21" y="480" width="38.79" height="40" as="geometry" />
        </mxCell>
        <mxCell id="FzzvjinRueu_OwRG8yQ0-51" value="&lt;span style=&quot;font-size: 14px;&quot;&gt;Finance Test Workspace&lt;/span&gt;" style="text;html=1;align=center;verticalAlign=middle;whiteSpace=wrap;rounded=0;" vertex="1" parent="1">
          <mxGeometry x="586" y="437" width="155" height="30" as="geometry" />
        </mxCell>
        <mxCell id="FzzvjinRueu_OwRG8yQ0-52" value="" style="shape=image;verticalLabelPosition=bottom;labelBackgroundColor=default;verticalAlign=top;aspect=fixed;imageAspect=0;image=data:image/png,iVBORw0KGgoAAAANSUhEUgAAAKAAAAClCAYAAADbAvaeAAAEDmlDQ1BrQ0dDb2xvclNwYWNlR2VuZXJpY1JHQgAAOI2NVV1oHFUUPpu5syskzoPUpqaSDv41lLRsUtGE2uj+ZbNt3CyTbLRBkMns3Z1pJjPj/KRpKT4UQRDBqOCT4P9bwSchaqvtiy2itFCiBIMo+ND6R6HSFwnruTOzu5O4a73L3PnmnO9+595z7t4LkLgsW5beJQIsGq4t5dPis8fmxMQ6dMF90A190C0rjpUqlSYBG+PCv9rt7yDG3tf2t/f/Z+uuUEcBiN2F2Kw4yiLiZQD+FcWyXYAEQfvICddi+AnEO2ycIOISw7UAVxieD/Cyz5mRMohfRSwoqoz+xNuIB+cj9loEB3Pw2448NaitKSLLRck2q5pOI9O9g/t/tkXda8Tbg0+PszB9FN8DuPaXKnKW4YcQn1Xk3HSIry5ps8UQ/2W5aQnxIwBdu7yFcgrxPsRjVXu8HOh0qao30cArp9SZZxDfg3h1wTzKxu5E/LUxX5wKdX5SnAzmDx4A4OIqLbB69yMesE1pKojLjVdoNsfyiPi45hZmAn3uLWdpOtfQOaVmikEs7ovj8hFWpz7EV6mel0L9Xy23FMYlPYZenAx0yDB1/PX6dledmQjikjkXCxqMJS9WtfFCyH9XtSekEF+2dH+P4tzITduTygGfv58a5VCTH5PtXD7EFZiNyUDBhHnsFTBgE0SQIA9pfFtgo6cKGuhooeilaKH41eDs38Ip+f4At1Rq/sjr6NEwQqb/I/DQqsLvaFUjvAx+eWirddAJZnAj1DFJL0mSg/gcIpPkMBkhoyCSJ8lTZIxk0TpKDjXHliJzZPO50dR5ASNSnzeLvIvod0HG/mdkmOC0z8VKnzcQ2M/Yz2vKldduXjp9bleLu0ZWn7vWc+l0JGcaai10yNrUnXLP/8Jf59ewX+c3Wgz+B34Df+vbVrc16zTMVgp9um9bxEfzPU5kPqUtVWxhs6OiWTVW+gIfywB9uXi7CGcGW/zk98k/kmvJ95IfJn/j3uQ+4c5zn3Kfcd+AyF3gLnJfcl9xH3OfR2rUee80a+6vo7EK5mmXUdyfQlrYLTwoZIU9wsPCZEtP6BWGhAlhL3p2N6sTjRdduwbHsG9kq32sgBepc+xurLPW4T9URpYGJ3ym4+8zA05u44QjST8ZIoVtu3qE7fWmdn5LPdqvgcZz8Ww8BWJ8X3w0PhQ/wnCDGd+LvlHs8dRy6bLLDuKMaZ20tZrqisPJ5ONiCq8yKhYM5cCgKOu66Lsc0aYOtZdo5QCwezI4wm9J/v0X23mlZXOfBjj8Jzv3WrY5D+CsA9D7aMs2gGfjve8ArD6mePZSeCfEYt8CONWDw8FXTxrPqx/r9Vt4biXeANh8vV7/+/16ffMD1N8AuKD/A/8leAvFY9bLAAAAOGVYSWZNTQAqAAAACAABh2kABAAAAAEAAAAaAAAAAAACoAIABAAAAAEAAACgoAMABAAAAAEAAAClAAAAAEzEtMMAAAybSURBVHgB7V1NyCTVFZ0x45j/iJKJGIVPnGHUlSFmRFEREZUEBHHjKhmYkE1MQCGbuBmDusmggSgGx01EsjILoxAyDoKbIZDxZysy8Vv4A+JvHH9GR5NzZrq/9DRVXedVvffqVdW5cL+vu+q+e84979Ld1fWqetMmmxWwAlbAClgBK2AFrIAVsAJWwApYAStgBayAFbACVsAKWAErYAWsgBWwAlbACoxNgc0DK+ir4PutGecP8f/TgfFPRXewupTagFswUz+CXwf/IXwn/EL4GfBFO4YnR+Avw5+HPwv/F/w4fIxmXRLP6hXI/yf4u/D/tnSOZQ7mGotZl8Qz+WPkPwRv23R145iTuYdq1iXxzPGt9SC8roFibScGsYZi1iXDTN0JjGPwWE3WlIdYxCzdrEviGeJR7N/gTQ2Taj+x50fSiUsNSm9dguRqF7wNw3i0mqq51LzkQC6lmHXJMBPfBcbLcLVJUseRCzn1bdYlwwx8ExiH4ambKjQ/OZFbX2ZdMin/BHBCm6Mqnmc+3pp5rAMYcuvLrEsG5X8JjKpmUra9jbEPw2+Bnw9fPHPDx9zGfYxhrJKzKoYcc5t1yaD4GjA+hldN+qpt6xizB74VrhpjOWYdvip31T5yXIPnsjUAWZcMaj8JjKoJr9v2JeL3wb/WgdvXZzmYqw6naju55jLrkkHpq4BRNdF12z5C/M0ReTEXc9bhVW0n59RmXVIrPMv/d/yvmuSqbXw7ujoBL+YMeasj59RmXVIrjPwXw6sarW7brQk5MXcdbtV2ck9l1iWVskt578Pzqsmt2vbg0tgUTx8K4EPuqcy6pFJ2Ke86nlc12/K2NxH37aWxKZ4Sg1jL+FXP11MQmOVk7irM5W1T0yWq5DtEkSn6HVGRVycj1vJE1z3fvjpVq73WpZVs4YN+gSF1E7u4nQcHOVelEEs9IGENsc26VCh6WsW2rpt+ICZ4GnG8sCiXEYuYiqk1KLnmMWrOSemSogF3zhVv+M9VyrlNxVRrCOGv5lQ5hmA3xaqYag1NeBv7UzTgBRvZVz94cfXuJHtVTLWGEJJqTpVjCHZTrIqp1tCEl3T/u8i++Fmv7vHZSVlUJydmHZ/F7awhtlmX2IrW5PsM2xcns+7x6TXjU24mZh2fxe2sIbZZlwpFU7wFcyIVS4HdhKtiqjU04S3uV3OqHBdzd32sYqo1yHxUYDkhAo+KwWeJcTHDVEy1hhBuak6VYwh2U6yKqdbQhLexP0UDvrORffWDFF/2rkbctIlfBivGxa2xTc05KV1SNOARceYuF+Nihu0Sk/1bjAsJU3NOSpcUDcirzRS7SQmKHKNiqjWE0FNzqhxDsJtiVUy1hia8pPtvQ3Z+WG3yLxBzXlImpyYnFjGbeHE/a4ht1iW2ojX5vo/tyiQzhsvvcxmxVF6sIbZZl9iKrsjHe/Qpk83FAWsr8sTaRQx1IQK5pzLrsqRsis+AhHhiCafuKS8+egS+uS4gwnbmJgaxFFO5K7mWY9TcU9NlWafOz7chwzG48irImL3wVLYXiVUe5Ezuqcy6pFK2Iu+fsU2deMbdXpGj6ybmDOFAzqnNuqRWeJaf93T+HB7SAPciPsbHAuZgrhBsciXn1GZdUiu8kP+PeBzSBIx9Dn7RQo7QhxzLHKG45JrLrEsmpXkx0Gvw0GbgypH98EvgqjGWY9RVJ4ucyJFcc5l1mSm9OYPiNwKDF2O3xXoJYw/AD8N5mu99OO1MON/OLoPfAL8U3sbYiDwTQIycZl0yqv07YC2+4pT0mNz6MuuSSXm++v0FXlLjkQs5tX1lxtDOZl06S6gn2IrQp+ClNCG5kFPfZl0yzgCXxPNVp+8mJIctGetugrIuTQpF3M+3nd/C1ZUpMZuVmMTu820X8JVmXSplSbfxWqTmIs2YDbYqF7GIWbpdC4LWJdMsfQM498HVlSqrGqxuH3MTg1hDMeuSeaa4WPQP8P/A6xopdDtzMWfORa+Ai2rWJaqczcl4hmAP/Bn4Z/DQpuOYA3DmyHlmA3BJba4La7MuSaX+f3LebPx6uNqEjOWYsduodCnxaHC5gdiAig2hFqUONWYUupymVus4K5BCATdgClWdU1bADShL5cAUCrgBU6jqnLICbkBZqqICzxDZ8NdFizY3YNHTU0uut7tZ1TJqucMN2FK4noftEPHfE+N6C3MD9iZ9J+Bd4uhXxLjewtyAvUnfCXhUd7PqpESGweqpuAxUioDo+y5fRYiQk4Qb8FS19+Gpqsn3Th3qZ20UUMVuk3toY9ZAWF07+cIQivNnwCHM0kmOXGzxCFy9y9fjwymtbKZ+BTw5P3vxT9WCawbPOTnMf7sqoIreFafk8aF3+Xq05GKGxm3KDciPSKF3+TqOMduHNskl851qA7a9y9cDJU/mELlNrQG73OXrdUxwzh8B79xPWzpnKCcBv6Admm0F4Vh3+foSuX4G/3BoIpTOV30FnHrc3aVP5FD5Tb2xlPr5nd/ULsrK1s/KBEw5hnf54s2NbIkUmHJzNdX+GDQf0+f4RC3ULW3TJExxP7/ruwvut91uvSWNnmKDrar5Vah2jaScg6IosGoyprSPFxjdA1cXI0QR30n0E/BjbcajaIL74ee6GfpRYKyNtaouvtrxDmG74YM6swG+QTamI6jXgiovI5jLpnjm4gM4fwOFv0jO30M5BP8EPnobwlEUXykUG0ItSh2TivGK6ElNd3nFugHLm5NJMXIDTmq6yyvWDVjenEyKkRtwUtNdXrFuwPLmZFKM3ICTmu7yinUDljcnk2LkBpzUdJdX7FfKo3SCEVf4Xgn/Kfy6E1ua//CXMHlhzpuz/80jHGEFlhS4As/3w9+BrzpZv2ofxzIHc9msgKTATxD1T/iqxmqzjzmZ22YFKhW4GFufhbdprpAxxCCWzQqcUIArV34D57q3kEbqEkssYnrVDESYsvGnR5+Ed2mmLmOJTQ62CSqwDTW/BO/SQDHGkgO52CakAO9XzBW/MRooRg5y8T2UJ9KAvK7h+YKab97A5ERutpEr8FfUN5/0Lv95IPHWzGMdwJCbbcQK/Bq1tW26tzH2Yfgt8PPhi0ewfMxt3McYxrbF+RXG2kaowAWo6SN4aGOsY8weOO+fpxpjOWYdHopHjuRqG5kCT6OekGbgudx98C5X/3MsczBXCDa52kakwFWoJaQB+Cp0c8T6mSv01ZecbSNRgFf2qw3IX/+5OkHdzKn+shC5krNtBArwDu9q8zHu1oQ1M3cIF3K3DVyB34O/OukPZqj1oQA+5G4buAJHwF9pQC4ezXFelhjEUjiRu23ACnDZkzLRjLkjY53EUnl56VbGiYkN9XNxonlwkPM0GLHUAxLWYMugQIqLknaJvPm9G29NlsuIpX7Xp9aQi/tocVI04A5RrYNiXMwwFVOtISa3SeZK0YDqKa0Xe1BcxVRr6KEEQzYp8D4ClA/7ZzclSrCfmAo31mAbqAKfg7cyyX38ug8xFW6swZZBgRRvwV+IvFNgN0GrmMebEnl/HAXUCQlBU49szwpJGilWxTwaCc9pGhRI0YDvNWDOd2+fP8j4Xz26VWvISH2cUCka8BVRqsvFuJhh6vd7ag0xuU0yV4oG5NVmit2kBEWOUTHVGiLTc7oYCtyGJMqRJg9WzosBKOYgFjEVbqzBNlAFeK2tMsmM4dL5XEYslRdrsA1YgRfAXZlsLg5Yy1AnMYilcCJ328AVuBP8lclmzAH45oT1MjcxVD7kbhu4AueAP3+IT530vQnrZW6VBzmTu20ECjyKGtSJZ9ztCWpmzhAO5GwbiQL8ovk4PKQB7kV8jK+GmIO5QrDJtY8vxwFrS6XAA0gc0gSMfQ7e5co0jmWOUFxytY1MAV4M9AY8tBn4WWw//BK4aozlmJDPnnNer2NczssD1JpGH5fy6HMu3vV48A9427dW3kzyAPwwnFeszdfqnYnHF8Ivg98AvxTexngLjxvhB9sM9phhKHA3aM5fbUr7T262kSvAV9rH4aU1HznleBcY+fQOo7zTQfMpeClNSC7kZJuQAltQ62PwvpuQHMjFNkEF+JZ3Fzz0O8IYTUtMYvttFyJM3a6BAK/CYzSWkoNYxLRZgQ0FeDfTe+CfwpUmahPD3MQgls0KVCpwLrbeD+fFQG2arGoMczEnc9usgKQAz0bshj8Db/OqyDEcuxvuMxsQoXQr+cM43zKvhPNMx044z3p8Bz5vLF7++QGcZ0d4DQfPlByCfwK3WQErYAWsgBWwAlbAClgBK2AFrIAVsAJWwApYAStgBayAFbACVsAKWAErYAWsgBWwAj0p8D+bTrXJ/RLxDwAAAABJRU5ErkJggg==;" vertex="1" parent="1">
          <mxGeometry x="585" y="540" width="38.79" height="40" as="geometry" />
        </mxCell>
        <mxCell id="FzzvjinRueu_OwRG8yQ0-53" value="" style="shape=image;verticalLabelPosition=bottom;labelBackgroundColor=default;verticalAlign=top;aspect=fixed;imageAspect=0;image=data:image/png,iVBORw0KGgoAAAANSUhEUgAAAKAAAAClCAYAAADbAvaeAAAEDmlDQ1BrQ0dDb2xvclNwYWNlR2VuZXJpY1JHQgAAOI2NVV1oHFUUPpu5syskzoPUpqaSDv41lLRsUtGE2uj+ZbNt3CyTbLRBkMns3Z1pJjPj/KRpKT4UQRDBqOCT4P9bwSchaqvtiy2itFCiBIMo+ND6R6HSFwnruTOzu5O4a73L3PnmnO9+595z7t4LkLgsW5beJQIsGq4t5dPis8fmxMQ6dMF90A190C0rjpUqlSYBG+PCv9rt7yDG3tf2t/f/Z+uuUEcBiN2F2Kw4yiLiZQD+FcWyXYAEQfvICddi+AnEO2ycIOISw7UAVxieD/Cyz5mRMohfRSwoqoz+xNuIB+cj9loEB3Pw2448NaitKSLLRck2q5pOI9O9g/t/tkXda8Tbg0+PszB9FN8DuPaXKnKW4YcQn1Xk3HSIry5ps8UQ/2W5aQnxIwBdu7yFcgrxPsRjVXu8HOh0qao30cArp9SZZxDfg3h1wTzKxu5E/LUxX5wKdX5SnAzmDx4A4OIqLbB69yMesE1pKojLjVdoNsfyiPi45hZmAn3uLWdpOtfQOaVmikEs7ovj8hFWpz7EV6mel0L9Xy23FMYlPYZenAx0yDB1/PX6dledmQjikjkXCxqMJS9WtfFCyH9XtSekEF+2dH+P4tzITduTygGfv58a5VCTH5PtXD7EFZiNyUDBhHnsFTBgE0SQIA9pfFtgo6cKGuhooeilaKH41eDs38Ip+f4At1Rq/sjr6NEwQqb/I/DQqsLvaFUjvAx+eWirddAJZnAj1DFJL0mSg/gcIpPkMBkhoyCSJ8lTZIxk0TpKDjXHliJzZPO50dR5ASNSnzeLvIvod0HG/mdkmOC0z8VKnzcQ2M/Yz2vKldduXjp9bleLu0ZWn7vWc+l0JGcaai10yNrUnXLP/8Jf59ewX+c3Wgz+B34Df+vbVrc16zTMVgp9um9bxEfzPU5kPqUtVWxhs6OiWTVW+gIfywB9uXi7CGcGW/zk98k/kmvJ95IfJn/j3uQ+4c5zn3Kfcd+AyF3gLnJfcl9xH3OfR2rUee80a+6vo7EK5mmXUdyfQlrYLTwoZIU9wsPCZEtP6BWGhAlhL3p2N6sTjRdduwbHsG9kq32sgBepc+xurLPW4T9URpYGJ3ym4+8zA05u44QjST8ZIoVtu3qE7fWmdn5LPdqvgcZz8Ww8BWJ8X3w0PhQ/wnCDGd+LvlHs8dRy6bLLDuKMaZ20tZrqisPJ5ONiCq8yKhYM5cCgKOu66Lsc0aYOtZdo5QCwezI4wm9J/v0X23mlZXOfBjj8Jzv3WrY5D+CsA9D7aMs2gGfjve8ArD6mePZSeCfEYt8CONWDw8FXTxrPqx/r9Vt4biXeANh8vV7/+/16ffMD1N8AuKD/A/8leAvFY9bLAAAAOGVYSWZNTQAqAAAACAABh2kABAAAAAEAAAAaAAAAAAACoAIABAAAAAEAAACgoAMABAAAAAEAAAClAAAAAEzEtMMAAAYhSURBVHgB7d0xqxxlG8bxaNQiFgYURG0iUWKlgrFPK2glkhQBy/g5/A4pLQIpErATtBa0MhaiFhbhVCpiDAkkTUKM1wVbBNzZvebM3DNznvk/8HBed++5n53ffbnnPXuEc+wYCwEEEEAAAQQQQAABBBBAAAEEEEAAAQQQQAABBBBAAAEEEEAAAQQQQAABBBBAAAEEEEAAAQQQQAABBBBAAAEEEEAAAQQQQAABBBBAAAEEEEAAAQQQQAABBBBAAAEEEEBAAk8VKbjv69qntU9uzrijrze1D7Qfbx7jy7IEjvTcnpblR9rXtG9pO2Tbtp9zjWt9DWtegSbm9okMf9PeFrhdj/kaX8uaR+DIz+1FuX2lvStkyXPu4V6saQSamNubsjrQTgKW1LiXe7JqBZqYm3/A+EM7CVafGvd0b1aNQBNzOyGbX7X7BKtPrXv7DNa4As3M7bJc+gTqMLU+gzWuQBNze1cmj7QPE6o+1/gMn8UaR6CZuX0pjz5BGlLrs1jjCCx2bv7kO10vq/B37ePpBZv6G5v6s/r6Wo9r/S7o+r96XEPp/wWamdtnurf0He22as9rPxlw/28/5ufSPpdUyxom0Mzc/OuzJDj3VffODjM/55qkl89kDRNoZm6/yCEJzeeBl2uSXj6TNUygmbndlUMSmrcCL9ckvXwma5jAouf25P9H23eb/qEg+a9XnlPdwz3NntXzD/bU+Ol/tT8N6ijpFriip+aYW/TDap8A+h0rWWnPtF9yJjXDBcaeW9Qv+Tdj+K3RAYEOAQLYAcPD0wgQwGmcOaVDgAB2wPDwNAIEcBpnTukQIIAdMDw8jQABnMaZUzoECGAHDA9PI/DMNMcMOuXqoKu5+OKSCaJPqzc3kP7mIu05dr8lO8/52sZ2HrUf34LnjAZnR7+khgmBMgHeActoaZwIEMBEiZoyAQJYRkvjRIAAJkrUlAkQwDJaGicCBDBRoqZMgACW0dI4ESCAiRI1ZQIEsIyWxokAAUyUqCkTIIBltDROBAhgokRNmQABLKOlcSJAABMlasoECGAZLY0TAQKYKFFTJkAAy2hpnAgQwESJmjIBAlhGS+NEgAAmStSUCRDAMloaJwIEMFGipkyAAJbR0jgRIICJEjVlAgSwjJbGiQABTJSoKRMggGW0NE4ECGCiRE2ZAAEso6VxIkAAEyVqygQIYBktjRMBApgoUVMmQADLaGmcCBDARImaMgECWEZL40SAACZK1JQJEMAyWhonAgQwUaKmTIAAltHSOBEggIkSNWUCBLCMlsaJAAFMlKgpEyCAZbQ0TgQIYKJETZkAASyjpXEiQAATJWrKBI7CX0xf9F/8LpvMShqnf93cHKP+pewe/VYyitlvM83CqDngW/Dsc1/3CyCA657/7HdPAGcfwbpfAAFc9/xnv3sCOPsI1v0CCOC65z/73RPA2Uew7hdAANc9/9nvvuI3If5Ac9+HlemHnga6OrvS0X4B6W+Sxp7b6Gr31NHB2rdfCU52zb4+ft5nsoYJLHpufb4F/x06fBDUJTVuk54ZHLnaktQwmUlSUza3r9U5edc6UN0LO8bt51yT9PKZrGECi55bn3fA70OHU6r7RvvVLfV+zM+d2vLctoe+2/Ygj/USWPTc+vww8LZu+6cet35ftde1f9hc876+ntd+fvPPyRef+XNSSE2nQFNzu6HbTL51jlHjs1jjCDQzt4/lMUa4kh4+izWOQFNz+1YmSYCG1PgM1rgCzcztDbnc1R4SsF3Xuvfpce3pJoGm5vahbuih9q4gHeY593RvVo1AU3O7IKMH2ocJ2rZr3Ms9WbUCTc3tnKz+1N4WqD6PuYd7saYROKdjmpnbS7qZL7QfafcJnWt9ja91D9a0As3N7Yz8Lmv/o70viK5xra9hzSsw69z6/CYkZTquwve0z2r7p9mT2l53tG9q+0PRH7X97sdajgBzW84seCUIIIAAAggggAACCCCAAAIIIIAAAggggAACCCCAAAIIIIAAAggggAACCCCAAAIIIIAAAggggAACCCCAAAIIIIAAAggggAACCCCAAAIIIIAAAggggAACCCCAAAIIIIAAAggggMB6BP4D8oE4pVcI2JkAAAAASUVORK5CYII=;" vertex="1" parent="1">
          <mxGeometry x="652" y="475" width="48.48" height="50" as="geometry" />
        </mxCell>
        <mxCell id="FzzvjinRueu_OwRG8yQ0-54" value="&lt;font style=&quot;font-size: 14px;&quot;&gt;Items&lt;/font&gt;" style="text;html=1;align=center;verticalAlign=middle;whiteSpace=wrap;rounded=0;" vertex="1" parent="1">
          <mxGeometry x="646.24" y="535" width="60" height="30" as="geometry" />
        </mxCell>
        <mxCell id="FzzvjinRueu_OwRG8yQ0-55" value="" style="rounded=1;whiteSpace=wrap;html=1;fillColor=#f8cecc;strokeColor=#b85450;opacity=80;" vertex="1" parent="1">
          <mxGeometry x="901" y="460" width="231" height="160" as="geometry" />
        </mxCell>
        <mxCell id="FzzvjinRueu_OwRG8yQ0-56" value="" style="shape=image;verticalLabelPosition=bottom;labelBackgroundColor=default;verticalAlign=top;aspect=fixed;imageAspect=0;image=data:image/png,iVBORw0KGgoAAAANSUhEUgAAAKAAAAClCAYAAADbAvaeAAAEDmlDQ1BrQ0dDb2xvclNwYWNlR2VuZXJpY1JHQgAAOI2NVV1oHFUUPpu5syskzoPUpqaSDv41lLRsUtGE2uj+ZbNt3CyTbLRBkMns3Z1pJjPj/KRpKT4UQRDBqOCT4P9bwSchaqvtiy2itFCiBIMo+ND6R6HSFwnruTOzu5O4a73L3PnmnO9+595z7t4LkLgsW5beJQIsGq4t5dPis8fmxMQ6dMF90A190C0rjpUqlSYBG+PCv9rt7yDG3tf2t/f/Z+uuUEcBiN2F2Kw4yiLiZQD+FcWyXYAEQfvICddi+AnEO2ycIOISw7UAVxieD/Cyz5mRMohfRSwoqoz+xNuIB+cj9loEB3Pw2448NaitKSLLRck2q5pOI9O9g/t/tkXda8Tbg0+PszB9FN8DuPaXKnKW4YcQn1Xk3HSIry5ps8UQ/2W5aQnxIwBdu7yFcgrxPsRjVXu8HOh0qao30cArp9SZZxDfg3h1wTzKxu5E/LUxX5wKdX5SnAzmDx4A4OIqLbB69yMesE1pKojLjVdoNsfyiPi45hZmAn3uLWdpOtfQOaVmikEs7ovj8hFWpz7EV6mel0L9Xy23FMYlPYZenAx0yDB1/PX6dledmQjikjkXCxqMJS9WtfFCyH9XtSekEF+2dH+P4tzITduTygGfv58a5VCTH5PtXD7EFZiNyUDBhHnsFTBgE0SQIA9pfFtgo6cKGuhooeilaKH41eDs38Ip+f4At1Rq/sjr6NEwQqb/I/DQqsLvaFUjvAx+eWirddAJZnAj1DFJL0mSg/gcIpPkMBkhoyCSJ8lTZIxk0TpKDjXHliJzZPO50dR5ASNSnzeLvIvod0HG/mdkmOC0z8VKnzcQ2M/Yz2vKldduXjp9bleLu0ZWn7vWc+l0JGcaai10yNrUnXLP/8Jf59ewX+c3Wgz+B34Df+vbVrc16zTMVgp9um9bxEfzPU5kPqUtVWxhs6OiWTVW+gIfywB9uXi7CGcGW/zk98k/kmvJ95IfJn/j3uQ+4c5zn3Kfcd+AyF3gLnJfcl9xH3OfR2rUee80a+6vo7EK5mmXUdyfQlrYLTwoZIU9wsPCZEtP6BWGhAlhL3p2N6sTjRdduwbHsG9kq32sgBepc+xurLPW4T9URpYGJ3ym4+8zA05u44QjST8ZIoVtu3qE7fWmdn5LPdqvgcZz8Ww8BWJ8X3w0PhQ/wnCDGd+LvlHs8dRy6bLLDuKMaZ20tZrqisPJ5ONiCq8yKhYM5cCgKOu66Lsc0aYOtZdo5QCwezI4wm9J/v0X23mlZXOfBjj8Jzv3WrY5D+CsA9D7aMs2gGfjve8ArD6mePZSeCfEYt8CONWDw8FXTxrPqx/r9Vt4biXeANh8vV7/+/16ffMD1N8AuKD/A/8leAvFY9bLAAAAOGVYSWZNTQAqAAAACAABh2kABAAAAAEAAAAaAAAAAAACoAIABAAAAAEAAACgoAMABAAAAAEAAAClAAAAAEzEtMMAABB8SURBVHgB7Z1rzFxVFYYRhLbcJBRCIdiPcisiUpSWm/yQSzVA1CalBlIDISlSJUgiKAYwBlL4ZRQxhNIAYuIfWiEE0GJCQDQGSgETKCjUYCkkUG5WCnIVfZ/4DZkOZ85Ze5+zz2VmreTNmTl7r7Xe9e49Z85lf/Nts42bK+AKuAKugCvgCrgCroAr4Aq4Aq6AK+AKuAKugCvgCrgCroAr4Aq4Aq6AK+AKuAKugCvgCrgCroAr4Aq4Aq6AK+AKuAKugCvgCrgCroAr4ApEKPCJCJ9RdZmlwk4Tjhb2nizyRW3XCL8V/jG5zzeuQKUKHKRotwofCv8dAtroQ183V6AyBb6hSFuEYRNvcD998XFzBUorcLEiDE4w63t83VyBaAWulKd1sg3rRww3VyBIAS66rhGGTarQ/cTyC7mgIRjfztup9JuF0ElW1P8mxSS2myswVIHt1bJSKJpMse3EJoebK/AxBaZpD/fxYieX1Y8c5HJzBT5SYBe9+oNgnURl+5GLnG6uwDa7S4OHhZhJxVdq7Fc2OcntNsYKzFDtTwgxk48LFS4qyly0kBsObmOowIRqXi/ETL6fy6//tgqv2RcTCw5wcRsjBWar1ueFmAmzLEcn2mJibpQfnNzGQIE5qnGTEDNRvm/Qhz4xseEEN7cRVuAY1fZPIXSC/Ec+SwN0oS8+oXngBke3EVTgJNX0phA6Kd6Xz+IIPfDBNzQfHOHqNkIKfE21vCOETgZ8vl5CB3xj88LZbQQUOFM1xB6JTq6gfmLEHnnh7tZhBb4l7rHnYsdVWDexYs89qcGtgwpcJM6hX7n0f1k4IkG9xCR2DCdqceuQAleIa8xAc2/wkIR1Ejv2/iM1ubVcAZ5IxC4k/bt896uhPnKQK+YD4gtbaxig2BTbypFFnzEDu05+vT+xjM0f4kcucsZwpUZqdWuRAizyvFWIGdC18pveQC3kJHcMZ2r1ha0NDFpWyqnaGbuQ9AH57poVtKZ95IZDzCSkZmp3a1CBMgtJV4v3tAa591LDAS4xk/B++fnC1p6SNW9ZzLlGiBm4VfLboWa+eengAqeYWtDAF7bmqZugbYZiPiHEDNgv5bddAk5lQ8IJbjE1PS4/NHGrQYEJ5VgvxAzUtfLjVk1bDW5wjKkNTdDGLaECBys2izdjBihvIWlCylGhyyxsRSO3BArMUcxNQszk+0ECPqlDwjmmVjRCK7cKFThGsV4XQgeEn0tbWiGPukPBnRpC60YrNHOrQIETFWOLEDoILMFaXEH+pkNQA7WE1o9maOdWQoGvyvdtIVT8d+SzoETetrlSCzWF6oB2aOgWoUDTC0kjKCd18YWtSeXdOvi5ehuzkHSz/KpcSLo1q+bfURs1hh4J0RJN3QwKXKQ+oQLTn8WenzfE73oXavSFrYlG8QrFjZl8L8jvkESc2hiWWqk5Ris0dhtQgCcAPxNiBK1rIekA5cbf7icGsQtb0RrN3aQAiytvFGImX90LSds2YGUWtqI52o+1lVlI+oiUmz7W6v2/eDRAi5gP8K3yG9uFrVNV/N2Rwv1Rfk0uJFX6VhlaoEnMJGQMGIuxMhZR3i/ECNaWhaRtG7BpIlRmYevObSsoFR8WT64RYibfb+TXpoWkqTSKjYs2aBSjLWPC2Iy07aXqHhdiBLpFfm1cSCparTI0ukWI0ZixYYxG0maqqmeEGGF+IT+/bWCfFmiFZjFaM0aM1UhZmYWkV42UEvUWg3Yxk3Cj/EZmYevnVMxLkUJcIj+3cgqgYcwkZMwYu04bv3u8SQgVgEWY3+505e0ij5YxC1sZu87+djW3Wv4mhE4+Fl9+U3CrVgE0jVnYyhgylp2zFWIcOvlGbSFp2wYtdmErY9kpmyu2oYf8t+Qzv1NVdpMsGqN1yMGBsWRMO2N3iGlIgSyy/GJnqus+UbQOXdjKmHbCWKHxgWCdgOOykLRtgxe6sJUxZWxbb98RQ+vkG7eFpG0bvM+IUMjC1k7cmVhpnIBvqB8CuDWrAGPAWFgOGoxt6+1JMbQU86PWVzI+BBkLy5gxtq23f4mhpZiDWl/J+BBkLCxjxtg2YiELAfgTQMtS7+3VjxNbt+YV+KQocJO6yLgd08iKpJAJyCfJYiExLfG8TzkFWj1uliNaufLd2xXIUcAnYI443pReAZ+A6TX2DDkK+ATMEceb0ivgEzC9xp4hRwGfgDnieFN6BXwCptfYM+Qo4BMwRxxvSq+AT8D0GnuGHAV4VOM22gp8SeV9SuC58BeELwt7CJ0zy0Nt62OfzhU/QoT51vuK8Duhf0xbX2I/2bzXrS/ECX6kwEl69ZTQiQNH3qTrb/uoOn/RCQV2FMtfN8U0ZOWK9VMSErOpuj1vSxTwq+CWDMS40vAJOK4j35K6fQK2ZCDGlYZPwHEd+ZbU7ROwJQMxrjT8SUjcyM+U23nCPIGrfv6dwg3CBqENNiESPX7wWSvA7znedNX67/Xlve5qfVbep6hj1o8AsW+RNUjCfguH8Pu39p+aMG/y0HmTrr8tOZEGE8xR7neF/nr7X7+ntiMa5Hd4AT+489sxnbR+ofNed7I4I2l+SSqvdtpuN8ZK0W2Vgd9dKRLXEbNI+F57HVyayHGoklp+G5E/4J/VAMEJ5bT8ehk1HNYAv9IpexOsaFs6UUsD3CleRbX32q9voIbrAvjxb7w6Zz1xi7adK8xA+Ez1Kaq7v50jUZ1HGY7Oob8TvdhQd6u69Auc97pVpCsgc4BivCrk1ZzVdp986liYQY57I/i9Jp8Dhc5YlshZ+zpTkIHodPXhPwxl1WnZV8f/Q7m4BL/18u3M6miL4PQZFdtbhTwqWOvO6sfX4vEJBTlOsbn1k5Xbuu8x+e+TkGNloa0FVZawwUD87cRGwVpzXj++6lL8YuxsxY05Ncji+rxiHSm02rKIZ+1rdREF5PiNvEuFskeVQV1eUcyjCnKHNM9V55eFwTxl3lPz5QIatNKsxbWSvIEUj6nWCdY6Q/vxz3ouFMpcmOB7gfC2EJrf2v9JxT5NaJ1ZC2gd8RxC/Ev7swQe1lvrK9vvEeWaL4TayXKom+fZyolGrTCr8K0gO4QEq394VrtEuE14U7DWVXU//hrtMoFzL/4j+qCxjzb6cFSqOr81HhrxePFcAe34CebKLOTrAMIWC4lpiRfaZ6YclgrzhJ0FeCPajEkwCaswHuwvFJggx5YMyI1rLno2T8bhD8knhLJcH1SMqwQ+bFOEKgyumwT+7SvnjYw3k5Sj83KBOpKY9ROTJLkx6Onqx7IjK9fYfgjOOSO2p/CMEBsrlR+c4IbBFc6pcvXioj1jkMR6SYq2SZIbghYtlSribW1/UVwGb1nsr33st8ZI3Q8us4R+g3MdHPlmYCwqN6tolSc2BlylflaOsf0eUo6JIXwO1v5na+BQxB0OcMkyuFNDUYyy7SuzkpfdZyVVNk+sf1U3ZbPq5LznSqHonGwv9anzSnWQK7nhkGfUQC3UNOhf1XvGonKzkqs8sTFgqntja5T/aCMHuk0RfiJ8KFg1K9uPXOQkt9WoidrK5s7yZywqt6xEWfsqT2wMyDPNLD6x+zYo3mIh9qr+BPmuE2LzW/3IQa4YozZq3CBY81n6MRaVmyUxfZqy85XYyjGvH+dIZwhFX7eWOnmstUTg1kRezpg2YhK7ikdn1ErNVZ0fMhaVm1WkyhMbAzIQqwUrz/5+T8vvaoFFCCkMbguEe4T3hf7cIa/xJQaxqph4CvMxQwO0QJMQbr2+jEESbr0ERVvlb8y44bxM4IbuMJ6sTnlUWC6cI8wW6rTdlGyRsELgHGyLMIwrbfShLz741mlog0ZohWZoN4wrmqN90JMSzgGsRmKLhcS0xIvpgwjcithJ4I+EADdJX5jcatMaQy9uGPP0Y9dJVm9oy79QfUWw6j7pmnyzozLsK7DlSAfeErjxzRE6yEImi1WIkJhBZL3z6Cmw7eiV5BV1SQGfgF0arRHk6hNwBAe1SyVx/8ctXIGZcjlPmCdwzvuIcIOwQWiDTYhEjx981grwe443XTUuQizoan1W3qeoI1d9g1qwb5E1SMJ+CxU7ix93AViW1VkbFHzY+84WaCBetOTrPcU4whAnVZfDFfhdYdjY0Oa/jpVK/Rri3pEzuL1Bv70GHsNSrDLwu2uYc9v39wQu2ra9jlh+h8rRssLFfx0rVuECP+v6sSkFcbrafKeIF334eu3XN1DkdQH87m6AX+mUrxsLbPIcqHSRQwKcaay9NwH5sB42JFaK3RydQxc5LE5BJGXMvyh4T+C87bUpSTQQ+wDlfNVYe78u98mnjseS5Lg3gh8LCw4UOmO/EtN+gYe95pM4vzNV5ROdrmYesg+rtWj/JfnhK2m9uAS/9fLdoxIWNQQ5K6BQLvd/KOxSA69UKfZWYJYgFU2yvHY+jMenIqi4xwnc+snjUNT2mPz3ERqxkK8Ilgu9JEwNYIo4Twusa6vCblKQm6sIVBCDRZnccvl0QT9LM+fOTMK/WjoH9Jmtvn8WOEqXNZapLRD4wLXabhS7ok9UqvaHlTtosWOEkqxtu1Qoe1QZ1IB1fUdF8BnmMlcNLwuDecq8p+bLBTRore0vZu8IZQqN8eWr7LOJVTlV8dclrA3dLhRCvnXUfSvD9wLhbSFGR4vPk4p9mtBa+7GYWQqpss+KRGpwOsG57doaa2LhQsxF2skN8DxbOUNOudQ9vXGIfkCocoLlxfpQuTjfqcJY/cN9yiXCbcKbQl7ulG1PKfdlwpHCDsKgsY82+nBUSsklLzYa8XjxXAHtKj0Niv062F1E/iRwAzS1PaQExwYkmam+S4V5ws4C4iLajEkwCaswrvQXCkyQEH5ZuT/Qzo3C5slGLvgmhLJcH1SMqwQ+bFU9oYLrJuElgfNG5hCTlG+R5QJ11GJ7KAuTI+/TU0UbA2y109WRZUdV5M2LgeCcM2J7Cs8Ief2baIMT3DC4wjk1D7RnDGozviauEXgAn6q4E43VzFE/jkqpePTivqgcfDX2Gxdn7O/1aXoLl1n9BPUaznVwZAwYi1ptrrL9Xkgh/L7GSlYlyt9fE0f8iSF8+DPQZ2vg0M8n6zUc4JJlcK/jW2tlVvI69nFOuEx4WOD8IEug0H1TFcdiMc9rrVw477lSKDon20t96ryiHuRPbjjkGTVQCzUN+lf1nrEwWexFiCU4hfIkYTdhisVhSB8+sRbj3ph1slri9frwYfquwC8UWIxaOfH/npBS334uTJyfCpwv8xVosaPViYUjVd4g7+Xlnue03ptx2T6mQqv6BBNng7BYiJ1EJ8h3nVAlp6xY5CBXjFEbNW4QsmLH7mMsxs7OV8WxgvX7ccQ9Qyj6urUIzD3TJcJGoT9HFa+JSewqHp1RKzVTexXcGIuxMwZitRAj4NPyu1pgEUIKg9sC4R7hfSGGIz74EoNYVUw8hfmYoQFaoEkMT8YgFTeFbrdxw3mZsFkYJt5rantUWC6cI8wW6jTOiRcJKwTOK7cIw7jSRh/64oNvnYY2aIRWaIZ2w7iiOdozBmbjHGAUDRG4FbGTwD1KwE3SFya32rTGGANuGPP0Y9dJVm9oOxa/jjVZr29cAVfAFXAFXAFXwBVwBVwBV8AVcAVcAVfAFXAFXAFXwBVwBVwBV8AVGEEF/gdmWb8rEpz33AAAAABJRU5ErkJggg==;" vertex="1" parent="1">
          <mxGeometry x="923.21" y="480" width="38.79" height="40" as="geometry" />
        </mxCell>
        <mxCell id="FzzvjinRueu_OwRG8yQ0-57" value="&lt;span style=&quot;font-size: 14px;&quot;&gt;Finance Prod Workspace&lt;/span&gt;" style="text;html=1;align=center;verticalAlign=middle;whiteSpace=wrap;rounded=0;" vertex="1" parent="1">
          <mxGeometry x="922" y="437" width="168" height="30" as="geometry" />
        </mxCell>
        <mxCell id="FzzvjinRueu_OwRG8yQ0-58" value="" style="shape=image;verticalLabelPosition=bottom;labelBackgroundColor=default;verticalAlign=top;aspect=fixed;imageAspect=0;image=data:image/png,iVBORw0KGgoAAAANSUhEUgAAAKAAAAClCAYAAADbAvaeAAAEDmlDQ1BrQ0dDb2xvclNwYWNlR2VuZXJpY1JHQgAAOI2NVV1oHFUUPpu5syskzoPUpqaSDv41lLRsUtGE2uj+ZbNt3CyTbLRBkMns3Z1pJjPj/KRpKT4UQRDBqOCT4P9bwSchaqvtiy2itFCiBIMo+ND6R6HSFwnruTOzu5O4a73L3PnmnO9+595z7t4LkLgsW5beJQIsGq4t5dPis8fmxMQ6dMF90A190C0rjpUqlSYBG+PCv9rt7yDG3tf2t/f/Z+uuUEcBiN2F2Kw4yiLiZQD+FcWyXYAEQfvICddi+AnEO2ycIOISw7UAVxieD/Cyz5mRMohfRSwoqoz+xNuIB+cj9loEB3Pw2448NaitKSLLRck2q5pOI9O9g/t/tkXda8Tbg0+PszB9FN8DuPaXKnKW4YcQn1Xk3HSIry5ps8UQ/2W5aQnxIwBdu7yFcgrxPsRjVXu8HOh0qao30cArp9SZZxDfg3h1wTzKxu5E/LUxX5wKdX5SnAzmDx4A4OIqLbB69yMesE1pKojLjVdoNsfyiPi45hZmAn3uLWdpOtfQOaVmikEs7ovj8hFWpz7EV6mel0L9Xy23FMYlPYZenAx0yDB1/PX6dledmQjikjkXCxqMJS9WtfFCyH9XtSekEF+2dH+P4tzITduTygGfv58a5VCTH5PtXD7EFZiNyUDBhHnsFTBgE0SQIA9pfFtgo6cKGuhooeilaKH41eDs38Ip+f4At1Rq/sjr6NEwQqb/I/DQqsLvaFUjvAx+eWirddAJZnAj1DFJL0mSg/gcIpPkMBkhoyCSJ8lTZIxk0TpKDjXHliJzZPO50dR5ASNSnzeLvIvod0HG/mdkmOC0z8VKnzcQ2M/Yz2vKldduXjp9bleLu0ZWn7vWc+l0JGcaai10yNrUnXLP/8Jf59ewX+c3Wgz+B34Df+vbVrc16zTMVgp9um9bxEfzPU5kPqUtVWxhs6OiWTVW+gIfywB9uXi7CGcGW/zk98k/kmvJ95IfJn/j3uQ+4c5zn3Kfcd+AyF3gLnJfcl9xH3OfR2rUee80a+6vo7EK5mmXUdyfQlrYLTwoZIU9wsPCZEtP6BWGhAlhL3p2N6sTjRdduwbHsG9kq32sgBepc+xurLPW4T9URpYGJ3ym4+8zA05u44QjST8ZIoVtu3qE7fWmdn5LPdqvgcZz8Ww8BWJ8X3w0PhQ/wnCDGd+LvlHs8dRy6bLLDuKMaZ20tZrqisPJ5ONiCq8yKhYM5cCgKOu66Lsc0aYOtZdo5QCwezI4wm9J/v0X23mlZXOfBjj8Jzv3WrY5D+CsA9D7aMs2gGfjve8ArD6mePZSeCfEYt8CONWDw8FXTxrPqx/r9Vt4biXeANh8vV7/+/16ffMD1N8AuKD/A/8leAvFY9bLAAAAOGVYSWZNTQAqAAAACAABh2kABAAAAAEAAAAaAAAAAAACoAIABAAAAAEAAACgoAMABAAAAAEAAAClAAAAAEzEtMMAAAybSURBVHgB7V1NyCTVFZ0x45j/iJKJGIVPnGHUlSFmRFEREZUEBHHjKhmYkE1MQCGbuBmDusmggSgGx01EsjILoxAyDoKbIZDxZysy8Vv4A+JvHH9GR5NzZrq/9DRVXedVvffqVdW5cL+vu+q+e84979Ld1fWqetMmmxWwAlbAClgBK2AFrIAVsAJWwApYAStgBayAFbACVsAKWAErYAWsgBWwAlbACoxNgc0DK+ir4PutGecP8f/TgfFPRXewupTagFswUz+CXwf/IXwn/EL4GfBFO4YnR+Avw5+HPwv/F/w4fIxmXRLP6hXI/yf4u/D/tnSOZQ7mGotZl8Qz+WPkPwRv23R145iTuYdq1iXxzPGt9SC8roFibScGsYZi1iXDTN0JjGPwWE3WlIdYxCzdrEviGeJR7N/gTQ2Taj+x50fSiUsNSm9dguRqF7wNw3i0mqq51LzkQC6lmHXJMBPfBcbLcLVJUseRCzn1bdYlwwx8ExiH4ambKjQ/OZFbX2ZdMin/BHBCm6Mqnmc+3pp5rAMYcuvLrEsG5X8JjKpmUra9jbEPw2+Bnw9fPHPDx9zGfYxhrJKzKoYcc5t1yaD4GjA+hldN+qpt6xizB74VrhpjOWYdvip31T5yXIPnsjUAWZcMaj8JjKoJr9v2JeL3wb/WgdvXZzmYqw6naju55jLrkkHpq4BRNdF12z5C/M0ReTEXc9bhVW0n59RmXVIrPMv/d/yvmuSqbXw7ujoBL+YMeasj59RmXVIrjPwXw6sarW7brQk5MXcdbtV2ck9l1iWVskt578Pzqsmt2vbg0tgUTx8K4EPuqcy6pFJ2Ke86nlc12/K2NxH37aWxKZ4Sg1jL+FXP11MQmOVk7irM5W1T0yWq5DtEkSn6HVGRVycj1vJE1z3fvjpVq73WpZVs4YN+gSF1E7u4nQcHOVelEEs9IGENsc26VCh6WsW2rpt+ICZ4GnG8sCiXEYuYiqk1KLnmMWrOSemSogF3zhVv+M9VyrlNxVRrCOGv5lQ5hmA3xaqYag1NeBv7UzTgBRvZVz94cfXuJHtVTLWGEJJqTpVjCHZTrIqp1tCEl3T/u8i++Fmv7vHZSVlUJydmHZ/F7awhtlmX2IrW5PsM2xcns+7x6TXjU24mZh2fxe2sIbZZlwpFU7wFcyIVS4HdhKtiqjU04S3uV3OqHBdzd32sYqo1yHxUYDkhAo+KwWeJcTHDVEy1hhBuak6VYwh2U6yKqdbQhLexP0UDvrORffWDFF/2rkbctIlfBivGxa2xTc05KV1SNOARceYuF+Nihu0Sk/1bjAsJU3NOSpcUDcirzRS7SQmKHKNiqjWE0FNzqhxDsJtiVUy1hia8pPtvQ3Z+WG3yLxBzXlImpyYnFjGbeHE/a4ht1iW2ojX5vo/tyiQzhsvvcxmxVF6sIbZZl9iKrsjHe/Qpk83FAWsr8sTaRQx1IQK5pzLrsqRsis+AhHhiCafuKS8+egS+uS4gwnbmJgaxFFO5K7mWY9TcU9NlWafOz7chwzG48irImL3wVLYXiVUe5Ezuqcy6pFK2Iu+fsU2deMbdXpGj6ybmDOFAzqnNuqRWeJaf93T+HB7SAPciPsbHAuZgrhBsciXn1GZdUiu8kP+PeBzSBIx9Dn7RQo7QhxzLHKG45JrLrEsmpXkx0Gvw0GbgypH98EvgqjGWY9RVJ4ucyJFcc5l1mSm9OYPiNwKDF2O3xXoJYw/AD8N5mu99OO1MON/OLoPfAL8U3sbYiDwTQIycZl0yqv07YC2+4pT0mNz6MuuSSXm++v0FXlLjkQs5tX1lxtDOZl06S6gn2IrQp+ClNCG5kFPfZl0yzgCXxPNVp+8mJIctGetugrIuTQpF3M+3nd/C1ZUpMZuVmMTu820X8JVmXSplSbfxWqTmIs2YDbYqF7GIWbpdC4LWJdMsfQM498HVlSqrGqxuH3MTg1hDMeuSeaa4WPQP8P/A6xopdDtzMWfORa+Ai2rWJaqczcl4hmAP/Bn4Z/DQpuOYA3DmyHlmA3BJba4La7MuSaX+f3LebPx6uNqEjOWYsduodCnxaHC5gdiAig2hFqUONWYUupymVus4K5BCATdgClWdU1bADShL5cAUCrgBU6jqnLICbkBZqqICzxDZ8NdFizY3YNHTU0uut7tZ1TJqucMN2FK4noftEPHfE+N6C3MD9iZ9J+Bd4uhXxLjewtyAvUnfCXhUd7PqpESGweqpuAxUioDo+y5fRYiQk4Qb8FS19+Gpqsn3Th3qZ20UUMVuk3toY9ZAWF07+cIQivNnwCHM0kmOXGzxCFy9y9fjwymtbKZ+BTw5P3vxT9WCawbPOTnMf7sqoIreFafk8aF3+Xq05GKGxm3KDciPSKF3+TqOMduHNskl851qA7a9y9cDJU/mELlNrQG73OXrdUxwzh8B79xPWzpnKCcBv6Admm0F4Vh3+foSuX4G/3BoIpTOV30FnHrc3aVP5FD5Tb2xlPr5nd/ULsrK1s/KBEw5hnf54s2NbIkUmHJzNdX+GDQf0+f4RC3ULW3TJExxP7/ruwvut91uvSWNnmKDrar5Vah2jaScg6IosGoyprSPFxjdA1cXI0QR30n0E/BjbcajaIL74ee6GfpRYKyNtaouvtrxDmG74YM6swG+QTamI6jXgiovI5jLpnjm4gM4fwOFv0jO30M5BP8EPnobwlEUXykUG0ItSh2TivGK6ElNd3nFugHLm5NJMXIDTmq6yyvWDVjenEyKkRtwUtNdXrFuwPLmZFKM3ICTmu7yinUDljcnk2LkBpzUdJdX7FfKo3SCEVf4Xgn/Kfy6E1ua//CXMHlhzpuz/80jHGEFlhS4As/3w9+BrzpZv2ofxzIHc9msgKTATxD1T/iqxmqzjzmZ22YFKhW4GFufhbdprpAxxCCWzQqcUIArV34D57q3kEbqEkssYnrVDESYsvGnR5+Ed2mmLmOJTQ62CSqwDTW/BO/SQDHGkgO52CakAO9XzBW/MRooRg5y8T2UJ9KAvK7h+YKab97A5ERutpEr8FfUN5/0Lv95IPHWzGMdwJCbbcQK/Bq1tW26tzH2Yfgt8PPhi0ewfMxt3McYxrbF+RXG2kaowAWo6SN4aGOsY8weOO+fpxpjOWYdHopHjuRqG5kCT6OekGbgudx98C5X/3MsczBXCDa52kakwFWoJaQB+Cp0c8T6mSv01ZecbSNRgFf2qw3IX/+5OkHdzKn+shC5krNtBArwDu9q8zHu1oQ1M3cIF3K3DVyB34O/OukPZqj1oQA+5G4buAJHwF9pQC4ezXFelhjEUjiRu23ACnDZkzLRjLkjY53EUnl56VbGiYkN9XNxonlwkPM0GLHUAxLWYMugQIqLknaJvPm9G29NlsuIpX7Xp9aQi/tocVI04A5RrYNiXMwwFVOtISa3SeZK0YDqKa0Xe1BcxVRr6KEEQzYp8D4ClA/7ZzclSrCfmAo31mAbqAKfg7cyyX38ug8xFW6swZZBgRRvwV+IvFNgN0GrmMebEnl/HAXUCQlBU49szwpJGilWxTwaCc9pGhRI0YDvNWDOd2+fP8j4Xz26VWvISH2cUCka8BVRqsvFuJhh6vd7ag0xuU0yV4oG5NVmit2kBEWOUTHVGiLTc7oYCtyGJMqRJg9WzosBKOYgFjEVbqzBNlAFeK2tMsmM4dL5XEYslRdrsA1YgRfAXZlsLg5Yy1AnMYilcCJ328AVuBP8lclmzAH45oT1MjcxVD7kbhu4AueAP3+IT530vQnrZW6VBzmTu20ECjyKGtSJZ9ztCWpmzhAO5GwbiQL8ovk4PKQB7kV8jK+GmIO5QrDJtY8vxwFrS6XAA0gc0gSMfQ7e5co0jmWOUFxytY1MAV4M9AY8tBn4WWw//BK4aozlmJDPnnNer2NczssD1JpGH5fy6HMu3vV48A9427dW3kzyAPwwnFeszdfqnYnHF8Ivg98AvxTexngLjxvhB9sM9phhKHA3aM5fbUr7T262kSvAV9rH4aU1HznleBcY+fQOo7zTQfMpeClNSC7kZJuQAltQ62PwvpuQHMjFNkEF+JZ3Fzz0O8IYTUtMYvttFyJM3a6BAK/CYzSWkoNYxLRZgQ0FeDfTe+CfwpUmahPD3MQgls0KVCpwLrbeD+fFQG2arGoMczEnc9usgKQAz0bshj8Db/OqyDEcuxvuMxsQoXQr+cM43zKvhPNMx044z3p8Bz5vLF7++QGcZ0d4DQfPlByCfwK3WQErYAWsgBWwAlbAClgBK2AFrIAVsAJWwApYAStgBayAFbACVsAKWAErYAWsgBWwAj0p8D+bTrXJ/RLxDwAAAABJRU5ErkJggg==;" vertex="1" parent="1">
          <mxGeometry x="921" y="540" width="38.79" height="40" as="geometry" />
        </mxCell>
        <mxCell id="FzzvjinRueu_OwRG8yQ0-59" value="" style="shape=image;verticalLabelPosition=bottom;labelBackgroundColor=default;verticalAlign=top;aspect=fixed;imageAspect=0;image=data:image/png,iVBORw0KGgoAAAANSUhEUgAAAKAAAAClCAYAAADbAvaeAAAEDmlDQ1BrQ0dDb2xvclNwYWNlR2VuZXJpY1JHQgAAOI2NVV1oHFUUPpu5syskzoPUpqaSDv41lLRsUtGE2uj+ZbNt3CyTbLRBkMns3Z1pJjPj/KRpKT4UQRDBqOCT4P9bwSchaqvtiy2itFCiBIMo+ND6R6HSFwnruTOzu5O4a73L3PnmnO9+595z7t4LkLgsW5beJQIsGq4t5dPis8fmxMQ6dMF90A190C0rjpUqlSYBG+PCv9rt7yDG3tf2t/f/Z+uuUEcBiN2F2Kw4yiLiZQD+FcWyXYAEQfvICddi+AnEO2ycIOISw7UAVxieD/Cyz5mRMohfRSwoqoz+xNuIB+cj9loEB3Pw2448NaitKSLLRck2q5pOI9O9g/t/tkXda8Tbg0+PszB9FN8DuPaXKnKW4YcQn1Xk3HSIry5ps8UQ/2W5aQnxIwBdu7yFcgrxPsRjVXu8HOh0qao30cArp9SZZxDfg3h1wTzKxu5E/LUxX5wKdX5SnAzmDx4A4OIqLbB69yMesE1pKojLjVdoNsfyiPi45hZmAn3uLWdpOtfQOaVmikEs7ovj8hFWpz7EV6mel0L9Xy23FMYlPYZenAx0yDB1/PX6dledmQjikjkXCxqMJS9WtfFCyH9XtSekEF+2dH+P4tzITduTygGfv58a5VCTH5PtXD7EFZiNyUDBhHnsFTBgE0SQIA9pfFtgo6cKGuhooeilaKH41eDs38Ip+f4At1Rq/sjr6NEwQqb/I/DQqsLvaFUjvAx+eWirddAJZnAj1DFJL0mSg/gcIpPkMBkhoyCSJ8lTZIxk0TpKDjXHliJzZPO50dR5ASNSnzeLvIvod0HG/mdkmOC0z8VKnzcQ2M/Yz2vKldduXjp9bleLu0ZWn7vWc+l0JGcaai10yNrUnXLP/8Jf59ewX+c3Wgz+B34Df+vbVrc16zTMVgp9um9bxEfzPU5kPqUtVWxhs6OiWTVW+gIfywB9uXi7CGcGW/zk98k/kmvJ95IfJn/j3uQ+4c5zn3Kfcd+AyF3gLnJfcl9xH3OfR2rUee80a+6vo7EK5mmXUdyfQlrYLTwoZIU9wsPCZEtP6BWGhAlhL3p2N6sTjRdduwbHsG9kq32sgBepc+xurLPW4T9URpYGJ3ym4+8zA05u44QjST8ZIoVtu3qE7fWmdn5LPdqvgcZz8Ww8BWJ8X3w0PhQ/wnCDGd+LvlHs8dRy6bLLDuKMaZ20tZrqisPJ5ONiCq8yKhYM5cCgKOu66Lsc0aYOtZdo5QCwezI4wm9J/v0X23mlZXOfBjj8Jzv3WrY5D+CsA9D7aMs2gGfjve8ArD6mePZSeCfEYt8CONWDw8FXTxrPqx/r9Vt4biXeANh8vV7/+/16ffMD1N8AuKD/A/8leAvFY9bLAAAAOGVYSWZNTQAqAAAACAABh2kABAAAAAEAAAAaAAAAAAACoAIABAAAAAEAAACgoAMABAAAAAEAAAClAAAAAEzEtMMAAAYhSURBVHgB7d0xqxxlG8bxaNQiFgYURG0iUWKlgrFPK2glkhQBy/g5/A4pLQIpErATtBa0MhaiFhbhVCpiDAkkTUKM1wVbBNzZvebM3DNznvk/8HBed++5n53ffbnnPXuEc+wYCwEEEEAAAQQQQAABBBBAAAEEEEAAAQQQQAABBBBAAAEEEEAAAQQQQAABBBBAAAEEEEAAAQQQQAABBBBAAAEEEEAAAQQQQAABBBBAAAEEEEAAAQQQQAABBBBAAAEEEEBAAk8VKbjv69qntU9uzrijrze1D7Qfbx7jy7IEjvTcnpblR9rXtG9pO2Tbtp9zjWt9DWtegSbm9okMf9PeFrhdj/kaX8uaR+DIz+1FuX2lvStkyXPu4V6saQSamNubsjrQTgKW1LiXe7JqBZqYm3/A+EM7CVafGvd0b1aNQBNzOyGbX7X7BKtPrXv7DNa4As3M7bJc+gTqMLU+gzWuQBNze1cmj7QPE6o+1/gMn8UaR6CZuX0pjz5BGlLrs1jjCCx2bv7kO10vq/B37ePpBZv6G5v6s/r6Wo9r/S7o+r96XEPp/wWamdtnurf0He22as9rPxlw/28/5ufSPpdUyxom0Mzc/OuzJDj3VffODjM/55qkl89kDRNoZm6/yCEJzeeBl2uSXj6TNUygmbndlUMSmrcCL9ckvXwma5jAouf25P9H23eb/qEg+a9XnlPdwz3NntXzD/bU+Ol/tT8N6ijpFriip+aYW/TDap8A+h0rWWnPtF9yJjXDBcaeW9Qv+Tdj+K3RAYEOAQLYAcPD0wgQwGmcOaVDgAB2wPDwNAIEcBpnTukQIIAdMDw8jQABnMaZUzoECGAHDA9PI/DMNMcMOuXqoKu5+OKSCaJPqzc3kP7mIu05dr8lO8/52sZ2HrUf34LnjAZnR7+khgmBMgHeActoaZwIEMBEiZoyAQJYRkvjRIAAJkrUlAkQwDJaGicCBDBRoqZMgACW0dI4ESCAiRI1ZQIEsIyWxokAAUyUqCkTIIBltDROBAhgokRNmQABLKOlcSJAABMlasoECGAZLY0TAQKYKFFTJkAAy2hpnAgQwESJmjIBAlhGS+NEgAAmStSUCRDAMloaJwIEMFGipkyAAJbR0jgRIICJEjVlAgSwjJbGiQABTJSoKRMggGW0NE4ECGCiRE2ZAAEso6VxIkAAEyVqygQIYBktjRMBApgoUVMmQADLaGmcCBDARImaMgECWEZL40SAACZK1JQJEMAyWhonAgQwUaKmTIAAltHSOBEggIkSNWUCBLCMlsaJAAFMlKgpEyCAZbQ0TgQIYKJETZkAASyjpXEiQAATJWrKBI7CX0xf9F/8LpvMShqnf93cHKP+pewe/VYyitlvM83CqDngW/Dsc1/3CyCA657/7HdPAGcfwbpfAAFc9/xnv3sCOPsI1v0CCOC65z/73RPA2Uew7hdAANc9/9nvvuI3If5Ac9+HlemHnga6OrvS0X4B6W+Sxp7b6Gr31NHB2rdfCU52zb4+ft5nsoYJLHpufb4F/x06fBDUJTVuk54ZHLnaktQwmUlSUza3r9U5edc6UN0LO8bt51yT9PKZrGECi55bn3fA70OHU6r7RvvVLfV+zM+d2vLctoe+2/Ygj/USWPTc+vww8LZu+6cet35ftde1f9hc876+ntd+fvPPyRef+XNSSE2nQFNzu6HbTL51jlHjs1jjCDQzt4/lMUa4kh4+izWOQFNz+1YmSYCG1PgM1rgCzcztDbnc1R4SsF3Xuvfpce3pJoGm5vahbuih9q4gHeY593RvVo1AU3O7IKMH2ocJ2rZr3Ms9WbUCTc3tnKz+1N4WqD6PuYd7saYROKdjmpnbS7qZL7QfafcJnWt9ja91D9a0As3N7Yz8Lmv/o70viK5xra9hzSsw69z6/CYkZTquwve0z2r7p9mT2l53tG9q+0PRH7X97sdajgBzW84seCUIIIAAAggggAACCCCAAAIIIIAAAggggAACCCCAAAIIIIAAAggggAACCCCAAAIIIIAAAggggAACCCCAAAIIIIAAAggggAACCCCAAAIIIIAAAggggAACCCCAAAIIIIAAAggggMB6BP4D8oE4pVcI2JkAAAAASUVORK5CYII=;" vertex="1" parent="1">
          <mxGeometry x="988" y="475" width="48.48" height="50" as="geometry" />
        </mxCell>
        <mxCell id="FzzvjinRueu_OwRG8yQ0-60" value="&lt;font style=&quot;font-size: 14px;&quot;&gt;Items&lt;/font&gt;" style="text;html=1;align=center;verticalAlign=middle;whiteSpace=wrap;rounded=0;" vertex="1" parent="1">
          <mxGeometry x="982.24" y="535" width="60" height="30" as="geometry" />
        </mxCell>
        <mxCell id="FzzvjinRueu_OwRG8yQ0-63" value="&lt;font style=&quot;font-size: 14px;&quot;&gt;Capacity&lt;/font&gt;" style="text;html=1;align=center;verticalAlign=middle;whiteSpace=wrap;rounded=0;" vertex="1" parent="1">
          <mxGeometry x="569.4" y="370" width="70" height="30" as="geometry" />
        </mxCell>
        <mxCell id="FzzvjinRueu_OwRG8yQ0-64" value="&lt;font style=&quot;font-size: 14px;&quot;&gt;Capacity&lt;/font&gt;" style="text;html=1;align=center;verticalAlign=middle;whiteSpace=wrap;rounded=0;" vertex="1" parent="1">
          <mxGeometry x="912.24" y="367" width="70" height="30" as="geometry" />
        </mxCell>
        <mxCell id="FzzvjinRueu_OwRG8yQ0-65" value="&lt;font style=&quot;font-size: 14px;&quot;&gt;Marketing Domain&lt;/font&gt;" style="text;html=1;align=center;verticalAlign=middle;whiteSpace=wrap;rounded=0;" vertex="1" parent="1">
          <mxGeometry x="259" y="676" width="121" height="30" as="geometry" />
        </mxCell>
        <mxCell id="FzzvjinRueu_OwRG8yQ0-66" value="" style="rounded=1;whiteSpace=wrap;html=1;fillColor=#f8cecc;strokeColor=#b85450;opacity=80;" vertex="1" parent="1">
          <mxGeometry x="239" y="732" width="231" height="160" as="geometry" />
        </mxCell>
        <mxCell id="FzzvjinRueu_OwRG8yQ0-67" value="" style="shape=image;verticalLabelPosition=bottom;labelBackgroundColor=default;verticalAlign=top;aspect=fixed;imageAspect=0;image=data:image/png,iVBORw0KGgoAAAANSUhEUgAAAKAAAAClCAYAAADbAvaeAAAEDmlDQ1BrQ0dDb2xvclNwYWNlR2VuZXJpY1JHQgAAOI2NVV1oHFUUPpu5syskzoPUpqaSDv41lLRsUtGE2uj+ZbNt3CyTbLRBkMns3Z1pJjPj/KRpKT4UQRDBqOCT4P9bwSchaqvtiy2itFCiBIMo+ND6R6HSFwnruTOzu5O4a73L3PnmnO9+595z7t4LkLgsW5beJQIsGq4t5dPis8fmxMQ6dMF90A190C0rjpUqlSYBG+PCv9rt7yDG3tf2t/f/Z+uuUEcBiN2F2Kw4yiLiZQD+FcWyXYAEQfvICddi+AnEO2ycIOISw7UAVxieD/Cyz5mRMohfRSwoqoz+xNuIB+cj9loEB3Pw2448NaitKSLLRck2q5pOI9O9g/t/tkXda8Tbg0+PszB9FN8DuPaXKnKW4YcQn1Xk3HSIry5ps8UQ/2W5aQnxIwBdu7yFcgrxPsRjVXu8HOh0qao30cArp9SZZxDfg3h1wTzKxu5E/LUxX5wKdX5SnAzmDx4A4OIqLbB69yMesE1pKojLjVdoNsfyiPi45hZmAn3uLWdpOtfQOaVmikEs7ovj8hFWpz7EV6mel0L9Xy23FMYlPYZenAx0yDB1/PX6dledmQjikjkXCxqMJS9WtfFCyH9XtSekEF+2dH+P4tzITduTygGfv58a5VCTH5PtXD7EFZiNyUDBhHnsFTBgE0SQIA9pfFtgo6cKGuhooeilaKH41eDs38Ip+f4At1Rq/sjr6NEwQqb/I/DQqsLvaFUjvAx+eWirddAJZnAj1DFJL0mSg/gcIpPkMBkhoyCSJ8lTZIxk0TpKDjXHliJzZPO50dR5ASNSnzeLvIvod0HG/mdkmOC0z8VKnzcQ2M/Yz2vKldduXjp9bleLu0ZWn7vWc+l0JGcaai10yNrUnXLP/8Jf59ewX+c3Wgz+B34Df+vbVrc16zTMVgp9um9bxEfzPU5kPqUtVWxhs6OiWTVW+gIfywB9uXi7CGcGW/zk98k/kmvJ95IfJn/j3uQ+4c5zn3Kfcd+AyF3gLnJfcl9xH3OfR2rUee80a+6vo7EK5mmXUdyfQlrYLTwoZIU9wsPCZEtP6BWGhAlhL3p2N6sTjRdduwbHsG9kq32sgBepc+xurLPW4T9URpYGJ3ym4+8zA05u44QjST8ZIoVtu3qE7fWmdn5LPdqvgcZz8Ww8BWJ8X3w0PhQ/wnCDGd+LvlHs8dRy6bLLDuKMaZ20tZrqisPJ5ONiCq8yKhYM5cCgKOu66Lsc0aYOtZdo5QCwezI4wm9J/v0X23mlZXOfBjj8Jzv3WrY5D+CsA9D7aMs2gGfjve8ArD6mePZSeCfEYt8CONWDw8FXTxrPqx/r9Vt4biXeANh8vV7/+/16ffMD1N8AuKD/A/8leAvFY9bLAAAAOGVYSWZNTQAqAAAACAABh2kABAAAAAEAAAAaAAAAAAACoAIABAAAAAEAAACgoAMABAAAAAEAAAClAAAAAEzEtMMAABB8SURBVHgB7Z1rzFxVFYYRhLbcJBRCIdiPcisiUpSWm/yQSzVA1CalBlIDISlSJUgiKAYwBlL4ZRQxhNIAYuIfWiEE0GJCQDQGSgETKCjUYCkkUG5WCnIVfZ/4DZkOZ85Ze5+zz2VmreTNmTl7r7Xe9e49Z85lf/Nts42bK+AKuAKugCvgCrgCroAr4Aq4Aq6AK+AKuAKugCvgCrgCroAr4Aq4Aq6AK+AKuAKugCvgCrgCroAr4Aq4Aq6AK+AKuAKugCvgCrgCroAr4ApEKPCJCJ9RdZmlwk4Tjhb2nizyRW3XCL8V/jG5zzeuQKUKHKRotwofCv8dAtroQ183V6AyBb6hSFuEYRNvcD998XFzBUorcLEiDE4w63t83VyBaAWulKd1sg3rRww3VyBIAS66rhGGTarQ/cTyC7mgIRjfztup9JuF0ElW1P8mxSS2myswVIHt1bJSKJpMse3EJoebK/AxBaZpD/fxYieX1Y8c5HJzBT5SYBe9+oNgnURl+5GLnG6uwDa7S4OHhZhJxVdq7Fc2OcntNsYKzFDtTwgxk48LFS4qyly0kBsObmOowIRqXi/ETL6fy6//tgqv2RcTCw5wcRsjBWar1ueFmAmzLEcn2mJibpQfnNzGQIE5qnGTEDNRvm/Qhz4xseEEN7cRVuAY1fZPIXSC/Ec+SwN0oS8+oXngBke3EVTgJNX0phA6Kd6Xz+IIPfDBNzQfHOHqNkIKfE21vCOETgZ8vl5CB3xj88LZbQQUOFM1xB6JTq6gfmLEHnnh7tZhBb4l7rHnYsdVWDexYs89qcGtgwpcJM6hX7n0f1k4IkG9xCR2DCdqceuQAleIa8xAc2/wkIR1Ejv2/iM1ubVcAZ5IxC4k/bt896uhPnKQK+YD4gtbaxig2BTbypFFnzEDu05+vT+xjM0f4kcucsZwpUZqdWuRAizyvFWIGdC18pveQC3kJHcMZ2r1ha0NDFpWyqnaGbuQ9AH57poVtKZ95IZDzCSkZmp3a1CBMgtJV4v3tAa591LDAS4xk/B++fnC1p6SNW9ZzLlGiBm4VfLboWa+eengAqeYWtDAF7bmqZugbYZiPiHEDNgv5bddAk5lQ8IJbjE1PS4/NHGrQYEJ5VgvxAzUtfLjVk1bDW5wjKkNTdDGLaECBys2izdjBihvIWlCylGhyyxsRSO3BArMUcxNQszk+0ECPqlDwjmmVjRCK7cKFThGsV4XQgeEn0tbWiGPukPBnRpC60YrNHOrQIETFWOLEDoILMFaXEH+pkNQA7WE1o9maOdWQoGvyvdtIVT8d+SzoETetrlSCzWF6oB2aOgWoUDTC0kjKCd18YWtSeXdOvi5ehuzkHSz/KpcSLo1q+bfURs1hh4J0RJN3QwKXKQ+oQLTn8WenzfE73oXavSFrYlG8QrFjZl8L8jvkESc2hiWWqk5Ris0dhtQgCcAPxNiBK1rIekA5cbf7icGsQtb0RrN3aQAiytvFGImX90LSds2YGUWtqI52o+1lVlI+oiUmz7W6v2/eDRAi5gP8K3yG9uFrVNV/N2Rwv1Rfk0uJFX6VhlaoEnMJGQMGIuxMhZR3i/ECNaWhaRtG7BpIlRmYevObSsoFR8WT64RYibfb+TXpoWkqTSKjYs2aBSjLWPC2Iy07aXqHhdiBLpFfm1cSCparTI0ukWI0ZixYYxG0maqqmeEGGF+IT+/bWCfFmiFZjFaM0aM1UhZmYWkV42UEvUWg3Yxk3Cj/EZmYevnVMxLkUJcIj+3cgqgYcwkZMwYu04bv3u8SQgVgEWY3+505e0ij5YxC1sZu87+djW3Wv4mhE4+Fl9+U3CrVgE0jVnYyhgylp2zFWIcOvlGbSFp2wYtdmErY9kpmyu2oYf8t+Qzv1NVdpMsGqN1yMGBsWRMO2N3iGlIgSyy/GJnqus+UbQOXdjKmHbCWKHxgWCdgOOykLRtgxe6sJUxZWxbb98RQ+vkG7eFpG0bvM+IUMjC1k7cmVhpnIBvqB8CuDWrAGPAWFgOGoxt6+1JMbQU86PWVzI+BBkLy5gxtq23f4mhpZiDWl/J+BBkLCxjxtg2YiELAfgTQMtS7+3VjxNbt+YV+KQocJO6yLgd08iKpJAJyCfJYiExLfG8TzkFWj1uliNaufLd2xXIUcAnYI443pReAZ+A6TX2DDkK+ATMEceb0ivgEzC9xp4hRwGfgDnieFN6BXwCptfYM+Qo4BMwRxxvSq+AT8D0GnuGHAV4VOM22gp8SeV9SuC58BeELwt7CJ0zy0Nt62OfzhU/QoT51vuK8Duhf0xbX2I/2bzXrS/ECX6kwEl69ZTQiQNH3qTrb/uoOn/RCQV2FMtfN8U0ZOWK9VMSErOpuj1vSxTwq+CWDMS40vAJOK4j35K6fQK2ZCDGlYZPwHEd+ZbU7ROwJQMxrjT8SUjcyM+U23nCPIGrfv6dwg3CBqENNiESPX7wWSvA7znedNX67/Xlve5qfVbep6hj1o8AsW+RNUjCfguH8Pu39p+aMG/y0HmTrr8tOZEGE8xR7neF/nr7X7+ntiMa5Hd4AT+489sxnbR+ofNed7I4I2l+SSqvdtpuN8ZK0W2Vgd9dKRLXEbNI+F57HVyayHGoklp+G5E/4J/VAMEJ5bT8ehk1HNYAv9IpexOsaFs6UUsD3CleRbX32q9voIbrAvjxb7w6Zz1xi7adK8xA+Ez1Kaq7v50jUZ1HGY7Oob8TvdhQd6u69Auc97pVpCsgc4BivCrk1ZzVdp986liYQY57I/i9Jp8Dhc5YlshZ+zpTkIHodPXhPwxl1WnZV8f/Q7m4BL/18u3M6miL4PQZFdtbhTwqWOvO6sfX4vEJBTlOsbn1k5Xbuu8x+e+TkGNloa0FVZawwUD87cRGwVpzXj++6lL8YuxsxY05Ncji+rxiHSm02rKIZ+1rdREF5PiNvEuFskeVQV1eUcyjCnKHNM9V55eFwTxl3lPz5QIatNKsxbWSvIEUj6nWCdY6Q/vxz3ouFMpcmOB7gfC2EJrf2v9JxT5NaJ1ZC2gd8RxC/Ev7swQe1lvrK9vvEeWaL4TayXKom+fZyolGrTCr8K0gO4QEq394VrtEuE14U7DWVXU//hrtMoFzL/4j+qCxjzb6cFSqOr81HhrxePFcAe34CebKLOTrAMIWC4lpiRfaZ6YclgrzhJ0FeCPajEkwCaswHuwvFJggx5YMyI1rLno2T8bhD8knhLJcH1SMqwQ+bFOEKgyumwT+7SvnjYw3k5Sj83KBOpKY9ROTJLkx6Onqx7IjK9fYfgjOOSO2p/CMEBsrlR+c4IbBFc6pcvXioj1jkMR6SYq2SZIbghYtlSribW1/UVwGb1nsr33st8ZI3Q8us4R+g3MdHPlmYCwqN6tolSc2BlylflaOsf0eUo6JIXwO1v5na+BQxB0OcMkyuFNDUYyy7SuzkpfdZyVVNk+sf1U3ZbPq5LznSqHonGwv9anzSnWQK7nhkGfUQC3UNOhf1XvGonKzkqs8sTFgqntja5T/aCMHuk0RfiJ8KFg1K9uPXOQkt9WoidrK5s7yZywqt6xEWfsqT2wMyDPNLD6x+zYo3mIh9qr+BPmuE2LzW/3IQa4YozZq3CBY81n6MRaVmyUxfZqy85XYyjGvH+dIZwhFX7eWOnmstUTg1kRezpg2YhK7ikdn1ErNVZ0fMhaVm1WkyhMbAzIQqwUrz/5+T8vvaoFFCCkMbguEe4T3hf7cIa/xJQaxqph4CvMxQwO0QJMQbr2+jEESbr0ERVvlb8y44bxM4IbuMJ6sTnlUWC6cI8wW6rTdlGyRsELgHGyLMIwrbfShLz741mlog0ZohWZoN4wrmqN90JMSzgGsRmKLhcS0xIvpgwjcithJ4I+EADdJX5jcatMaQy9uGPP0Y9dJVm9oy79QfUWw6j7pmnyzozLsK7DlSAfeErjxzRE6yEImi1WIkJhBZL3z6Cmw7eiV5BV1SQGfgF0arRHk6hNwBAe1SyVx/8ctXIGZcjlPmCdwzvuIcIOwQWiDTYhEjx981grwe443XTUuQizoan1W3qeoI1d9g1qwb5E1SMJ+CxU7ix93AViW1VkbFHzY+84WaCBetOTrPcU4whAnVZfDFfhdYdjY0Oa/jpVK/Rri3pEzuL1Bv70GHsNSrDLwu2uYc9v39wQu2ra9jlh+h8rRssLFfx0rVuECP+v6sSkFcbrafKeIF334eu3XN1DkdQH87m6AX+mUrxsLbPIcqHSRQwKcaay9NwH5sB42JFaK3RydQxc5LE5BJGXMvyh4T+C87bUpSTQQ+wDlfNVYe78u98mnjseS5Lg3gh8LCw4UOmO/EtN+gYe95pM4vzNV5ROdrmYesg+rtWj/JfnhK2m9uAS/9fLdoxIWNQQ5K6BQLvd/KOxSA69UKfZWYJYgFU2yvHY+jMenIqi4xwnc+snjUNT2mPz3ERqxkK8Ilgu9JEwNYIo4Twusa6vCblKQm6sIVBCDRZnccvl0QT9LM+fOTMK/WjoH9Jmtvn8WOEqXNZapLRD4wLXabhS7ok9UqvaHlTtosWOEkqxtu1Qoe1QZ1IB1fUdF8BnmMlcNLwuDecq8p+bLBTRore0vZu8IZQqN8eWr7LOJVTlV8dclrA3dLhRCvnXUfSvD9wLhbSFGR4vPk4p9mtBa+7GYWQqpss+KRGpwOsG57doaa2LhQsxF2skN8DxbOUNOudQ9vXGIfkCocoLlxfpQuTjfqcJY/cN9yiXCbcKbQl7ulG1PKfdlwpHCDsKgsY82+nBUSsklLzYa8XjxXAHtKj0Niv062F1E/iRwAzS1PaQExwYkmam+S4V5ws4C4iLajEkwCaswrvQXCkyQEH5ZuT/Qzo3C5slGLvgmhLJcH1SMqwQ+bFU9oYLrJuElgfNG5hCTlG+R5QJ11GJ7KAuTI+/TU0UbA2y109WRZUdV5M2LgeCcM2J7Cs8Ief2baIMT3DC4wjk1D7RnDGozviauEXgAn6q4E43VzFE/jkqpePTivqgcfDX2Gxdn7O/1aXoLl1n9BPUaznVwZAwYi1ptrrL9Xkgh/L7GSlYlyt9fE0f8iSF8+DPQZ2vg0M8n6zUc4JJlcK/jW2tlVvI69nFOuEx4WOD8IEug0H1TFcdiMc9rrVw477lSKDon20t96ryiHuRPbjjkGTVQCzUN+lf1nrEwWexFiCU4hfIkYTdhisVhSB8+sRbj3ph1slri9frwYfquwC8UWIxaOfH/npBS334uTJyfCpwv8xVosaPViYUjVd4g7+Xlnue03ptx2T6mQqv6BBNng7BYiJ1EJ8h3nVAlp6xY5CBXjFEbNW4QsmLH7mMsxs7OV8WxgvX7ccQ9Qyj6urUIzD3TJcJGoT9HFa+JSewqHp1RKzVTexXcGIuxMwZitRAj4NPyu1pgEUIKg9sC4R7hfSGGIz74EoNYVUw8hfmYoQFaoEkMT8YgFTeFbrdxw3mZsFkYJt5rantUWC6cI8wW6jTOiRcJKwTOK7cIw7jSRh/64oNvnYY2aIRWaIZ2w7iiOdozBmbjHGAUDRG4FbGTwD1KwE3SFya32rTGGANuGPP0Y9dJVm9oOxa/jjVZr29cAVfAFXAFXAFXwBVwBVwBV8AVcAVcAVfAFXAFXAFXwBVwBVwBV8AVGEEF/gdmWb8rEpz33AAAAABJRU5ErkJggg==;" vertex="1" parent="1">
          <mxGeometry x="261.21" y="752" width="38.79" height="40" as="geometry" />
        </mxCell>
        <mxCell id="FzzvjinRueu_OwRG8yQ0-68" value="&lt;span style=&quot;font-size: 14px;&quot;&gt;Marketing&amp;nbsp;&lt;/span&gt;&lt;span style=&quot;font-size: 14px;&quot;&gt;Dev Workspace&lt;/span&gt;" style="text;html=1;align=center;verticalAlign=middle;whiteSpace=wrap;rounded=0;" vertex="1" parent="1">
          <mxGeometry x="260" y="709" width="170" height="30" as="geometry" />
        </mxCell>
        <mxCell id="FzzvjinRueu_OwRG8yQ0-69" value="" style="shape=image;verticalLabelPosition=bottom;labelBackgroundColor=default;verticalAlign=top;aspect=fixed;imageAspect=0;image=data:image/png,iVBORw0KGgoAAAANSUhEUgAAAKAAAAClCAYAAADbAvaeAAAEDmlDQ1BrQ0dDb2xvclNwYWNlR2VuZXJpY1JHQgAAOI2NVV1oHFUUPpu5syskzoPUpqaSDv41lLRsUtGE2uj+ZbNt3CyTbLRBkMns3Z1pJjPj/KRpKT4UQRDBqOCT4P9bwSchaqvtiy2itFCiBIMo+ND6R6HSFwnruTOzu5O4a73L3PnmnO9+595z7t4LkLgsW5beJQIsGq4t5dPis8fmxMQ6dMF90A190C0rjpUqlSYBG+PCv9rt7yDG3tf2t/f/Z+uuUEcBiN2F2Kw4yiLiZQD+FcWyXYAEQfvICddi+AnEO2ycIOISw7UAVxieD/Cyz5mRMohfRSwoqoz+xNuIB+cj9loEB3Pw2448NaitKSLLRck2q5pOI9O9g/t/tkXda8Tbg0+PszB9FN8DuPaXKnKW4YcQn1Xk3HSIry5ps8UQ/2W5aQnxIwBdu7yFcgrxPsRjVXu8HOh0qao30cArp9SZZxDfg3h1wTzKxu5E/LUxX5wKdX5SnAzmDx4A4OIqLbB69yMesE1pKojLjVdoNsfyiPi45hZmAn3uLWdpOtfQOaVmikEs7ovj8hFWpz7EV6mel0L9Xy23FMYlPYZenAx0yDB1/PX6dledmQjikjkXCxqMJS9WtfFCyH9XtSekEF+2dH+P4tzITduTygGfv58a5VCTH5PtXD7EFZiNyUDBhHnsFTBgE0SQIA9pfFtgo6cKGuhooeilaKH41eDs38Ip+f4At1Rq/sjr6NEwQqb/I/DQqsLvaFUjvAx+eWirddAJZnAj1DFJL0mSg/gcIpPkMBkhoyCSJ8lTZIxk0TpKDjXHliJzZPO50dR5ASNSnzeLvIvod0HG/mdkmOC0z8VKnzcQ2M/Yz2vKldduXjp9bleLu0ZWn7vWc+l0JGcaai10yNrUnXLP/8Jf59ewX+c3Wgz+B34Df+vbVrc16zTMVgp9um9bxEfzPU5kPqUtVWxhs6OiWTVW+gIfywB9uXi7CGcGW/zk98k/kmvJ95IfJn/j3uQ+4c5zn3Kfcd+AyF3gLnJfcl9xH3OfR2rUee80a+6vo7EK5mmXUdyfQlrYLTwoZIU9wsPCZEtP6BWGhAlhL3p2N6sTjRdduwbHsG9kq32sgBepc+xurLPW4T9URpYGJ3ym4+8zA05u44QjST8ZIoVtu3qE7fWmdn5LPdqvgcZz8Ww8BWJ8X3w0PhQ/wnCDGd+LvlHs8dRy6bLLDuKMaZ20tZrqisPJ5ONiCq8yKhYM5cCgKOu66Lsc0aYOtZdo5QCwezI4wm9J/v0X23mlZXOfBjj8Jzv3WrY5D+CsA9D7aMs2gGfjve8ArD6mePZSeCfEYt8CONWDw8FXTxrPqx/r9Vt4biXeANh8vV7/+/16ffMD1N8AuKD/A/8leAvFY9bLAAAAOGVYSWZNTQAqAAAACAABh2kABAAAAAEAAAAaAAAAAAACoAIABAAAAAEAAACgoAMABAAAAAEAAAClAAAAAEzEtMMAAAybSURBVHgB7V1NyCTVFZ0x45j/iJKJGIVPnGHUlSFmRFEREZUEBHHjKhmYkE1MQCGbuBmDusmggSgGx01EsjILoxAyDoKbIZDxZysy8Vv4A+JvHH9GR5NzZrq/9DRVXedVvffqVdW5cL+vu+q+e84979Ld1fWqetMmmxWwAlbAClgBK2AFrIAVsAJWwApYAStgBayAFbACVsAKWAErYAWsgBWwAlbACoxNgc0DK+ir4PutGecP8f/TgfFPRXewupTagFswUz+CXwf/IXwn/EL4GfBFO4YnR+Avw5+HPwv/F/w4fIxmXRLP6hXI/yf4u/D/tnSOZQ7mGotZl8Qz+WPkPwRv23R145iTuYdq1iXxzPGt9SC8roFibScGsYZi1iXDTN0JjGPwWE3WlIdYxCzdrEviGeJR7N/gTQ2Taj+x50fSiUsNSm9dguRqF7wNw3i0mqq51LzkQC6lmHXJMBPfBcbLcLVJUseRCzn1bdYlwwx8ExiH4ambKjQ/OZFbX2ZdMin/BHBCm6Mqnmc+3pp5rAMYcuvLrEsG5X8JjKpmUra9jbEPw2+Bnw9fPHPDx9zGfYxhrJKzKoYcc5t1yaD4GjA+hldN+qpt6xizB74VrhpjOWYdvip31T5yXIPnsjUAWZcMaj8JjKoJr9v2JeL3wb/WgdvXZzmYqw6naju55jLrkkHpq4BRNdF12z5C/M0ReTEXc9bhVW0n59RmXVIrPMv/d/yvmuSqbXw7ujoBL+YMeasj59RmXVIrjPwXw6sarW7brQk5MXcdbtV2ck9l1iWVskt578Pzqsmt2vbg0tgUTx8K4EPuqcy6pFJ2Ke86nlc12/K2NxH37aWxKZ4Sg1jL+FXP11MQmOVk7irM5W1T0yWq5DtEkSn6HVGRVycj1vJE1z3fvjpVq73WpZVs4YN+gSF1E7u4nQcHOVelEEs9IGENsc26VCh6WsW2rpt+ICZ4GnG8sCiXEYuYiqk1KLnmMWrOSemSogF3zhVv+M9VyrlNxVRrCOGv5lQ5hmA3xaqYag1NeBv7UzTgBRvZVz94cfXuJHtVTLWGEJJqTpVjCHZTrIqp1tCEl3T/u8i++Fmv7vHZSVlUJydmHZ/F7awhtlmX2IrW5PsM2xcns+7x6TXjU24mZh2fxe2sIbZZlwpFU7wFcyIVS4HdhKtiqjU04S3uV3OqHBdzd32sYqo1yHxUYDkhAo+KwWeJcTHDVEy1hhBuak6VYwh2U6yKqdbQhLexP0UDvrORffWDFF/2rkbctIlfBivGxa2xTc05KV1SNOARceYuF+Nihu0Sk/1bjAsJU3NOSpcUDcirzRS7SQmKHKNiqjWE0FNzqhxDsJtiVUy1hia8pPtvQ3Z+WG3yLxBzXlImpyYnFjGbeHE/a4ht1iW2ojX5vo/tyiQzhsvvcxmxVF6sIbZZl9iKrsjHe/Qpk83FAWsr8sTaRQx1IQK5pzLrsqRsis+AhHhiCafuKS8+egS+uS4gwnbmJgaxFFO5K7mWY9TcU9NlWafOz7chwzG48irImL3wVLYXiVUe5Ezuqcy6pFK2Iu+fsU2deMbdXpGj6ybmDOFAzqnNuqRWeJaf93T+HB7SAPciPsbHAuZgrhBsciXn1GZdUiu8kP+PeBzSBIx9Dn7RQo7QhxzLHKG45JrLrEsmpXkx0Gvw0GbgypH98EvgqjGWY9RVJ4ucyJFcc5l1mSm9OYPiNwKDF2O3xXoJYw/AD8N5mu99OO1MON/OLoPfAL8U3sbYiDwTQIycZl0yqv07YC2+4pT0mNz6MuuSSXm++v0FXlLjkQs5tX1lxtDOZl06S6gn2IrQp+ClNCG5kFPfZl0yzgCXxPNVp+8mJIctGetugrIuTQpF3M+3nd/C1ZUpMZuVmMTu820X8JVmXSplSbfxWqTmIs2YDbYqF7GIWbpdC4LWJdMsfQM498HVlSqrGqxuH3MTg1hDMeuSeaa4WPQP8P/A6xopdDtzMWfORa+Ai2rWJaqczcl4hmAP/Bn4Z/DQpuOYA3DmyHlmA3BJba4La7MuSaX+f3LebPx6uNqEjOWYsduodCnxaHC5gdiAig2hFqUONWYUupymVus4K5BCATdgClWdU1bADShL5cAUCrgBU6jqnLICbkBZqqICzxDZ8NdFizY3YNHTU0uut7tZ1TJqucMN2FK4noftEPHfE+N6C3MD9iZ9J+Bd4uhXxLjewtyAvUnfCXhUd7PqpESGweqpuAxUioDo+y5fRYiQk4Qb8FS19+Gpqsn3Th3qZ20UUMVuk3toY9ZAWF07+cIQivNnwCHM0kmOXGzxCFy9y9fjwymtbKZ+BTw5P3vxT9WCawbPOTnMf7sqoIreFafk8aF3+Xq05GKGxm3KDciPSKF3+TqOMduHNskl851qA7a9y9cDJU/mELlNrQG73OXrdUxwzh8B79xPWzpnKCcBv6Admm0F4Vh3+foSuX4G/3BoIpTOV30FnHrc3aVP5FD5Tb2xlPr5nd/ULsrK1s/KBEw5hnf54s2NbIkUmHJzNdX+GDQf0+f4RC3ULW3TJExxP7/ruwvut91uvSWNnmKDrar5Vah2jaScg6IosGoyprSPFxjdA1cXI0QR30n0E/BjbcajaIL74ee6GfpRYKyNtaouvtrxDmG74YM6swG+QTamI6jXgiovI5jLpnjm4gM4fwOFv0jO30M5BP8EPnobwlEUXykUG0ItSh2TivGK6ElNd3nFugHLm5NJMXIDTmq6yyvWDVjenEyKkRtwUtNdXrFuwPLmZFKM3ICTmu7yinUDljcnk2LkBpzUdJdX7FfKo3SCEVf4Xgn/Kfy6E1ua//CXMHlhzpuz/80jHGEFlhS4As/3w9+BrzpZv2ofxzIHc9msgKTATxD1T/iqxmqzjzmZ22YFKhW4GFufhbdprpAxxCCWzQqcUIArV34D57q3kEbqEkssYnrVDESYsvGnR5+Ed2mmLmOJTQ62CSqwDTW/BO/SQDHGkgO52CakAO9XzBW/MRooRg5y8T2UJ9KAvK7h+YKab97A5ERutpEr8FfUN5/0Lv95IPHWzGMdwJCbbcQK/Bq1tW26tzH2Yfgt8PPhi0ewfMxt3McYxrbF+RXG2kaowAWo6SN4aGOsY8weOO+fpxpjOWYdHopHjuRqG5kCT6OekGbgudx98C5X/3MsczBXCDa52kakwFWoJaQB+Cp0c8T6mSv01ZecbSNRgFf2qw3IX/+5OkHdzKn+shC5krNtBArwDu9q8zHu1oQ1M3cIF3K3DVyB34O/OukPZqj1oQA+5G4buAJHwF9pQC4ezXFelhjEUjiRu23ACnDZkzLRjLkjY53EUnl56VbGiYkN9XNxonlwkPM0GLHUAxLWYMugQIqLknaJvPm9G29NlsuIpX7Xp9aQi/tocVI04A5RrYNiXMwwFVOtISa3SeZK0YDqKa0Xe1BcxVRr6KEEQzYp8D4ClA/7ZzclSrCfmAo31mAbqAKfg7cyyX38ug8xFW6swZZBgRRvwV+IvFNgN0GrmMebEnl/HAXUCQlBU49szwpJGilWxTwaCc9pGhRI0YDvNWDOd2+fP8j4Xz26VWvISH2cUCka8BVRqsvFuJhh6vd7ag0xuU0yV4oG5NVmit2kBEWOUTHVGiLTc7oYCtyGJMqRJg9WzosBKOYgFjEVbqzBNlAFeK2tMsmM4dL5XEYslRdrsA1YgRfAXZlsLg5Yy1AnMYilcCJ328AVuBP8lclmzAH45oT1MjcxVD7kbhu4AueAP3+IT530vQnrZW6VBzmTu20ECjyKGtSJZ9ztCWpmzhAO5GwbiQL8ovk4PKQB7kV8jK+GmIO5QrDJtY8vxwFrS6XAA0gc0gSMfQ7e5co0jmWOUFxytY1MAV4M9AY8tBn4WWw//BK4aozlmJDPnnNer2NczssD1JpGH5fy6HMu3vV48A9427dW3kzyAPwwnFeszdfqnYnHF8Ivg98AvxTexngLjxvhB9sM9phhKHA3aM5fbUr7T262kSvAV9rH4aU1HznleBcY+fQOo7zTQfMpeClNSC7kZJuQAltQ62PwvpuQHMjFNkEF+JZ3Fzz0O8IYTUtMYvttFyJM3a6BAK/CYzSWkoNYxLRZgQ0FeDfTe+CfwpUmahPD3MQgls0KVCpwLrbeD+fFQG2arGoMczEnc9usgKQAz0bshj8Db/OqyDEcuxvuMxsQoXQr+cM43zKvhPNMx044z3p8Bz5vLF7++QGcZ0d4DQfPlByCfwK3WQErYAWsgBWwAlbAClgBK2AFrIAVsAJWwApYAStgBayAFbACVsAKWAErYAWsgBWwAj0p8D+bTrXJ/RLxDwAAAABJRU5ErkJggg==;" vertex="1" parent="1">
          <mxGeometry x="259" y="812" width="38.79" height="40" as="geometry" />
        </mxCell>
        <mxCell id="FzzvjinRueu_OwRG8yQ0-70" value="" style="shape=image;verticalLabelPosition=bottom;labelBackgroundColor=default;verticalAlign=top;aspect=fixed;imageAspect=0;image=data:image/png,iVBORw0KGgoAAAANSUhEUgAAAKAAAAClCAYAAADbAvaeAAAEDmlDQ1BrQ0dDb2xvclNwYWNlR2VuZXJpY1JHQgAAOI2NVV1oHFUUPpu5syskzoPUpqaSDv41lLRsUtGE2uj+ZbNt3CyTbLRBkMns3Z1pJjPj/KRpKT4UQRDBqOCT4P9bwSchaqvtiy2itFCiBIMo+ND6R6HSFwnruTOzu5O4a73L3PnmnO9+595z7t4LkLgsW5beJQIsGq4t5dPis8fmxMQ6dMF90A190C0rjpUqlSYBG+PCv9rt7yDG3tf2t/f/Z+uuUEcBiN2F2Kw4yiLiZQD+FcWyXYAEQfvICddi+AnEO2ycIOISw7UAVxieD/Cyz5mRMohfRSwoqoz+xNuIB+cj9loEB3Pw2448NaitKSLLRck2q5pOI9O9g/t/tkXda8Tbg0+PszB9FN8DuPaXKnKW4YcQn1Xk3HSIry5ps8UQ/2W5aQnxIwBdu7yFcgrxPsRjVXu8HOh0qao30cArp9SZZxDfg3h1wTzKxu5E/LUxX5wKdX5SnAzmDx4A4OIqLbB69yMesE1pKojLjVdoNsfyiPi45hZmAn3uLWdpOtfQOaVmikEs7ovj8hFWpz7EV6mel0L9Xy23FMYlPYZenAx0yDB1/PX6dledmQjikjkXCxqMJS9WtfFCyH9XtSekEF+2dH+P4tzITduTygGfv58a5VCTH5PtXD7EFZiNyUDBhHnsFTBgE0SQIA9pfFtgo6cKGuhooeilaKH41eDs38Ip+f4At1Rq/sjr6NEwQqb/I/DQqsLvaFUjvAx+eWirddAJZnAj1DFJL0mSg/gcIpPkMBkhoyCSJ8lTZIxk0TpKDjXHliJzZPO50dR5ASNSnzeLvIvod0HG/mdkmOC0z8VKnzcQ2M/Yz2vKldduXjp9bleLu0ZWn7vWc+l0JGcaai10yNrUnXLP/8Jf59ewX+c3Wgz+B34Df+vbVrc16zTMVgp9um9bxEfzPU5kPqUtVWxhs6OiWTVW+gIfywB9uXi7CGcGW/zk98k/kmvJ95IfJn/j3uQ+4c5zn3Kfcd+AyF3gLnJfcl9xH3OfR2rUee80a+6vo7EK5mmXUdyfQlrYLTwoZIU9wsPCZEtP6BWGhAlhL3p2N6sTjRdduwbHsG9kq32sgBepc+xurLPW4T9URpYGJ3ym4+8zA05u44QjST8ZIoVtu3qE7fWmdn5LPdqvgcZz8Ww8BWJ8X3w0PhQ/wnCDGd+LvlHs8dRy6bLLDuKMaZ20tZrqisPJ5ONiCq8yKhYM5cCgKOu66Lsc0aYOtZdo5QCwezI4wm9J/v0X23mlZXOfBjj8Jzv3WrY5D+CsA9D7aMs2gGfjve8ArD6mePZSeCfEYt8CONWDw8FXTxrPqx/r9Vt4biXeANh8vV7/+/16ffMD1N8AuKD/A/8leAvFY9bLAAAAOGVYSWZNTQAqAAAACAABh2kABAAAAAEAAAAaAAAAAAACoAIABAAAAAEAAACgoAMABAAAAAEAAAClAAAAAEzEtMMAAAYhSURBVHgB7d0xqxxlG8bxaNQiFgYURG0iUWKlgrFPK2glkhQBy/g5/A4pLQIpErATtBa0MhaiFhbhVCpiDAkkTUKM1wVbBNzZvebM3DNznvk/8HBed++5n53ffbnnPXuEc+wYCwEEEEAAAQQQQAABBBBAAAEEEEAAAQQQQAABBBBAAAEEEEAAAQQQQAABBBBAAAEEEEAAAQQQQAABBBBAAAEEEEAAAQQQQAABBBBAAAEEEEAAAQQQQAABBBBAAAEEEEBAAk8VKbjv69qntU9uzrijrze1D7Qfbx7jy7IEjvTcnpblR9rXtG9pO2Tbtp9zjWt9DWtegSbm9okMf9PeFrhdj/kaX8uaR+DIz+1FuX2lvStkyXPu4V6saQSamNubsjrQTgKW1LiXe7JqBZqYm3/A+EM7CVafGvd0b1aNQBNzOyGbX7X7BKtPrXv7DNa4As3M7bJc+gTqMLU+gzWuQBNze1cmj7QPE6o+1/gMn8UaR6CZuX0pjz5BGlLrs1jjCCx2bv7kO10vq/B37ePpBZv6G5v6s/r6Wo9r/S7o+r96XEPp/wWamdtnurf0He22as9rPxlw/28/5ufSPpdUyxom0Mzc/OuzJDj3VffODjM/55qkl89kDRNoZm6/yCEJzeeBl2uSXj6TNUygmbndlUMSmrcCL9ckvXwma5jAouf25P9H23eb/qEg+a9XnlPdwz3NntXzD/bU+Ol/tT8N6ijpFriip+aYW/TDap8A+h0rWWnPtF9yJjXDBcaeW9Qv+Tdj+K3RAYEOAQLYAcPD0wgQwGmcOaVDgAB2wPDwNAIEcBpnTukQIIAdMDw8jQABnMaZUzoECGAHDA9PI/DMNMcMOuXqoKu5+OKSCaJPqzc3kP7mIu05dr8lO8/52sZ2HrUf34LnjAZnR7+khgmBMgHeActoaZwIEMBEiZoyAQJYRkvjRIAAJkrUlAkQwDJaGicCBDBRoqZMgACW0dI4ESCAiRI1ZQIEsIyWxokAAUyUqCkTIIBltDROBAhgokRNmQABLKOlcSJAABMlasoECGAZLY0TAQKYKFFTJkAAy2hpnAgQwESJmjIBAlhGS+NEgAAmStSUCRDAMloaJwIEMFGipkyAAJbR0jgRIICJEjVlAgSwjJbGiQABTJSoKRMggGW0NE4ECGCiRE2ZAAEso6VxIkAAEyVqygQIYBktjRMBApgoUVMmQADLaGmcCBDARImaMgECWEZL40SAACZK1JQJEMAyWhonAgQwUaKmTIAAltHSOBEggIkSNWUCBLCMlsaJAAFMlKgpEyCAZbQ0TgQIYKJETZkAASyjpXEiQAATJWrKBI7CX0xf9F/8LpvMShqnf93cHKP+pewe/VYyitlvM83CqDngW/Dsc1/3CyCA657/7HdPAGcfwbpfAAFc9/xnv3sCOPsI1v0CCOC65z/73RPA2Uew7hdAANc9/9nvvuI3If5Ac9+HlemHnga6OrvS0X4B6W+Sxp7b6Gr31NHB2rdfCU52zb4+ft5nsoYJLHpufb4F/x06fBDUJTVuk54ZHLnaktQwmUlSUza3r9U5edc6UN0LO8bt51yT9PKZrGECi55bn3fA70OHU6r7RvvVLfV+zM+d2vLctoe+2/Ygj/USWPTc+vww8LZu+6cet35ftde1f9hc876+ntd+fvPPyRef+XNSSE2nQFNzu6HbTL51jlHjs1jjCDQzt4/lMUa4kh4+izWOQFNz+1YmSYCG1PgM1rgCzcztDbnc1R4SsF3Xuvfpce3pJoGm5vahbuih9q4gHeY593RvVo1AU3O7IKMH2ocJ2rZr3Ms9WbUCTc3tnKz+1N4WqD6PuYd7saYROKdjmpnbS7qZL7QfafcJnWt9ja91D9a0As3N7Yz8Lmv/o70viK5xra9hzSsw69z6/CYkZTquwve0z2r7p9mT2l53tG9q+0PRH7X97sdajgBzW84seCUIIIAAAggggAACCCCAAAIIIIAAAggggAACCCCAAAIIIIAAAggggAACCCCAAAIIIIAAAggggAACCCCAAAIIIIAAAggggAACCCCAAAIIIIAAAggggAACCCCAAAIIIIAAAggggMB6BP4D8oE4pVcI2JkAAAAASUVORK5CYII=;" vertex="1" parent="1">
          <mxGeometry x="326" y="747" width="48.48" height="50" as="geometry" />
        </mxCell>
        <mxCell id="FzzvjinRueu_OwRG8yQ0-71" value="&lt;font style=&quot;font-size: 14px;&quot;&gt;Items&lt;/font&gt;" style="text;html=1;align=center;verticalAlign=middle;whiteSpace=wrap;rounded=0;" vertex="1" parent="1">
          <mxGeometry x="320.24" y="807" width="60" height="30" as="geometry" />
        </mxCell>
        <mxCell id="FzzvjinRueu_OwRG8yQ0-72" value="" style="rounded=1;whiteSpace=wrap;html=1;fillColor=#f8cecc;strokeColor=#b85450;opacity=80;" vertex="1" parent="1">
          <mxGeometry x="565" y="732" width="231" height="160" as="geometry" />
        </mxCell>
        <mxCell id="FzzvjinRueu_OwRG8yQ0-73" value="" style="shape=image;verticalLabelPosition=bottom;labelBackgroundColor=default;verticalAlign=top;aspect=fixed;imageAspect=0;image=data:image/png,iVBORw0KGgoAAAANSUhEUgAAAKAAAAClCAYAAADbAvaeAAAEDmlDQ1BrQ0dDb2xvclNwYWNlR2VuZXJpY1JHQgAAOI2NVV1oHFUUPpu5syskzoPUpqaSDv41lLRsUtGE2uj+ZbNt3CyTbLRBkMns3Z1pJjPj/KRpKT4UQRDBqOCT4P9bwSchaqvtiy2itFCiBIMo+ND6R6HSFwnruTOzu5O4a73L3PnmnO9+595z7t4LkLgsW5beJQIsGq4t5dPis8fmxMQ6dMF90A190C0rjpUqlSYBG+PCv9rt7yDG3tf2t/f/Z+uuUEcBiN2F2Kw4yiLiZQD+FcWyXYAEQfvICddi+AnEO2ycIOISw7UAVxieD/Cyz5mRMohfRSwoqoz+xNuIB+cj9loEB3Pw2448NaitKSLLRck2q5pOI9O9g/t/tkXda8Tbg0+PszB9FN8DuPaXKnKW4YcQn1Xk3HSIry5ps8UQ/2W5aQnxIwBdu7yFcgrxPsRjVXu8HOh0qao30cArp9SZZxDfg3h1wTzKxu5E/LUxX5wKdX5SnAzmDx4A4OIqLbB69yMesE1pKojLjVdoNsfyiPi45hZmAn3uLWdpOtfQOaVmikEs7ovj8hFWpz7EV6mel0L9Xy23FMYlPYZenAx0yDB1/PX6dledmQjikjkXCxqMJS9WtfFCyH9XtSekEF+2dH+P4tzITduTygGfv58a5VCTH5PtXD7EFZiNyUDBhHnsFTBgE0SQIA9pfFtgo6cKGuhooeilaKH41eDs38Ip+f4At1Rq/sjr6NEwQqb/I/DQqsLvaFUjvAx+eWirddAJZnAj1DFJL0mSg/gcIpPkMBkhoyCSJ8lTZIxk0TpKDjXHliJzZPO50dR5ASNSnzeLvIvod0HG/mdkmOC0z8VKnzcQ2M/Yz2vKldduXjp9bleLu0ZWn7vWc+l0JGcaai10yNrUnXLP/8Jf59ewX+c3Wgz+B34Df+vbVrc16zTMVgp9um9bxEfzPU5kPqUtVWxhs6OiWTVW+gIfywB9uXi7CGcGW/zk98k/kmvJ95IfJn/j3uQ+4c5zn3Kfcd+AyF3gLnJfcl9xH3OfR2rUee80a+6vo7EK5mmXUdyfQlrYLTwoZIU9wsPCZEtP6BWGhAlhL3p2N6sTjRdduwbHsG9kq32sgBepc+xurLPW4T9URpYGJ3ym4+8zA05u44QjST8ZIoVtu3qE7fWmdn5LPdqvgcZz8Ww8BWJ8X3w0PhQ/wnCDGd+LvlHs8dRy6bLLDuKMaZ20tZrqisPJ5ONiCq8yKhYM5cCgKOu66Lsc0aYOtZdo5QCwezI4wm9J/v0X23mlZXOfBjj8Jzv3WrY5D+CsA9D7aMs2gGfjve8ArD6mePZSeCfEYt8CONWDw8FXTxrPqx/r9Vt4biXeANh8vV7/+/16ffMD1N8AuKD/A/8leAvFY9bLAAAAOGVYSWZNTQAqAAAACAABh2kABAAAAAEAAAAaAAAAAAACoAIABAAAAAEAAACgoAMABAAAAAEAAAClAAAAAEzEtMMAABB8SURBVHgB7Z1rzFxVFYYRhLbcJBRCIdiPcisiUpSWm/yQSzVA1CalBlIDISlSJUgiKAYwBlL4ZRQxhNIAYuIfWiEE0GJCQDQGSgETKCjUYCkkUG5WCnIVfZ/4DZkOZ85Ze5+zz2VmreTNmTl7r7Xe9e49Z85lf/Nts42bK+AKuAKugCvgCrgCroAr4Aq4Aq6AK+AKuAKugCvgCrgCroAr4Aq4Aq6AK+AKuAKugCvgCrgCroAr4Aq4Aq6AK+AKuAKugCvgCrgCroAr4ApEKPCJCJ9RdZmlwk4Tjhb2nizyRW3XCL8V/jG5zzeuQKUKHKRotwofCv8dAtroQ183V6AyBb6hSFuEYRNvcD998XFzBUorcLEiDE4w63t83VyBaAWulKd1sg3rRww3VyBIAS66rhGGTarQ/cTyC7mgIRjfztup9JuF0ElW1P8mxSS2myswVIHt1bJSKJpMse3EJoebK/AxBaZpD/fxYieX1Y8c5HJzBT5SYBe9+oNgnURl+5GLnG6uwDa7S4OHhZhJxVdq7Fc2OcntNsYKzFDtTwgxk48LFS4qyly0kBsObmOowIRqXi/ETL6fy6//tgqv2RcTCw5wcRsjBWar1ueFmAmzLEcn2mJibpQfnNzGQIE5qnGTEDNRvm/Qhz4xseEEN7cRVuAY1fZPIXSC/Ec+SwN0oS8+oXngBke3EVTgJNX0phA6Kd6Xz+IIPfDBNzQfHOHqNkIKfE21vCOETgZ8vl5CB3xj88LZbQQUOFM1xB6JTq6gfmLEHnnh7tZhBb4l7rHnYsdVWDexYs89qcGtgwpcJM6hX7n0f1k4IkG9xCR2DCdqceuQAleIa8xAc2/wkIR1Ejv2/iM1ubVcAZ5IxC4k/bt896uhPnKQK+YD4gtbaxig2BTbypFFnzEDu05+vT+xjM0f4kcucsZwpUZqdWuRAizyvFWIGdC18pveQC3kJHcMZ2r1ha0NDFpWyqnaGbuQ9AH57poVtKZ95IZDzCSkZmp3a1CBMgtJV4v3tAa591LDAS4xk/B++fnC1p6SNW9ZzLlGiBm4VfLboWa+eengAqeYWtDAF7bmqZugbYZiPiHEDNgv5bddAk5lQ8IJbjE1PS4/NHGrQYEJ5VgvxAzUtfLjVk1bDW5wjKkNTdDGLaECBys2izdjBihvIWlCylGhyyxsRSO3BArMUcxNQszk+0ECPqlDwjmmVjRCK7cKFThGsV4XQgeEn0tbWiGPukPBnRpC60YrNHOrQIETFWOLEDoILMFaXEH+pkNQA7WE1o9maOdWQoGvyvdtIVT8d+SzoETetrlSCzWF6oB2aOgWoUDTC0kjKCd18YWtSeXdOvi5ehuzkHSz/KpcSLo1q+bfURs1hh4J0RJN3QwKXKQ+oQLTn8WenzfE73oXavSFrYlG8QrFjZl8L8jvkESc2hiWWqk5Ris0dhtQgCcAPxNiBK1rIekA5cbf7icGsQtb0RrN3aQAiytvFGImX90LSds2YGUWtqI52o+1lVlI+oiUmz7W6v2/eDRAi5gP8K3yG9uFrVNV/N2Rwv1Rfk0uJFX6VhlaoEnMJGQMGIuxMhZR3i/ECNaWhaRtG7BpIlRmYevObSsoFR8WT64RYibfb+TXpoWkqTSKjYs2aBSjLWPC2Iy07aXqHhdiBLpFfm1cSCparTI0ukWI0ZixYYxG0maqqmeEGGF+IT+/bWCfFmiFZjFaM0aM1UhZmYWkV42UEvUWg3Yxk3Cj/EZmYevnVMxLkUJcIj+3cgqgYcwkZMwYu04bv3u8SQgVgEWY3+505e0ij5YxC1sZu87+djW3Wv4mhE4+Fl9+U3CrVgE0jVnYyhgylp2zFWIcOvlGbSFp2wYtdmErY9kpmyu2oYf8t+Qzv1NVdpMsGqN1yMGBsWRMO2N3iGlIgSyy/GJnqus+UbQOXdjKmHbCWKHxgWCdgOOykLRtgxe6sJUxZWxbb98RQ+vkG7eFpG0bvM+IUMjC1k7cmVhpnIBvqB8CuDWrAGPAWFgOGoxt6+1JMbQU86PWVzI+BBkLy5gxtq23f4mhpZiDWl/J+BBkLCxjxtg2YiELAfgTQMtS7+3VjxNbt+YV+KQocJO6yLgd08iKpJAJyCfJYiExLfG8TzkFWj1uliNaufLd2xXIUcAnYI443pReAZ+A6TX2DDkK+ATMEceb0ivgEzC9xp4hRwGfgDnieFN6BXwCptfYM+Qo4BMwRxxvSq+AT8D0GnuGHAV4VOM22gp8SeV9SuC58BeELwt7CJ0zy0Nt62OfzhU/QoT51vuK8Duhf0xbX2I/2bzXrS/ECX6kwEl69ZTQiQNH3qTrb/uoOn/RCQV2FMtfN8U0ZOWK9VMSErOpuj1vSxTwq+CWDMS40vAJOK4j35K6fQK2ZCDGlYZPwHEd+ZbU7ROwJQMxrjT8SUjcyM+U23nCPIGrfv6dwg3CBqENNiESPX7wWSvA7znedNX67/Xlve5qfVbep6hj1o8AsW+RNUjCfguH8Pu39p+aMG/y0HmTrr8tOZEGE8xR7neF/nr7X7+ntiMa5Hd4AT+489sxnbR+ofNed7I4I2l+SSqvdtpuN8ZK0W2Vgd9dKRLXEbNI+F57HVyayHGoklp+G5E/4J/VAMEJ5bT8ehk1HNYAv9IpexOsaFs6UUsD3CleRbX32q9voIbrAvjxb7w6Zz1xi7adK8xA+Ez1Kaq7v50jUZ1HGY7Oob8TvdhQd6u69Auc97pVpCsgc4BivCrk1ZzVdp986liYQY57I/i9Jp8Dhc5YlshZ+zpTkIHodPXhPwxl1WnZV8f/Q7m4BL/18u3M6miL4PQZFdtbhTwqWOvO6sfX4vEJBTlOsbn1k5Xbuu8x+e+TkGNloa0FVZawwUD87cRGwVpzXj++6lL8YuxsxY05Ncji+rxiHSm02rKIZ+1rdREF5PiNvEuFskeVQV1eUcyjCnKHNM9V55eFwTxl3lPz5QIatNKsxbWSvIEUj6nWCdY6Q/vxz3ouFMpcmOB7gfC2EJrf2v9JxT5NaJ1ZC2gd8RxC/Ev7swQe1lvrK9vvEeWaL4TayXKom+fZyolGrTCr8K0gO4QEq394VrtEuE14U7DWVXU//hrtMoFzL/4j+qCxjzb6cFSqOr81HhrxePFcAe34CebKLOTrAMIWC4lpiRfaZ6YclgrzhJ0FeCPajEkwCaswHuwvFJggx5YMyI1rLno2T8bhD8knhLJcH1SMqwQ+bFOEKgyumwT+7SvnjYw3k5Sj83KBOpKY9ROTJLkx6Onqx7IjK9fYfgjOOSO2p/CMEBsrlR+c4IbBFc6pcvXioj1jkMR6SYq2SZIbghYtlSribW1/UVwGb1nsr33st8ZI3Q8us4R+g3MdHPlmYCwqN6tolSc2BlylflaOsf0eUo6JIXwO1v5na+BQxB0OcMkyuFNDUYyy7SuzkpfdZyVVNk+sf1U3ZbPq5LznSqHonGwv9anzSnWQK7nhkGfUQC3UNOhf1XvGonKzkqs8sTFgqntja5T/aCMHuk0RfiJ8KFg1K9uPXOQkt9WoidrK5s7yZywqt6xEWfsqT2wMyDPNLD6x+zYo3mIh9qr+BPmuE2LzW/3IQa4YozZq3CBY81n6MRaVmyUxfZqy85XYyjGvH+dIZwhFX7eWOnmstUTg1kRezpg2YhK7ikdn1ErNVZ0fMhaVm1WkyhMbAzIQqwUrz/5+T8vvaoFFCCkMbguEe4T3hf7cIa/xJQaxqph4CvMxQwO0QJMQbr2+jEESbr0ERVvlb8y44bxM4IbuMJ6sTnlUWC6cI8wW6rTdlGyRsELgHGyLMIwrbfShLz741mlog0ZohWZoN4wrmqN90JMSzgGsRmKLhcS0xIvpgwjcithJ4I+EADdJX5jcatMaQy9uGPP0Y9dJVm9oy79QfUWw6j7pmnyzozLsK7DlSAfeErjxzRE6yEImi1WIkJhBZL3z6Cmw7eiV5BV1SQGfgF0arRHk6hNwBAe1SyVx/8ctXIGZcjlPmCdwzvuIcIOwQWiDTYhEjx981grwe443XTUuQizoan1W3qeoI1d9g1qwb5E1SMJ+CxU7ix93AViW1VkbFHzY+84WaCBetOTrPcU4whAnVZfDFfhdYdjY0Oa/jpVK/Rri3pEzuL1Bv70GHsNSrDLwu2uYc9v39wQu2ra9jlh+h8rRssLFfx0rVuECP+v6sSkFcbrafKeIF334eu3XN1DkdQH87m6AX+mUrxsLbPIcqHSRQwKcaay9NwH5sB42JFaK3RydQxc5LE5BJGXMvyh4T+C87bUpSTQQ+wDlfNVYe78u98mnjseS5Lg3gh8LCw4UOmO/EtN+gYe95pM4vzNV5ROdrmYesg+rtWj/JfnhK2m9uAS/9fLdoxIWNQQ5K6BQLvd/KOxSA69UKfZWYJYgFU2yvHY+jMenIqi4xwnc+snjUNT2mPz3ERqxkK8Ilgu9JEwNYIo4Twusa6vCblKQm6sIVBCDRZnccvl0QT9LM+fOTMK/WjoH9Jmtvn8WOEqXNZapLRD4wLXabhS7ok9UqvaHlTtosWOEkqxtu1Qoe1QZ1IB1fUdF8BnmMlcNLwuDecq8p+bLBTRore0vZu8IZQqN8eWr7LOJVTlV8dclrA3dLhRCvnXUfSvD9wLhbSFGR4vPk4p9mtBa+7GYWQqpss+KRGpwOsG57doaa2LhQsxF2skN8DxbOUNOudQ9vXGIfkCocoLlxfpQuTjfqcJY/cN9yiXCbcKbQl7ulG1PKfdlwpHCDsKgsY82+nBUSsklLzYa8XjxXAHtKj0Niv062F1E/iRwAzS1PaQExwYkmam+S4V5ws4C4iLajEkwCaswrvQXCkyQEH5ZuT/Qzo3C5slGLvgmhLJcH1SMqwQ+bFU9oYLrJuElgfNG5hCTlG+R5QJ11GJ7KAuTI+/TU0UbA2y109WRZUdV5M2LgeCcM2J7Cs8Ief2baIMT3DC4wjk1D7RnDGozviauEXgAn6q4E43VzFE/jkqpePTivqgcfDX2Gxdn7O/1aXoLl1n9BPUaznVwZAwYi1ptrrL9Xkgh/L7GSlYlyt9fE0f8iSF8+DPQZ2vg0M8n6zUc4JJlcK/jW2tlVvI69nFOuEx4WOD8IEug0H1TFcdiMc9rrVw477lSKDon20t96ryiHuRPbjjkGTVQCzUN+lf1nrEwWexFiCU4hfIkYTdhisVhSB8+sRbj3ph1slri9frwYfquwC8UWIxaOfH/npBS334uTJyfCpwv8xVosaPViYUjVd4g7+Xlnue03ptx2T6mQqv6BBNng7BYiJ1EJ8h3nVAlp6xY5CBXjFEbNW4QsmLH7mMsxs7OV8WxgvX7ccQ9Qyj6urUIzD3TJcJGoT9HFa+JSewqHp1RKzVTexXcGIuxMwZitRAj4NPyu1pgEUIKg9sC4R7hfSGGIz74EoNYVUw8hfmYoQFaoEkMT8YgFTeFbrdxw3mZsFkYJt5rantUWC6cI8wW6jTOiRcJKwTOK7cIw7jSRh/64oNvnYY2aIRWaIZ2w7iiOdozBmbjHGAUDRG4FbGTwD1KwE3SFya32rTGGANuGPP0Y9dJVm9oOxa/jjVZr29cAVfAFXAFXAFXwBVwBVwBV8AVcAVcAVfAFXAFXAFXwBVwBVwBV8AVGEEF/gdmWb8rEpz33AAAAABJRU5ErkJggg==;" vertex="1" parent="1">
          <mxGeometry x="587.21" y="752" width="38.79" height="40" as="geometry" />
        </mxCell>
        <mxCell id="FzzvjinRueu_OwRG8yQ0-74" value="&lt;span style=&quot;font-size: 14px;&quot;&gt;Marketing&amp;nbsp;&lt;/span&gt;&lt;span style=&quot;font-size: 14px;&quot;&gt;Test Workspace&lt;/span&gt;" style="text;html=1;align=center;verticalAlign=middle;whiteSpace=wrap;rounded=0;" vertex="1" parent="1">
          <mxGeometry x="586" y="709" width="174" height="30" as="geometry" />
        </mxCell>
        <mxCell id="FzzvjinRueu_OwRG8yQ0-75" value="" style="shape=image;verticalLabelPosition=bottom;labelBackgroundColor=default;verticalAlign=top;aspect=fixed;imageAspect=0;image=data:image/png,iVBORw0KGgoAAAANSUhEUgAAAKAAAAClCAYAAADbAvaeAAAEDmlDQ1BrQ0dDb2xvclNwYWNlR2VuZXJpY1JHQgAAOI2NVV1oHFUUPpu5syskzoPUpqaSDv41lLRsUtGE2uj+ZbNt3CyTbLRBkMns3Z1pJjPj/KRpKT4UQRDBqOCT4P9bwSchaqvtiy2itFCiBIMo+ND6R6HSFwnruTOzu5O4a73L3PnmnO9+595z7t4LkLgsW5beJQIsGq4t5dPis8fmxMQ6dMF90A190C0rjpUqlSYBG+PCv9rt7yDG3tf2t/f/Z+uuUEcBiN2F2Kw4yiLiZQD+FcWyXYAEQfvICddi+AnEO2ycIOISw7UAVxieD/Cyz5mRMohfRSwoqoz+xNuIB+cj9loEB3Pw2448NaitKSLLRck2q5pOI9O9g/t/tkXda8Tbg0+PszB9FN8DuPaXKnKW4YcQn1Xk3HSIry5ps8UQ/2W5aQnxIwBdu7yFcgrxPsRjVXu8HOh0qao30cArp9SZZxDfg3h1wTzKxu5E/LUxX5wKdX5SnAzmDx4A4OIqLbB69yMesE1pKojLjVdoNsfyiPi45hZmAn3uLWdpOtfQOaVmikEs7ovj8hFWpz7EV6mel0L9Xy23FMYlPYZenAx0yDB1/PX6dledmQjikjkXCxqMJS9WtfFCyH9XtSekEF+2dH+P4tzITduTygGfv58a5VCTH5PtXD7EFZiNyUDBhHnsFTBgE0SQIA9pfFtgo6cKGuhooeilaKH41eDs38Ip+f4At1Rq/sjr6NEwQqb/I/DQqsLvaFUjvAx+eWirddAJZnAj1DFJL0mSg/gcIpPkMBkhoyCSJ8lTZIxk0TpKDjXHliJzZPO50dR5ASNSnzeLvIvod0HG/mdkmOC0z8VKnzcQ2M/Yz2vKldduXjp9bleLu0ZWn7vWc+l0JGcaai10yNrUnXLP/8Jf59ewX+c3Wgz+B34Df+vbVrc16zTMVgp9um9bxEfzPU5kPqUtVWxhs6OiWTVW+gIfywB9uXi7CGcGW/zk98k/kmvJ95IfJn/j3uQ+4c5zn3Kfcd+AyF3gLnJfcl9xH3OfR2rUee80a+6vo7EK5mmXUdyfQlrYLTwoZIU9wsPCZEtP6BWGhAlhL3p2N6sTjRdduwbHsG9kq32sgBepc+xurLPW4T9URpYGJ3ym4+8zA05u44QjST8ZIoVtu3qE7fWmdn5LPdqvgcZz8Ww8BWJ8X3w0PhQ/wnCDGd+LvlHs8dRy6bLLDuKMaZ20tZrqisPJ5ONiCq8yKhYM5cCgKOu66Lsc0aYOtZdo5QCwezI4wm9J/v0X23mlZXOfBjj8Jzv3WrY5D+CsA9D7aMs2gGfjve8ArD6mePZSeCfEYt8CONWDw8FXTxrPqx/r9Vt4biXeANh8vV7/+/16ffMD1N8AuKD/A/8leAvFY9bLAAAAOGVYSWZNTQAqAAAACAABh2kABAAAAAEAAAAaAAAAAAACoAIABAAAAAEAAACgoAMABAAAAAEAAAClAAAAAEzEtMMAAAybSURBVHgB7V1NyCTVFZ0x45j/iJKJGIVPnGHUlSFmRFEREZUEBHHjKhmYkE1MQCGbuBmDusmggSgGx01EsjILoxAyDoKbIZDxZysy8Vv4A+JvHH9GR5NzZrq/9DRVXedVvffqVdW5cL+vu+q+e84979Ld1fWqetMmmxWwAlbAClgBK2AFrIAVsAJWwApYAStgBayAFbACVsAKWAErYAWsgBWwAlbACoxNgc0DK+ir4PutGecP8f/TgfFPRXewupTagFswUz+CXwf/IXwn/EL4GfBFO4YnR+Avw5+HPwv/F/w4fIxmXRLP6hXI/yf4u/D/tnSOZQ7mGotZl8Qz+WPkPwRv23R145iTuYdq1iXxzPGt9SC8roFibScGsYZi1iXDTN0JjGPwWE3WlIdYxCzdrEviGeJR7N/gTQ2Taj+x50fSiUsNSm9dguRqF7wNw3i0mqq51LzkQC6lmHXJMBPfBcbLcLVJUseRCzn1bdYlwwx8ExiH4ambKjQ/OZFbX2ZdMin/BHBCm6Mqnmc+3pp5rAMYcuvLrEsG5X8JjKpmUra9jbEPw2+Bnw9fPHPDx9zGfYxhrJKzKoYcc5t1yaD4GjA+hldN+qpt6xizB74VrhpjOWYdvip31T5yXIPnsjUAWZcMaj8JjKoJr9v2JeL3wb/WgdvXZzmYqw6naju55jLrkkHpq4BRNdF12z5C/M0ReTEXc9bhVW0n59RmXVIrPMv/d/yvmuSqbXw7ujoBL+YMeasj59RmXVIrjPwXw6sarW7brQk5MXcdbtV2ck9l1iWVskt578Pzqsmt2vbg0tgUTx8K4EPuqcy6pFJ2Ke86nlc12/K2NxH37aWxKZ4Sg1jL+FXP11MQmOVk7irM5W1T0yWq5DtEkSn6HVGRVycj1vJE1z3fvjpVq73WpZVs4YN+gSF1E7u4nQcHOVelEEs9IGENsc26VCh6WsW2rpt+ICZ4GnG8sCiXEYuYiqk1KLnmMWrOSemSogF3zhVv+M9VyrlNxVRrCOGv5lQ5hmA3xaqYag1NeBv7UzTgBRvZVz94cfXuJHtVTLWGEJJqTpVjCHZTrIqp1tCEl3T/u8i++Fmv7vHZSVlUJydmHZ/F7awhtlmX2IrW5PsM2xcns+7x6TXjU24mZh2fxe2sIbZZlwpFU7wFcyIVS4HdhKtiqjU04S3uV3OqHBdzd32sYqo1yHxUYDkhAo+KwWeJcTHDVEy1hhBuak6VYwh2U6yKqdbQhLexP0UDvrORffWDFF/2rkbctIlfBivGxa2xTc05KV1SNOARceYuF+Nihu0Sk/1bjAsJU3NOSpcUDcirzRS7SQmKHKNiqjWE0FNzqhxDsJtiVUy1hia8pPtvQ3Z+WG3yLxBzXlImpyYnFjGbeHE/a4ht1iW2ojX5vo/tyiQzhsvvcxmxVF6sIbZZl9iKrsjHe/Qpk83FAWsr8sTaRQx1IQK5pzLrsqRsis+AhHhiCafuKS8+egS+uS4gwnbmJgaxFFO5K7mWY9TcU9NlWafOz7chwzG48irImL3wVLYXiVUe5Ezuqcy6pFK2Iu+fsU2deMbdXpGj6ybmDOFAzqnNuqRWeJaf93T+HB7SAPciPsbHAuZgrhBsciXn1GZdUiu8kP+PeBzSBIx9Dn7RQo7QhxzLHKG45JrLrEsmpXkx0Gvw0GbgypH98EvgqjGWY9RVJ4ucyJFcc5l1mSm9OYPiNwKDF2O3xXoJYw/AD8N5mu99OO1MON/OLoPfAL8U3sbYiDwTQIycZl0yqv07YC2+4pT0mNz6MuuSSXm++v0FXlLjkQs5tX1lxtDOZl06S6gn2IrQp+ClNCG5kFPfZl0yzgCXxPNVp+8mJIctGetugrIuTQpF3M+3nd/C1ZUpMZuVmMTu820X8JVmXSplSbfxWqTmIs2YDbYqF7GIWbpdC4LWJdMsfQM498HVlSqrGqxuH3MTg1hDMeuSeaa4WPQP8P/A6xopdDtzMWfORa+Ai2rWJaqczcl4hmAP/Bn4Z/DQpuOYA3DmyHlmA3BJba4La7MuSaX+f3LebPx6uNqEjOWYsduodCnxaHC5gdiAig2hFqUONWYUupymVus4K5BCATdgClWdU1bADShL5cAUCrgBU6jqnLICbkBZqqICzxDZ8NdFizY3YNHTU0uut7tZ1TJqucMN2FK4noftEPHfE+N6C3MD9iZ9J+Bd4uhXxLjewtyAvUnfCXhUd7PqpESGweqpuAxUioDo+y5fRYiQk4Qb8FS19+Gpqsn3Th3qZ20UUMVuk3toY9ZAWF07+cIQivNnwCHM0kmOXGzxCFy9y9fjwymtbKZ+BTw5P3vxT9WCawbPOTnMf7sqoIreFafk8aF3+Xq05GKGxm3KDciPSKF3+TqOMduHNskl851qA7a9y9cDJU/mELlNrQG73OXrdUxwzh8B79xPWzpnKCcBv6Admm0F4Vh3+foSuX4G/3BoIpTOV30FnHrc3aVP5FD5Tb2xlPr5nd/ULsrK1s/KBEw5hnf54s2NbIkUmHJzNdX+GDQf0+f4RC3ULW3TJExxP7/ruwvut91uvSWNnmKDrar5Vah2jaScg6IosGoyprSPFxjdA1cXI0QR30n0E/BjbcajaIL74ee6GfpRYKyNtaouvtrxDmG74YM6swG+QTamI6jXgiovI5jLpnjm4gM4fwOFv0jO30M5BP8EPnobwlEUXykUG0ItSh2TivGK6ElNd3nFugHLm5NJMXIDTmq6yyvWDVjenEyKkRtwUtNdXrFuwPLmZFKM3ICTmu7yinUDljcnk2LkBpzUdJdX7FfKo3SCEVf4Xgn/Kfy6E1ua//CXMHlhzpuz/80jHGEFlhS4As/3w9+BrzpZv2ofxzIHc9msgKTATxD1T/iqxmqzjzmZ22YFKhW4GFufhbdprpAxxCCWzQqcUIArV34D57q3kEbqEkssYnrVDESYsvGnR5+Ed2mmLmOJTQ62CSqwDTW/BO/SQDHGkgO52CakAO9XzBW/MRooRg5y8T2UJ9KAvK7h+YKab97A5ERutpEr8FfUN5/0Lv95IPHWzGMdwJCbbcQK/Bq1tW26tzH2Yfgt8PPhi0ewfMxt3McYxrbF+RXG2kaowAWo6SN4aGOsY8weOO+fpxpjOWYdHopHjuRqG5kCT6OekGbgudx98C5X/3MsczBXCDa52kakwFWoJaQB+Cp0c8T6mSv01ZecbSNRgFf2qw3IX/+5OkHdzKn+shC5krNtBArwDu9q8zHu1oQ1M3cIF3K3DVyB34O/OukPZqj1oQA+5G4buAJHwF9pQC4ezXFelhjEUjiRu23ACnDZkzLRjLkjY53EUnl56VbGiYkN9XNxonlwkPM0GLHUAxLWYMugQIqLknaJvPm9G29NlsuIpX7Xp9aQi/tocVI04A5RrYNiXMwwFVOtISa3SeZK0YDqKa0Xe1BcxVRr6KEEQzYp8D4ClA/7ZzclSrCfmAo31mAbqAKfg7cyyX38ug8xFW6swZZBgRRvwV+IvFNgN0GrmMebEnl/HAXUCQlBU49szwpJGilWxTwaCc9pGhRI0YDvNWDOd2+fP8j4Xz26VWvISH2cUCka8BVRqsvFuJhh6vd7ag0xuU0yV4oG5NVmit2kBEWOUTHVGiLTc7oYCtyGJMqRJg9WzosBKOYgFjEVbqzBNlAFeK2tMsmM4dL5XEYslRdrsA1YgRfAXZlsLg5Yy1AnMYilcCJ328AVuBP8lclmzAH45oT1MjcxVD7kbhu4AueAP3+IT530vQnrZW6VBzmTu20ECjyKGtSJZ9ztCWpmzhAO5GwbiQL8ovk4PKQB7kV8jK+GmIO5QrDJtY8vxwFrS6XAA0gc0gSMfQ7e5co0jmWOUFxytY1MAV4M9AY8tBn4WWw//BK4aozlmJDPnnNer2NczssD1JpGH5fy6HMu3vV48A9427dW3kzyAPwwnFeszdfqnYnHF8Ivg98AvxTexngLjxvhB9sM9phhKHA3aM5fbUr7T262kSvAV9rH4aU1HznleBcY+fQOo7zTQfMpeClNSC7kZJuQAltQ62PwvpuQHMjFNkEF+JZ3Fzz0O8IYTUtMYvttFyJM3a6BAK/CYzSWkoNYxLRZgQ0FeDfTe+CfwpUmahPD3MQgls0KVCpwLrbeD+fFQG2arGoMczEnc9usgKQAz0bshj8Db/OqyDEcuxvuMxsQoXQr+cM43zKvhPNMx044z3p8Bz5vLF7++QGcZ0d4DQfPlByCfwK3WQErYAWsgBWwAlbAClgBK2AFrIAVsAJWwApYAStgBayAFbACVsAKWAErYAWsgBWwAj0p8D+bTrXJ/RLxDwAAAABJRU5ErkJggg==;" vertex="1" parent="1">
          <mxGeometry x="585" y="812" width="38.79" height="40" as="geometry" />
        </mxCell>
        <mxCell id="FzzvjinRueu_OwRG8yQ0-76" value="" style="shape=image;verticalLabelPosition=bottom;labelBackgroundColor=default;verticalAlign=top;aspect=fixed;imageAspect=0;image=data:image/png,iVBORw0KGgoAAAANSUhEUgAAAKAAAAClCAYAAADbAvaeAAAEDmlDQ1BrQ0dDb2xvclNwYWNlR2VuZXJpY1JHQgAAOI2NVV1oHFUUPpu5syskzoPUpqaSDv41lLRsUtGE2uj+ZbNt3CyTbLRBkMns3Z1pJjPj/KRpKT4UQRDBqOCT4P9bwSchaqvtiy2itFCiBIMo+ND6R6HSFwnruTOzu5O4a73L3PnmnO9+595z7t4LkLgsW5beJQIsGq4t5dPis8fmxMQ6dMF90A190C0rjpUqlSYBG+PCv9rt7yDG3tf2t/f/Z+uuUEcBiN2F2Kw4yiLiZQD+FcWyXYAEQfvICddi+AnEO2ycIOISw7UAVxieD/Cyz5mRMohfRSwoqoz+xNuIB+cj9loEB3Pw2448NaitKSLLRck2q5pOI9O9g/t/tkXda8Tbg0+PszB9FN8DuPaXKnKW4YcQn1Xk3HSIry5ps8UQ/2W5aQnxIwBdu7yFcgrxPsRjVXu8HOh0qao30cArp9SZZxDfg3h1wTzKxu5E/LUxX5wKdX5SnAzmDx4A4OIqLbB69yMesE1pKojLjVdoNsfyiPi45hZmAn3uLWdpOtfQOaVmikEs7ovj8hFWpz7EV6mel0L9Xy23FMYlPYZenAx0yDB1/PX6dledmQjikjkXCxqMJS9WtfFCyH9XtSekEF+2dH+P4tzITduTygGfv58a5VCTH5PtXD7EFZiNyUDBhHnsFTBgE0SQIA9pfFtgo6cKGuhooeilaKH41eDs38Ip+f4At1Rq/sjr6NEwQqb/I/DQqsLvaFUjvAx+eWirddAJZnAj1DFJL0mSg/gcIpPkMBkhoyCSJ8lTZIxk0TpKDjXHliJzZPO50dR5ASNSnzeLvIvod0HG/mdkmOC0z8VKnzcQ2M/Yz2vKldduXjp9bleLu0ZWn7vWc+l0JGcaai10yNrUnXLP/8Jf59ewX+c3Wgz+B34Df+vbVrc16zTMVgp9um9bxEfzPU5kPqUtVWxhs6OiWTVW+gIfywB9uXi7CGcGW/zk98k/kmvJ95IfJn/j3uQ+4c5zn3Kfcd+AyF3gLnJfcl9xH3OfR2rUee80a+6vo7EK5mmXUdyfQlrYLTwoZIU9wsPCZEtP6BWGhAlhL3p2N6sTjRdduwbHsG9kq32sgBepc+xurLPW4T9URpYGJ3ym4+8zA05u44QjST8ZIoVtu3qE7fWmdn5LPdqvgcZz8Ww8BWJ8X3w0PhQ/wnCDGd+LvlHs8dRy6bLLDuKMaZ20tZrqisPJ5ONiCq8yKhYM5cCgKOu66Lsc0aYOtZdo5QCwezI4wm9J/v0X23mlZXOfBjj8Jzv3WrY5D+CsA9D7aMs2gGfjve8ArD6mePZSeCfEYt8CONWDw8FXTxrPqx/r9Vt4biXeANh8vV7/+/16ffMD1N8AuKD/A/8leAvFY9bLAAAAOGVYSWZNTQAqAAAACAABh2kABAAAAAEAAAAaAAAAAAACoAIABAAAAAEAAACgoAMABAAAAAEAAAClAAAAAEzEtMMAAAYhSURBVHgB7d0xqxxlG8bxaNQiFgYURG0iUWKlgrFPK2glkhQBy/g5/A4pLQIpErATtBa0MhaiFhbhVCpiDAkkTUKM1wVbBNzZvebM3DNznvk/8HBed++5n53ffbnnPXuEc+wYCwEEEEAAAQQQQAABBBBAAAEEEEAAAQQQQAABBBBAAAEEEEAAAQQQQAABBBBAAAEEEEAAAQQQQAABBBBAAAEEEEAAAQQQQAABBBBAAAEEEEAAAQQQQAABBBBAAAEEEEBAAk8VKbjv69qntU9uzrijrze1D7Qfbx7jy7IEjvTcnpblR9rXtG9pO2Tbtp9zjWt9DWtegSbm9okMf9PeFrhdj/kaX8uaR+DIz+1FuX2lvStkyXPu4V6saQSamNubsjrQTgKW1LiXe7JqBZqYm3/A+EM7CVafGvd0b1aNQBNzOyGbX7X7BKtPrXv7DNa4As3M7bJc+gTqMLU+gzWuQBNze1cmj7QPE6o+1/gMn8UaR6CZuX0pjz5BGlLrs1jjCCx2bv7kO10vq/B37ePpBZv6G5v6s/r6Wo9r/S7o+r96XEPp/wWamdtnurf0He22as9rPxlw/28/5ufSPpdUyxom0Mzc/OuzJDj3VffODjM/55qkl89kDRNoZm6/yCEJzeeBl2uSXj6TNUygmbndlUMSmrcCL9ckvXwma5jAouf25P9H23eb/qEg+a9XnlPdwz3NntXzD/bU+Ol/tT8N6ijpFriip+aYW/TDap8A+h0rWWnPtF9yJjXDBcaeW9Qv+Tdj+K3RAYEOAQLYAcPD0wgQwGmcOaVDgAB2wPDwNAIEcBpnTukQIIAdMDw8jQABnMaZUzoECGAHDA9PI/DMNMcMOuXqoKu5+OKSCaJPqzc3kP7mIu05dr8lO8/52sZ2HrUf34LnjAZnR7+khgmBMgHeActoaZwIEMBEiZoyAQJYRkvjRIAAJkrUlAkQwDJaGicCBDBRoqZMgACW0dI4ESCAiRI1ZQIEsIyWxokAAUyUqCkTIIBltDROBAhgokRNmQABLKOlcSJAABMlasoECGAZLY0TAQKYKFFTJkAAy2hpnAgQwESJmjIBAlhGS+NEgAAmStSUCRDAMloaJwIEMFGipkyAAJbR0jgRIICJEjVlAgSwjJbGiQABTJSoKRMggGW0NE4ECGCiRE2ZAAEso6VxIkAAEyVqygQIYBktjRMBApgoUVMmQADLaGmcCBDARImaMgECWEZL40SAACZK1JQJEMAyWhonAgQwUaKmTIAAltHSOBEggIkSNWUCBLCMlsaJAAFMlKgpEyCAZbQ0TgQIYKJETZkAASyjpXEiQAATJWrKBI7CX0xf9F/8LpvMShqnf93cHKP+pewe/VYyitlvM83CqDngW/Dsc1/3CyCA657/7HdPAGcfwbpfAAFc9/xnv3sCOPsI1v0CCOC65z/73RPA2Uew7hdAANc9/9nvvuI3If5Ac9+HlemHnga6OrvS0X4B6W+Sxp7b6Gr31NHB2rdfCU52zb4+ft5nsoYJLHpufb4F/x06fBDUJTVuk54ZHLnaktQwmUlSUza3r9U5edc6UN0LO8bt51yT9PKZrGECi55bn3fA70OHU6r7RvvVLfV+zM+d2vLctoe+2/Ygj/USWPTc+vww8LZu+6cet35ftde1f9hc876+ntd+fvPPyRef+XNSSE2nQFNzu6HbTL51jlHjs1jjCDQzt4/lMUa4kh4+izWOQFNz+1YmSYCG1PgM1rgCzcztDbnc1R4SsF3Xuvfpce3pJoGm5vahbuih9q4gHeY593RvVo1AU3O7IKMH2ocJ2rZr3Ms9WbUCTc3tnKz+1N4WqD6PuYd7saYROKdjmpnbS7qZL7QfafcJnWt9ja91D9a0As3N7Yz8Lmv/o70viK5xra9hzSsw69z6/CYkZTquwve0z2r7p9mT2l53tG9q+0PRH7X97sdajgBzW84seCUIIIAAAggggAACCCCAAAIIIIAAAggggAACCCCAAAIIIIAAAggggAACCCCAAAIIIIAAAggggAACCCCAAAIIIIAAAggggAACCCCAAAIIIIAAAggggAACCCCAAAIIIIAAAggggMB6BP4D8oE4pVcI2JkAAAAASUVORK5CYII=;" vertex="1" parent="1">
          <mxGeometry x="652" y="747" width="48.48" height="50" as="geometry" />
        </mxCell>
        <mxCell id="FzzvjinRueu_OwRG8yQ0-77" value="&lt;font style=&quot;font-size: 14px;&quot;&gt;Items&lt;/font&gt;" style="text;html=1;align=center;verticalAlign=middle;whiteSpace=wrap;rounded=0;" vertex="1" parent="1">
          <mxGeometry x="646.24" y="807" width="60" height="30" as="geometry" />
        </mxCell>
        <mxCell id="FzzvjinRueu_OwRG8yQ0-78" value="" style="rounded=1;whiteSpace=wrap;html=1;fillColor=#f8cecc;strokeColor=#b85450;opacity=80;" vertex="1" parent="1">
          <mxGeometry x="901" y="732" width="231" height="160" as="geometry" />
        </mxCell>
        <mxCell id="FzzvjinRueu_OwRG8yQ0-79" value="" style="shape=image;verticalLabelPosition=bottom;labelBackgroundColor=default;verticalAlign=top;aspect=fixed;imageAspect=0;image=data:image/png,iVBORw0KGgoAAAANSUhEUgAAAKAAAAClCAYAAADbAvaeAAAEDmlDQ1BrQ0dDb2xvclNwYWNlR2VuZXJpY1JHQgAAOI2NVV1oHFUUPpu5syskzoPUpqaSDv41lLRsUtGE2uj+ZbNt3CyTbLRBkMns3Z1pJjPj/KRpKT4UQRDBqOCT4P9bwSchaqvtiy2itFCiBIMo+ND6R6HSFwnruTOzu5O4a73L3PnmnO9+595z7t4LkLgsW5beJQIsGq4t5dPis8fmxMQ6dMF90A190C0rjpUqlSYBG+PCv9rt7yDG3tf2t/f/Z+uuUEcBiN2F2Kw4yiLiZQD+FcWyXYAEQfvICddi+AnEO2ycIOISw7UAVxieD/Cyz5mRMohfRSwoqoz+xNuIB+cj9loEB3Pw2448NaitKSLLRck2q5pOI9O9g/t/tkXda8Tbg0+PszB9FN8DuPaXKnKW4YcQn1Xk3HSIry5ps8UQ/2W5aQnxIwBdu7yFcgrxPsRjVXu8HOh0qao30cArp9SZZxDfg3h1wTzKxu5E/LUxX5wKdX5SnAzmDx4A4OIqLbB69yMesE1pKojLjVdoNsfyiPi45hZmAn3uLWdpOtfQOaVmikEs7ovj8hFWpz7EV6mel0L9Xy23FMYlPYZenAx0yDB1/PX6dledmQjikjkXCxqMJS9WtfFCyH9XtSekEF+2dH+P4tzITduTygGfv58a5VCTH5PtXD7EFZiNyUDBhHnsFTBgE0SQIA9pfFtgo6cKGuhooeilaKH41eDs38Ip+f4At1Rq/sjr6NEwQqb/I/DQqsLvaFUjvAx+eWirddAJZnAj1DFJL0mSg/gcIpPkMBkhoyCSJ8lTZIxk0TpKDjXHliJzZPO50dR5ASNSnzeLvIvod0HG/mdkmOC0z8VKnzcQ2M/Yz2vKldduXjp9bleLu0ZWn7vWc+l0JGcaai10yNrUnXLP/8Jf59ewX+c3Wgz+B34Df+vbVrc16zTMVgp9um9bxEfzPU5kPqUtVWxhs6OiWTVW+gIfywB9uXi7CGcGW/zk98k/kmvJ95IfJn/j3uQ+4c5zn3Kfcd+AyF3gLnJfcl9xH3OfR2rUee80a+6vo7EK5mmXUdyfQlrYLTwoZIU9wsPCZEtP6BWGhAlhL3p2N6sTjRdduwbHsG9kq32sgBepc+xurLPW4T9URpYGJ3ym4+8zA05u44QjST8ZIoVtu3qE7fWmdn5LPdqvgcZz8Ww8BWJ8X3w0PhQ/wnCDGd+LvlHs8dRy6bLLDuKMaZ20tZrqisPJ5ONiCq8yKhYM5cCgKOu66Lsc0aYOtZdo5QCwezI4wm9J/v0X23mlZXOfBjj8Jzv3WrY5D+CsA9D7aMs2gGfjve8ArD6mePZSeCfEYt8CONWDw8FXTxrPqx/r9Vt4biXeANh8vV7/+/16ffMD1N8AuKD/A/8leAvFY9bLAAAAOGVYSWZNTQAqAAAACAABh2kABAAAAAEAAAAaAAAAAAACoAIABAAAAAEAAACgoAMABAAAAAEAAAClAAAAAEzEtMMAABB8SURBVHgB7Z1rzFxVFYYRhLbcJBRCIdiPcisiUpSWm/yQSzVA1CalBlIDISlSJUgiKAYwBlL4ZRQxhNIAYuIfWiEE0GJCQDQGSgETKCjUYCkkUG5WCnIVfZ/4DZkOZ85Ze5+zz2VmreTNmTl7r7Xe9e49Z85lf/Nts42bK+AKuAKugCvgCrgCroAr4Aq4Aq6AK+AKuAKugCvgCrgCroAr4Aq4Aq6AK+AKuAKugCvgCrgCroAr4Aq4Aq6AK+AKuAKugCvgCrgCroAr4ApEKPCJCJ9RdZmlwk4Tjhb2nizyRW3XCL8V/jG5zzeuQKUKHKRotwofCv8dAtroQ183V6AyBb6hSFuEYRNvcD998XFzBUorcLEiDE4w63t83VyBaAWulKd1sg3rRww3VyBIAS66rhGGTarQ/cTyC7mgIRjfztup9JuF0ElW1P8mxSS2myswVIHt1bJSKJpMse3EJoebK/AxBaZpD/fxYieX1Y8c5HJzBT5SYBe9+oNgnURl+5GLnG6uwDa7S4OHhZhJxVdq7Fc2OcntNsYKzFDtTwgxk48LFS4qyly0kBsObmOowIRqXi/ETL6fy6//tgqv2RcTCw5wcRsjBWar1ueFmAmzLEcn2mJibpQfnNzGQIE5qnGTEDNRvm/Qhz4xseEEN7cRVuAY1fZPIXSC/Ec+SwN0oS8+oXngBke3EVTgJNX0phA6Kd6Xz+IIPfDBNzQfHOHqNkIKfE21vCOETgZ8vl5CB3xj88LZbQQUOFM1xB6JTq6gfmLEHnnh7tZhBb4l7rHnYsdVWDexYs89qcGtgwpcJM6hX7n0f1k4IkG9xCR2DCdqceuQAleIa8xAc2/wkIR1Ejv2/iM1ubVcAZ5IxC4k/bt896uhPnKQK+YD4gtbaxig2BTbypFFnzEDu05+vT+xjM0f4kcucsZwpUZqdWuRAizyvFWIGdC18pveQC3kJHcMZ2r1ha0NDFpWyqnaGbuQ9AH57poVtKZ95IZDzCSkZmp3a1CBMgtJV4v3tAa591LDAS4xk/B++fnC1p6SNW9ZzLlGiBm4VfLboWa+eengAqeYWtDAF7bmqZugbYZiPiHEDNgv5bddAk5lQ8IJbjE1PS4/NHGrQYEJ5VgvxAzUtfLjVk1bDW5wjKkNTdDGLaECBys2izdjBihvIWlCylGhyyxsRSO3BArMUcxNQszk+0ECPqlDwjmmVjRCK7cKFThGsV4XQgeEn0tbWiGPukPBnRpC60YrNHOrQIETFWOLEDoILMFaXEH+pkNQA7WE1o9maOdWQoGvyvdtIVT8d+SzoETetrlSCzWF6oB2aOgWoUDTC0kjKCd18YWtSeXdOvi5ehuzkHSz/KpcSLo1q+bfURs1hh4J0RJN3QwKXKQ+oQLTn8WenzfE73oXavSFrYlG8QrFjZl8L8jvkESc2hiWWqk5Ris0dhtQgCcAPxNiBK1rIekA5cbf7icGsQtb0RrN3aQAiytvFGImX90LSds2YGUWtqI52o+1lVlI+oiUmz7W6v2/eDRAi5gP8K3yG9uFrVNV/N2Rwv1Rfk0uJFX6VhlaoEnMJGQMGIuxMhZR3i/ECNaWhaRtG7BpIlRmYevObSsoFR8WT64RYibfb+TXpoWkqTSKjYs2aBSjLWPC2Iy07aXqHhdiBLpFfm1cSCparTI0ukWI0ZixYYxG0maqqmeEGGF+IT+/bWCfFmiFZjFaM0aM1UhZmYWkV42UEvUWg3Yxk3Cj/EZmYevnVMxLkUJcIj+3cgqgYcwkZMwYu04bv3u8SQgVgEWY3+505e0ij5YxC1sZu87+djW3Wv4mhE4+Fl9+U3CrVgE0jVnYyhgylp2zFWIcOvlGbSFp2wYtdmErY9kpmyu2oYf8t+Qzv1NVdpMsGqN1yMGBsWRMO2N3iGlIgSyy/GJnqus+UbQOXdjKmHbCWKHxgWCdgOOykLRtgxe6sJUxZWxbb98RQ+vkG7eFpG0bvM+IUMjC1k7cmVhpnIBvqB8CuDWrAGPAWFgOGoxt6+1JMbQU86PWVzI+BBkLy5gxtq23f4mhpZiDWl/J+BBkLCxjxtg2YiELAfgTQMtS7+3VjxNbt+YV+KQocJO6yLgd08iKpJAJyCfJYiExLfG8TzkFWj1uliNaufLd2xXIUcAnYI443pReAZ+A6TX2DDkK+ATMEceb0ivgEzC9xp4hRwGfgDnieFN6BXwCptfYM+Qo4BMwRxxvSq+AT8D0GnuGHAV4VOM22gp8SeV9SuC58BeELwt7CJ0zy0Nt62OfzhU/QoT51vuK8Duhf0xbX2I/2bzXrS/ECX6kwEl69ZTQiQNH3qTrb/uoOn/RCQV2FMtfN8U0ZOWK9VMSErOpuj1vSxTwq+CWDMS40vAJOK4j35K6fQK2ZCDGlYZPwHEd+ZbU7ROwJQMxrjT8SUjcyM+U23nCPIGrfv6dwg3CBqENNiESPX7wWSvA7znedNX67/Xlve5qfVbep6hj1o8AsW+RNUjCfguH8Pu39p+aMG/y0HmTrr8tOZEGE8xR7neF/nr7X7+ntiMa5Hd4AT+489sxnbR+ofNed7I4I2l+SSqvdtpuN8ZK0W2Vgd9dKRLXEbNI+F57HVyayHGoklp+G5E/4J/VAMEJ5bT8ehk1HNYAv9IpexOsaFs6UUsD3CleRbX32q9voIbrAvjxb7w6Zz1xi7adK8xA+Ez1Kaq7v50jUZ1HGY7Oob8TvdhQd6u69Auc97pVpCsgc4BivCrk1ZzVdp986liYQY57I/i9Jp8Dhc5YlshZ+zpTkIHodPXhPwxl1WnZV8f/Q7m4BL/18u3M6miL4PQZFdtbhTwqWOvO6sfX4vEJBTlOsbn1k5Xbuu8x+e+TkGNloa0FVZawwUD87cRGwVpzXj++6lL8YuxsxY05Ncji+rxiHSm02rKIZ+1rdREF5PiNvEuFskeVQV1eUcyjCnKHNM9V55eFwTxl3lPz5QIatNKsxbWSvIEUj6nWCdY6Q/vxz3ouFMpcmOB7gfC2EJrf2v9JxT5NaJ1ZC2gd8RxC/Ev7swQe1lvrK9vvEeWaL4TayXKom+fZyolGrTCr8K0gO4QEq394VrtEuE14U7DWVXU//hrtMoFzL/4j+qCxjzb6cFSqOr81HhrxePFcAe34CebKLOTrAMIWC4lpiRfaZ6YclgrzhJ0FeCPajEkwCaswHuwvFJggx5YMyI1rLno2T8bhD8knhLJcH1SMqwQ+bFOEKgyumwT+7SvnjYw3k5Sj83KBOpKY9ROTJLkx6Onqx7IjK9fYfgjOOSO2p/CMEBsrlR+c4IbBFc6pcvXioj1jkMR6SYq2SZIbghYtlSribW1/UVwGb1nsr33st8ZI3Q8us4R+g3MdHPlmYCwqN6tolSc2BlylflaOsf0eUo6JIXwO1v5na+BQxB0OcMkyuFNDUYyy7SuzkpfdZyVVNk+sf1U3ZbPq5LznSqHonGwv9anzSnWQK7nhkGfUQC3UNOhf1XvGonKzkqs8sTFgqntja5T/aCMHuk0RfiJ8KFg1K9uPXOQkt9WoidrK5s7yZywqt6xEWfsqT2wMyDPNLD6x+zYo3mIh9qr+BPmuE2LzW/3IQa4YozZq3CBY81n6MRaVmyUxfZqy85XYyjGvH+dIZwhFX7eWOnmstUTg1kRezpg2YhK7ikdn1ErNVZ0fMhaVm1WkyhMbAzIQqwUrz/5+T8vvaoFFCCkMbguEe4T3hf7cIa/xJQaxqph4CvMxQwO0QJMQbr2+jEESbr0ERVvlb8y44bxM4IbuMJ6sTnlUWC6cI8wW6rTdlGyRsELgHGyLMIwrbfShLz741mlog0ZohWZoN4wrmqN90JMSzgGsRmKLhcS0xIvpgwjcithJ4I+EADdJX5jcatMaQy9uGPP0Y9dJVm9oy79QfUWw6j7pmnyzozLsK7DlSAfeErjxzRE6yEImi1WIkJhBZL3z6Cmw7eiV5BV1SQGfgF0arRHk6hNwBAe1SyVx/8ctXIGZcjlPmCdwzvuIcIOwQWiDTYhEjx981grwe443XTUuQizoan1W3qeoI1d9g1qwb5E1SMJ+CxU7ix93AViW1VkbFHzY+84WaCBetOTrPcU4whAnVZfDFfhdYdjY0Oa/jpVK/Rri3pEzuL1Bv70GHsNSrDLwu2uYc9v39wQu2ra9jlh+h8rRssLFfx0rVuECP+v6sSkFcbrafKeIF334eu3XN1DkdQH87m6AX+mUrxsLbPIcqHSRQwKcaay9NwH5sB42JFaK3RydQxc5LE5BJGXMvyh4T+C87bUpSTQQ+wDlfNVYe78u98mnjseS5Lg3gh8LCw4UOmO/EtN+gYe95pM4vzNV5ROdrmYesg+rtWj/JfnhK2m9uAS/9fLdoxIWNQQ5K6BQLvd/KOxSA69UKfZWYJYgFU2yvHY+jMenIqi4xwnc+snjUNT2mPz3ERqxkK8Ilgu9JEwNYIo4Twusa6vCblKQm6sIVBCDRZnccvl0QT9LM+fOTMK/WjoH9Jmtvn8WOEqXNZapLRD4wLXabhS7ok9UqvaHlTtosWOEkqxtu1Qoe1QZ1IB1fUdF8BnmMlcNLwuDecq8p+bLBTRore0vZu8IZQqN8eWr7LOJVTlV8dclrA3dLhRCvnXUfSvD9wLhbSFGR4vPk4p9mtBa+7GYWQqpss+KRGpwOsG57doaa2LhQsxF2skN8DxbOUNOudQ9vXGIfkCocoLlxfpQuTjfqcJY/cN9yiXCbcKbQl7ulG1PKfdlwpHCDsKgsY82+nBUSsklLzYa8XjxXAHtKj0Niv062F1E/iRwAzS1PaQExwYkmam+S4V5ws4C4iLajEkwCaswrvQXCkyQEH5ZuT/Qzo3C5slGLvgmhLJcH1SMqwQ+bFU9oYLrJuElgfNG5hCTlG+R5QJ11GJ7KAuTI+/TU0UbA2y109WRZUdV5M2LgeCcM2J7Cs8Ief2baIMT3DC4wjk1D7RnDGozviauEXgAn6q4E43VzFE/jkqpePTivqgcfDX2Gxdn7O/1aXoLl1n9BPUaznVwZAwYi1ptrrL9Xkgh/L7GSlYlyt9fE0f8iSF8+DPQZ2vg0M8n6zUc4JJlcK/jW2tlVvI69nFOuEx4WOD8IEug0H1TFcdiMc9rrVw477lSKDon20t96ryiHuRPbjjkGTVQCzUN+lf1nrEwWexFiCU4hfIkYTdhisVhSB8+sRbj3ph1slri9frwYfquwC8UWIxaOfH/npBS334uTJyfCpwv8xVosaPViYUjVd4g7+Xlnue03ptx2T6mQqv6BBNng7BYiJ1EJ8h3nVAlp6xY5CBXjFEbNW4QsmLH7mMsxs7OV8WxgvX7ccQ9Qyj6urUIzD3TJcJGoT9HFa+JSewqHp1RKzVTexXcGIuxMwZitRAj4NPyu1pgEUIKg9sC4R7hfSGGIz74EoNYVUw8hfmYoQFaoEkMT8YgFTeFbrdxw3mZsFkYJt5rantUWC6cI8wW6jTOiRcJKwTOK7cIw7jSRh/64oNvnYY2aIRWaIZ2w7iiOdozBmbjHGAUDRG4FbGTwD1KwE3SFya32rTGGANuGPP0Y9dJVm9oOxa/jjVZr29cAVfAFXAFXAFXwBVwBVwBV8AVcAVcAVfAFXAFXAFXwBVwBVwBV8AVGEEF/gdmWb8rEpz33AAAAABJRU5ErkJggg==;" vertex="1" parent="1">
          <mxGeometry x="923.21" y="752" width="38.79" height="40" as="geometry" />
        </mxCell>
        <mxCell id="FzzvjinRueu_OwRG8yQ0-80" value="&lt;span style=&quot;font-size: 14px;&quot;&gt;Marketing&amp;nbsp;&lt;/span&gt;&lt;span style=&quot;font-size: 14px;&quot;&gt;Prod Workspace&lt;/span&gt;" style="text;html=1;align=center;verticalAlign=middle;whiteSpace=wrap;rounded=0;" vertex="1" parent="1">
          <mxGeometry x="922" y="709" width="188" height="30" as="geometry" />
        </mxCell>
        <mxCell id="FzzvjinRueu_OwRG8yQ0-81" value="" style="shape=image;verticalLabelPosition=bottom;labelBackgroundColor=default;verticalAlign=top;aspect=fixed;imageAspect=0;image=data:image/png,iVBORw0KGgoAAAANSUhEUgAAAKAAAAClCAYAAADbAvaeAAAEDmlDQ1BrQ0dDb2xvclNwYWNlR2VuZXJpY1JHQgAAOI2NVV1oHFUUPpu5syskzoPUpqaSDv41lLRsUtGE2uj+ZbNt3CyTbLRBkMns3Z1pJjPj/KRpKT4UQRDBqOCT4P9bwSchaqvtiy2itFCiBIMo+ND6R6HSFwnruTOzu5O4a73L3PnmnO9+595z7t4LkLgsW5beJQIsGq4t5dPis8fmxMQ6dMF90A190C0rjpUqlSYBG+PCv9rt7yDG3tf2t/f/Z+uuUEcBiN2F2Kw4yiLiZQD+FcWyXYAEQfvICddi+AnEO2ycIOISw7UAVxieD/Cyz5mRMohfRSwoqoz+xNuIB+cj9loEB3Pw2448NaitKSLLRck2q5pOI9O9g/t/tkXda8Tbg0+PszB9FN8DuPaXKnKW4YcQn1Xk3HSIry5ps8UQ/2W5aQnxIwBdu7yFcgrxPsRjVXu8HOh0qao30cArp9SZZxDfg3h1wTzKxu5E/LUxX5wKdX5SnAzmDx4A4OIqLbB69yMesE1pKojLjVdoNsfyiPi45hZmAn3uLWdpOtfQOaVmikEs7ovj8hFWpz7EV6mel0L9Xy23FMYlPYZenAx0yDB1/PX6dledmQjikjkXCxqMJS9WtfFCyH9XtSekEF+2dH+P4tzITduTygGfv58a5VCTH5PtXD7EFZiNyUDBhHnsFTBgE0SQIA9pfFtgo6cKGuhooeilaKH41eDs38Ip+f4At1Rq/sjr6NEwQqb/I/DQqsLvaFUjvAx+eWirddAJZnAj1DFJL0mSg/gcIpPkMBkhoyCSJ8lTZIxk0TpKDjXHliJzZPO50dR5ASNSnzeLvIvod0HG/mdkmOC0z8VKnzcQ2M/Yz2vKldduXjp9bleLu0ZWn7vWc+l0JGcaai10yNrUnXLP/8Jf59ewX+c3Wgz+B34Df+vbVrc16zTMVgp9um9bxEfzPU5kPqUtVWxhs6OiWTVW+gIfywB9uXi7CGcGW/zk98k/kmvJ95IfJn/j3uQ+4c5zn3Kfcd+AyF3gLnJfcl9xH3OfR2rUee80a+6vo7EK5mmXUdyfQlrYLTwoZIU9wsPCZEtP6BWGhAlhL3p2N6sTjRdduwbHsG9kq32sgBepc+xurLPW4T9URpYGJ3ym4+8zA05u44QjST8ZIoVtu3qE7fWmdn5LPdqvgcZz8Ww8BWJ8X3w0PhQ/wnCDGd+LvlHs8dRy6bLLDuKMaZ20tZrqisPJ5ONiCq8yKhYM5cCgKOu66Lsc0aYOtZdo5QCwezI4wm9J/v0X23mlZXOfBjj8Jzv3WrY5D+CsA9D7aMs2gGfjve8ArD6mePZSeCfEYt8CONWDw8FXTxrPqx/r9Vt4biXeANh8vV7/+/16ffMD1N8AuKD/A/8leAvFY9bLAAAAOGVYSWZNTQAqAAAACAABh2kABAAAAAEAAAAaAAAAAAACoAIABAAAAAEAAACgoAMABAAAAAEAAAClAAAAAEzEtMMAAAybSURBVHgB7V1NyCTVFZ0x45j/iJKJGIVPnGHUlSFmRFEREZUEBHHjKhmYkE1MQCGbuBmDusmggSgGx01EsjILoxAyDoKbIZDxZysy8Vv4A+JvHH9GR5NzZrq/9DRVXedVvffqVdW5cL+vu+q+e84979Ld1fWqetMmmxWwAlbAClgBK2AFrIAVsAJWwApYAStgBayAFbACVsAKWAErYAWsgBWwAlbACoxNgc0DK+ir4PutGecP8f/TgfFPRXewupTagFswUz+CXwf/IXwn/EL4GfBFO4YnR+Avw5+HPwv/F/w4fIxmXRLP6hXI/yf4u/D/tnSOZQ7mGotZl8Qz+WPkPwRv23R145iTuYdq1iXxzPGt9SC8roFibScGsYZi1iXDTN0JjGPwWE3WlIdYxCzdrEviGeJR7N/gTQ2Taj+x50fSiUsNSm9dguRqF7wNw3i0mqq51LzkQC6lmHXJMBPfBcbLcLVJUseRCzn1bdYlwwx8ExiH4ambKjQ/OZFbX2ZdMin/BHBCm6Mqnmc+3pp5rAMYcuvLrEsG5X8JjKpmUra9jbEPw2+Bnw9fPHPDx9zGfYxhrJKzKoYcc5t1yaD4GjA+hldN+qpt6xizB74VrhpjOWYdvip31T5yXIPnsjUAWZcMaj8JjKoJr9v2JeL3wb/WgdvXZzmYqw6naju55jLrkkHpq4BRNdF12z5C/M0ReTEXc9bhVW0n59RmXVIrPMv/d/yvmuSqbXw7ujoBL+YMeasj59RmXVIrjPwXw6sarW7brQk5MXcdbtV2ck9l1iWVskt578Pzqsmt2vbg0tgUTx8K4EPuqcy6pFJ2Ke86nlc12/K2NxH37aWxKZ4Sg1jL+FXP11MQmOVk7irM5W1T0yWq5DtEkSn6HVGRVycj1vJE1z3fvjpVq73WpZVs4YN+gSF1E7u4nQcHOVelEEs9IGENsc26VCh6WsW2rpt+ICZ4GnG8sCiXEYuYiqk1KLnmMWrOSemSogF3zhVv+M9VyrlNxVRrCOGv5lQ5hmA3xaqYag1NeBv7UzTgBRvZVz94cfXuJHtVTLWGEJJqTpVjCHZTrIqp1tCEl3T/u8i++Fmv7vHZSVlUJydmHZ/F7awhtlmX2IrW5PsM2xcns+7x6TXjU24mZh2fxe2sIbZZlwpFU7wFcyIVS4HdhKtiqjU04S3uV3OqHBdzd32sYqo1yHxUYDkhAo+KwWeJcTHDVEy1hhBuak6VYwh2U6yKqdbQhLexP0UDvrORffWDFF/2rkbctIlfBivGxa2xTc05KV1SNOARceYuF+Nihu0Sk/1bjAsJU3NOSpcUDcirzRS7SQmKHKNiqjWE0FNzqhxDsJtiVUy1hia8pPtvQ3Z+WG3yLxBzXlImpyYnFjGbeHE/a4ht1iW2ojX5vo/tyiQzhsvvcxmxVF6sIbZZl9iKrsjHe/Qpk83FAWsr8sTaRQx1IQK5pzLrsqRsis+AhHhiCafuKS8+egS+uS4gwnbmJgaxFFO5K7mWY9TcU9NlWafOz7chwzG48irImL3wVLYXiVUe5Ezuqcy6pFK2Iu+fsU2deMbdXpGj6ybmDOFAzqnNuqRWeJaf93T+HB7SAPciPsbHAuZgrhBsciXn1GZdUiu8kP+PeBzSBIx9Dn7RQo7QhxzLHKG45JrLrEsmpXkx0Gvw0GbgypH98EvgqjGWY9RVJ4ucyJFcc5l1mSm9OYPiNwKDF2O3xXoJYw/AD8N5mu99OO1MON/OLoPfAL8U3sbYiDwTQIycZl0yqv07YC2+4pT0mNz6MuuSSXm++v0FXlLjkQs5tX1lxtDOZl06S6gn2IrQp+ClNCG5kFPfZl0yzgCXxPNVp+8mJIctGetugrIuTQpF3M+3nd/C1ZUpMZuVmMTu820X8JVmXSplSbfxWqTmIs2YDbYqF7GIWbpdC4LWJdMsfQM498HVlSqrGqxuH3MTg1hDMeuSeaa4WPQP8P/A6xopdDtzMWfORa+Ai2rWJaqczcl4hmAP/Bn4Z/DQpuOYA3DmyHlmA3BJba4La7MuSaX+f3LebPx6uNqEjOWYsduodCnxaHC5gdiAig2hFqUONWYUupymVus4K5BCATdgClWdU1bADShL5cAUCrgBU6jqnLICbkBZqqICzxDZ8NdFizY3YNHTU0uut7tZ1TJqucMN2FK4noftEPHfE+N6C3MD9iZ9J+Bd4uhXxLjewtyAvUnfCXhUd7PqpESGweqpuAxUioDo+y5fRYiQk4Qb8FS19+Gpqsn3Th3qZ20UUMVuk3toY9ZAWF07+cIQivNnwCHM0kmOXGzxCFy9y9fjwymtbKZ+BTw5P3vxT9WCawbPOTnMf7sqoIreFafk8aF3+Xq05GKGxm3KDciPSKF3+TqOMduHNskl851qA7a9y9cDJU/mELlNrQG73OXrdUxwzh8B79xPWzpnKCcBv6Admm0F4Vh3+foSuX4G/3BoIpTOV30FnHrc3aVP5FD5Tb2xlPr5nd/ULsrK1s/KBEw5hnf54s2NbIkUmHJzNdX+GDQf0+f4RC3ULW3TJExxP7/ruwvut91uvSWNnmKDrar5Vah2jaScg6IosGoyprSPFxjdA1cXI0QR30n0E/BjbcajaIL74ee6GfpRYKyNtaouvtrxDmG74YM6swG+QTamI6jXgiovI5jLpnjm4gM4fwOFv0jO30M5BP8EPnobwlEUXykUG0ItSh2TivGK6ElNd3nFugHLm5NJMXIDTmq6yyvWDVjenEyKkRtwUtNdXrFuwPLmZFKM3ICTmu7yinUDljcnk2LkBpzUdJdX7FfKo3SCEVf4Xgn/Kfy6E1ua//CXMHlhzpuz/80jHGEFlhS4As/3w9+BrzpZv2ofxzIHc9msgKTATxD1T/iqxmqzjzmZ22YFKhW4GFufhbdprpAxxCCWzQqcUIArV34D57q3kEbqEkssYnrVDESYsvGnR5+Ed2mmLmOJTQ62CSqwDTW/BO/SQDHGkgO52CakAO9XzBW/MRooRg5y8T2UJ9KAvK7h+YKab97A5ERutpEr8FfUN5/0Lv95IPHWzGMdwJCbbcQK/Bq1tW26tzH2Yfgt8PPhi0ewfMxt3McYxrbF+RXG2kaowAWo6SN4aGOsY8weOO+fpxpjOWYdHopHjuRqG5kCT6OekGbgudx98C5X/3MsczBXCDa52kakwFWoJaQB+Cp0c8T6mSv01ZecbSNRgFf2qw3IX/+5OkHdzKn+shC5krNtBArwDu9q8zHu1oQ1M3cIF3K3DVyB34O/OukPZqj1oQA+5G4buAJHwF9pQC4ezXFelhjEUjiRu23ACnDZkzLRjLkjY53EUnl56VbGiYkN9XNxonlwkPM0GLHUAxLWYMugQIqLknaJvPm9G29NlsuIpX7Xp9aQi/tocVI04A5RrYNiXMwwFVOtISa3SeZK0YDqKa0Xe1BcxVRr6KEEQzYp8D4ClA/7ZzclSrCfmAo31mAbqAKfg7cyyX38ug8xFW6swZZBgRRvwV+IvFNgN0GrmMebEnl/HAXUCQlBU49szwpJGilWxTwaCc9pGhRI0YDvNWDOd2+fP8j4Xz26VWvISH2cUCka8BVRqsvFuJhh6vd7ag0xuU0yV4oG5NVmit2kBEWOUTHVGiLTc7oYCtyGJMqRJg9WzosBKOYgFjEVbqzBNlAFeK2tMsmM4dL5XEYslRdrsA1YgRfAXZlsLg5Yy1AnMYilcCJ328AVuBP8lclmzAH45oT1MjcxVD7kbhu4AueAP3+IT530vQnrZW6VBzmTu20ECjyKGtSJZ9ztCWpmzhAO5GwbiQL8ovk4PKQB7kV8jK+GmIO5QrDJtY8vxwFrS6XAA0gc0gSMfQ7e5co0jmWOUFxytY1MAV4M9AY8tBn4WWw//BK4aozlmJDPnnNer2NczssD1JpGH5fy6HMu3vV48A9427dW3kzyAPwwnFeszdfqnYnHF8Ivg98AvxTexngLjxvhB9sM9phhKHA3aM5fbUr7T262kSvAV9rH4aU1HznleBcY+fQOo7zTQfMpeClNSC7kZJuQAltQ62PwvpuQHMjFNkEF+JZ3Fzz0O8IYTUtMYvttFyJM3a6BAK/CYzSWkoNYxLRZgQ0FeDfTe+CfwpUmahPD3MQgls0KVCpwLrbeD+fFQG2arGoMczEnc9usgKQAz0bshj8Db/OqyDEcuxvuMxsQoXQr+cM43zKvhPNMx044z3p8Bz5vLF7++QGcZ0d4DQfPlByCfwK3WQErYAWsgBWwAlbAClgBK2AFrIAVsAJWwApYAStgBayAFbACVsAKWAErYAWsgBWwAj0p8D+bTrXJ/RLxDwAAAABJRU5ErkJggg==;" vertex="1" parent="1">
          <mxGeometry x="921" y="812" width="38.79" height="40" as="geometry" />
        </mxCell>
        <mxCell id="FzzvjinRueu_OwRG8yQ0-82" value="" style="shape=image;verticalLabelPosition=bottom;labelBackgroundColor=default;verticalAlign=top;aspect=fixed;imageAspect=0;image=data:image/png,iVBORw0KGgoAAAANSUhEUgAAAKAAAAClCAYAAADbAvaeAAAEDmlDQ1BrQ0dDb2xvclNwYWNlR2VuZXJpY1JHQgAAOI2NVV1oHFUUPpu5syskzoPUpqaSDv41lLRsUtGE2uj+ZbNt3CyTbLRBkMns3Z1pJjPj/KRpKT4UQRDBqOCT4P9bwSchaqvtiy2itFCiBIMo+ND6R6HSFwnruTOzu5O4a73L3PnmnO9+595z7t4LkLgsW5beJQIsGq4t5dPis8fmxMQ6dMF90A190C0rjpUqlSYBG+PCv9rt7yDG3tf2t/f/Z+uuUEcBiN2F2Kw4yiLiZQD+FcWyXYAEQfvICddi+AnEO2ycIOISw7UAVxieD/Cyz5mRMohfRSwoqoz+xNuIB+cj9loEB3Pw2448NaitKSLLRck2q5pOI9O9g/t/tkXda8Tbg0+PszB9FN8DuPaXKnKW4YcQn1Xk3HSIry5ps8UQ/2W5aQnxIwBdu7yFcgrxPsRjVXu8HOh0qao30cArp9SZZxDfg3h1wTzKxu5E/LUxX5wKdX5SnAzmDx4A4OIqLbB69yMesE1pKojLjVdoNsfyiPi45hZmAn3uLWdpOtfQOaVmikEs7ovj8hFWpz7EV6mel0L9Xy23FMYlPYZenAx0yDB1/PX6dledmQjikjkXCxqMJS9WtfFCyH9XtSekEF+2dH+P4tzITduTygGfv58a5VCTH5PtXD7EFZiNyUDBhHnsFTBgE0SQIA9pfFtgo6cKGuhooeilaKH41eDs38Ip+f4At1Rq/sjr6NEwQqb/I/DQqsLvaFUjvAx+eWirddAJZnAj1DFJL0mSg/gcIpPkMBkhoyCSJ8lTZIxk0TpKDjXHliJzZPO50dR5ASNSnzeLvIvod0HG/mdkmOC0z8VKnzcQ2M/Yz2vKldduXjp9bleLu0ZWn7vWc+l0JGcaai10yNrUnXLP/8Jf59ewX+c3Wgz+B34Df+vbVrc16zTMVgp9um9bxEfzPU5kPqUtVWxhs6OiWTVW+gIfywB9uXi7CGcGW/zk98k/kmvJ95IfJn/j3uQ+4c5zn3Kfcd+AyF3gLnJfcl9xH3OfR2rUee80a+6vo7EK5mmXUdyfQlrYLTwoZIU9wsPCZEtP6BWGhAlhL3p2N6sTjRdduwbHsG9kq32sgBepc+xurLPW4T9URpYGJ3ym4+8zA05u44QjST8ZIoVtu3qE7fWmdn5LPdqvgcZz8Ww8BWJ8X3w0PhQ/wnCDGd+LvlHs8dRy6bLLDuKMaZ20tZrqisPJ5ONiCq8yKhYM5cCgKOu66Lsc0aYOtZdo5QCwezI4wm9J/v0X23mlZXOfBjj8Jzv3WrY5D+CsA9D7aMs2gGfjve8ArD6mePZSeCfEYt8CONWDw8FXTxrPqx/r9Vt4biXeANh8vV7/+/16ffMD1N8AuKD/A/8leAvFY9bLAAAAOGVYSWZNTQAqAAAACAABh2kABAAAAAEAAAAaAAAAAAACoAIABAAAAAEAAACgoAMABAAAAAEAAAClAAAAAEzEtMMAAAYhSURBVHgB7d0xqxxlG8bxaNQiFgYURG0iUWKlgrFPK2glkhQBy/g5/A4pLQIpErATtBa0MhaiFhbhVCpiDAkkTUKM1wVbBNzZvebM3DNznvk/8HBed++5n53ffbnnPXuEc+wYCwEEEEAAAQQQQAABBBBAAAEEEEAAAQQQQAABBBBAAAEEEEAAAQQQQAABBBBAAAEEEEAAAQQQQAABBBBAAAEEEEAAAQQQQAABBBBAAAEEEEAAAQQQQAABBBBAAAEEEEBAAk8VKbjv69qntU9uzrijrze1D7Qfbx7jy7IEjvTcnpblR9rXtG9pO2Tbtp9zjWt9DWtegSbm9okMf9PeFrhdj/kaX8uaR+DIz+1FuX2lvStkyXPu4V6saQSamNubsjrQTgKW1LiXe7JqBZqYm3/A+EM7CVafGvd0b1aNQBNzOyGbX7X7BKtPrXv7DNa4As3M7bJc+gTqMLU+gzWuQBNze1cmj7QPE6o+1/gMn8UaR6CZuX0pjz5BGlLrs1jjCCx2bv7kO10vq/B37ePpBZv6G5v6s/r6Wo9r/S7o+r96XEPp/wWamdtnurf0He22as9rPxlw/28/5ufSPpdUyxom0Mzc/OuzJDj3VffODjM/55qkl89kDRNoZm6/yCEJzeeBl2uSXj6TNUygmbndlUMSmrcCL9ckvXwma5jAouf25P9H23eb/qEg+a9XnlPdwz3NntXzD/bU+Ol/tT8N6ijpFriip+aYW/TDap8A+h0rWWnPtF9yJjXDBcaeW9Qv+Tdj+K3RAYEOAQLYAcPD0wgQwGmcOaVDgAB2wPDwNAIEcBpnTukQIIAdMDw8jQABnMaZUzoECGAHDA9PI/DMNMcMOuXqoKu5+OKSCaJPqzc3kP7mIu05dr8lO8/52sZ2HrUf34LnjAZnR7+khgmBMgHeActoaZwIEMBEiZoyAQJYRkvjRIAAJkrUlAkQwDJaGicCBDBRoqZMgACW0dI4ESCAiRI1ZQIEsIyWxokAAUyUqCkTIIBltDROBAhgokRNmQABLKOlcSJAABMlasoECGAZLY0TAQKYKFFTJkAAy2hpnAgQwESJmjIBAlhGS+NEgAAmStSUCRDAMloaJwIEMFGipkyAAJbR0jgRIICJEjVlAgSwjJbGiQABTJSoKRMggGW0NE4ECGCiRE2ZAAEso6VxIkAAEyVqygQIYBktjRMBApgoUVMmQADLaGmcCBDARImaMgECWEZL40SAACZK1JQJEMAyWhonAgQwUaKmTIAAltHSOBEggIkSNWUCBLCMlsaJAAFMlKgpEyCAZbQ0TgQIYKJETZkAASyjpXEiQAATJWrKBI7CX0xf9F/8LpvMShqnf93cHKP+pewe/VYyitlvM83CqDngW/Dsc1/3CyCA657/7HdPAGcfwbpfAAFc9/xnv3sCOPsI1v0CCOC65z/73RPA2Uew7hdAANc9/9nvvuI3If5Ac9+HlemHnga6OrvS0X4B6W+Sxp7b6Gr31NHB2rdfCU52zb4+ft5nsoYJLHpufb4F/x06fBDUJTVuk54ZHLnaktQwmUlSUza3r9U5edc6UN0LO8bt51yT9PKZrGECi55bn3fA70OHU6r7RvvVLfV+zM+d2vLctoe+2/Ygj/USWPTc+vww8LZu+6cet35ftde1f9hc876+ntd+fvPPyRef+XNSSE2nQFNzu6HbTL51jlHjs1jjCDQzt4/lMUa4kh4+izWOQFNz+1YmSYCG1PgM1rgCzcztDbnc1R4SsF3Xuvfpce3pJoGm5vahbuih9q4gHeY593RvVo1AU3O7IKMH2ocJ2rZr3Ms9WbUCTc3tnKz+1N4WqD6PuYd7saYROKdjmpnbS7qZL7QfafcJnWt9ja91D9a0As3N7Yz8Lmv/o70viK5xra9hzSsw69z6/CYkZTquwve0z2r7p9mT2l53tG9q+0PRH7X97sdajgBzW84seCUIIIAAAggggAACCCCAAAIIIIAAAggggAACCCCAAAIIIIAAAggggAACCCCAAAIIIIAAAggggAACCCCAAAIIIIAAAggggAACCCCAAAIIIIAAAggggAACCCCAAAIIIIAAAggggMB6BP4D8oE4pVcI2JkAAAAASUVORK5CYII=;" vertex="1" parent="1">
          <mxGeometry x="988" y="747" width="48.48" height="50" as="geometry" />
        </mxCell>
        <mxCell id="FzzvjinRueu_OwRG8yQ0-83" value="&lt;font style=&quot;font-size: 14px;&quot;&gt;Items&lt;/font&gt;" style="text;html=1;align=center;verticalAlign=middle;whiteSpace=wrap;rounded=0;" vertex="1" parent="1">
          <mxGeometry x="982.24" y="807" width="60" height="30" as="geometry" />
        </mxCell>
        <mxCell id="FzzvjinRueu_OwRG8yQ0-84" value="" style="shape=image;verticalLabelPosition=bottom;labelBackgroundColor=default;verticalAlign=top;aspect=fixed;imageAspect=0;image=data:image/png,iVBORw0KGgoAAAANSUhEUgAAAKAAAAClCAYAAADbAvaeAAAEDmlDQ1BrQ0dDb2xvclNwYWNlR2VuZXJpY1JHQgAAOI2NVV1oHFUUPpu5syskzoPUpqaSDv41lLRsUtGE2uj+ZbNt3CyTbLRBkMns3Z1pJjPj/KRpKT4UQRDBqOCT4P9bwSchaqvtiy2itFCiBIMo+ND6R6HSFwnruTOzu5O4a73L3PnmnO9+595z7t4LkLgsW5beJQIsGq4t5dPis8fmxMQ6dMF90A190C0rjpUqlSYBG+PCv9rt7yDG3tf2t/f/Z+uuUEcBiN2F2Kw4yiLiZQD+FcWyXYAEQfvICddi+AnEO2ycIOISw7UAVxieD/Cyz5mRMohfRSwoqoz+xNuIB+cj9loEB3Pw2448NaitKSLLRck2q5pOI9O9g/t/tkXda8Tbg0+PszB9FN8DuPaXKnKW4YcQn1Xk3HSIry5ps8UQ/2W5aQnxIwBdu7yFcgrxPsRjVXu8HOh0qao30cArp9SZZxDfg3h1wTzKxu5E/LUxX5wKdX5SnAzmDx4A4OIqLbB69yMesE1pKojLjVdoNsfyiPi45hZmAn3uLWdpOtfQOaVmikEs7ovj8hFWpz7EV6mel0L9Xy23FMYlPYZenAx0yDB1/PX6dledmQjikjkXCxqMJS9WtfFCyH9XtSekEF+2dH+P4tzITduTygGfv58a5VCTH5PtXD7EFZiNyUDBhHnsFTBgE0SQIA9pfFtgo6cKGuhooeilaKH41eDs38Ip+f4At1Rq/sjr6NEwQqb/I/DQqsLvaFUjvAx+eWirddAJZnAj1DFJL0mSg/gcIpPkMBkhoyCSJ8lTZIxk0TpKDjXHliJzZPO50dR5ASNSnzeLvIvod0HG/mdkmOC0z8VKnzcQ2M/Yz2vKldduXjp9bleLu0ZWn7vWc+l0JGcaai10yNrUnXLP/8Jf59ewX+c3Wgz+B34Df+vbVrc16zTMVgp9um9bxEfzPU5kPqUtVWxhs6OiWTVW+gIfywB9uXi7CGcGW/zk98k/kmvJ95IfJn/j3uQ+4c5zn3Kfcd+AyF3gLnJfcl9xH3OfR2rUee80a+6vo7EK5mmXUdyfQlrYLTwoZIU9wsPCZEtP6BWGhAlhL3p2N6sTjRdduwbHsG9kq32sgBepc+xurLPW4T9URpYGJ3ym4+8zA05u44QjST8ZIoVtu3qE7fWmdn5LPdqvgcZz8Ww8BWJ8X3w0PhQ/wnCDGd+LvlHs8dRy6bLLDuKMaZ20tZrqisPJ5ONiCq8yKhYM5cCgKOu66Lsc0aYOtZdo5QCwezI4wm9J/v0X23mlZXOfBjj8Jzv3WrY5D+CsA9D7aMs2gGfjve8ArD6mePZSeCfEYt8CONWDw8FXTxrPqx/r9Vt4biXeANh8vV7/+/16ffMD1N8AuKD/A/8leAvFY9bLAAAAOGVYSWZNTQAqAAAACAABh2kABAAAAAEAAAAaAAAAAAACoAIABAAAAAEAAACgoAMABAAAAAEAAAClAAAAAEzEtMMAAAwxSURBVHgB7V1JyCVXFW6NRgMKaY0GJaKi4iKINIkGJAFBjbjSiC4cGhoCjiAIEYOQRRyg3ThsJe5EgqAoLhQ0IgGjaGtcqSTKTwiJgkPSC6cYh+/r9DVF/beqzj237lCvvgPnr6p7z/id896rV3XrfydOiISAEBACQkAICAEhIASEgBAQAkJACAgBISAEhIAQEAJCQAgIASEgBISAEBACQkAICAEhIASEgBAQAkTgsossNJwIPMWpt0e1FyLpt4JfDz4FfjH4UjDpMfAD4HvBPwR/C/wwWCQEshF4DSx8E/w4+L9Gpix1qCsSAi4EroDWV8DWppuSow3aEgkBMwKvg+RD4KmmSh2nLdoUCYFFBN4LiX+CU5tsSZ42Ty96l8BuEeAXstvBS42UO08f9CUSAv9H4JnYuxOc21xWffqiT5EQOPF8YPBjsLV51pKjT/oW7RiBq5H7EXitpkq1Q9+MQbRDBG5EzufBqU0zlOcFaPJwLHWfMTAW0Y4Q+BByTbmwPGyqR6B7G/gVYH6ZIHOfY5wbylr3GQtjEh04Ak9Ffp8HWxtjLHcPdK+awYhzlBnrWY8ZG2MUHSACz0JO3wZbm2EsZ/3mym+3lB3rW48ZI2MVHRACfGf6JdjaBGO5z0A35dodZakztmM9Zqxz77SYFm0FgWsQ6MNga/GHcrl3L3jnw3tXhTEzdtGGEbgJsf8VPGwq6/6foHfDCrnTBm1Z/Q7lGDtzEG0QgVsQ83/Aw4Ja938DvZetmDNt0abV/1COOTAX0UYQeDrivAM8LGLK/g+ge7JArrRJ2ymxDGWZE3MTdYzA5YjtLvCwcCn7pYuc++JgbiVeHB2XdDuh5X7M3VoxVfrq5fSgYtqH6+p6pJZzov/2BtDQZ84XJOYs6gCB04gh51LHtQ1zoO9Wl4gapn0Yrnmx93ZwyjneULaXi71XIYeci+TEgFiIKiJwaLe7eOutxm3CiiU6XFe5C0i/CGh6vOHPmBjb8F06ZV8LXCv0fM4C0scR3wcrxJjrgjEy1pTmC7JH0NMC19wKTOjfiPHz4AB2ypZ6b56w2+MwY83JlViJVkSA7wr/Aqc0XZA9gt4W3xVy3u2J1Rbe7RFm38Tzos+BQzOlbrd+XpR7vkvsejzf7bvrLkanb4ZPAHFo3/g30Xy518Y+jSwP6doYc2FOqZ8AQb6Xa56baL6WC0h7Byj3ro8WuC5U+CbM59wfvWHB/iFMM8ec+97EWBRB4GMY0wqRCDCRodyVP8RadBGB3DVypRaQ9l6gkwhQC1wzq9T7AtLM9Iqr575470KEbORdUu7HyMd3iVo8aWKh05c4NtHR6zGacyLdYgFpNJGOBrXA1ViM3EsJLReQGlNsJqYFrjPQ82LqJ8Hh4mjqVhdTZ8AdTOVexGeNDuki/gVodDtp0CEVdnUbcwBy7g31L8CWbqgPADXuEjNil/pJE+S3vpDjAkw5S4q4KFNLii7AmPVntwtc97SANKtDKijvboHrHheQVuijLBc5n0abWuD6WcAUziNStwdx3pHVJmWVc8/Hz5YNL996zknvnXDPb8uisgjkXpFgjbukjyCq1He8IP8p6B7ctacuq/REUMSamAf8U7esdVf0akTj+bmC3P9A2hUIGwzGe1eKtWbNuyC+ms6BU19FvBfMxZWitgiwBp778j+DXhefWu9EIKnNt/Z/IG1bwu17965MYu2b0z2IIKUB97qAtHmhFgLwLHBl7ZvSK+E9pfm+DHn9m9mmJZt1ztqwRik1ZQ80o4/CszXYLzWLUo5TEWCtrHVlDzSjr8OzJdD7IHdpsyjlOBWBZ0CBNbPUlj3QjKw/PfCBZhHKsRcB3k61NOCvvQ7W0HvUGORL13AmG1URYM0sDcgecFPudZx/w7NlrR4/fnlDW7QdBPiF5DFDuHwY6hKDXFQktwH5CrFQrh+LD8msj0Dx+lrevdZPSxaFwEUE1IBqhaYIqAGbwi/nakD1QFME1IBN4ZfzQ2xAPhNbi3jHoOYdnpq51cIwy4/lQqX1q7w3EDbAh8E/Av8DTH/c8pjjazfIq2CTN+wfAof8uc8xzq1JtXMbxx7yW9qO9aodLwUW5ksFxILfDw5+YlvOr9EY/LQ4C+bF95gfjnGOMmt8stTMDSFHaSrP8XhUucbgOJCp4xKx8DHD8+Apn8NxylE+h+6A8tDm3D5lc6h2blOxzuU4nJvSLz4+DGJuf+1AngaDvAk+53M89yvIU89D74HS2N7SMXU8VDu3uRiXcgzzczaKzoUAlrZrB3EGBpd8xuapl0q8jXgEjtmbG6OO5xbkGYcvxkG9tWkuv+Hc2n7N9oZBzO2bDRoFvwO5OX9Tc9RLpeugMGVvaZy6qVQzt6XYlvIL80t2JufXOFmeNF5w4pTTtkfPoxPC8+h6dOjPqxdibbLdagOedKLl0fPohPA8uh4d+vPqhVibbLfagH90ouXR8+iE8Dy6Hh368+qFWJtst9qAP3Gi5dHz6ITwPLoeHfrz6oVYN7kNJ6FL27WTexsMLvmMzVPPQ/dCKWZvbow6Hqqd21yMc/kN5+ZsFJ0bBjG3XyKIu2F0zud4jvJeeiMUU36Hg7LU8VLN3OZiHGM4dTxno+jcVEDj8RJBvABGHwCPfcWOKUf5HPoElGO2Y2OUzaHauU3FGsstNjalX3w8FkxsrFQgV8Lw98Exn2GM85Rbg26GkfPgYHu85Rxl1qDaucViHuc3dRzTNY15rtQPDTMgC+X6WfLxJgi8G8wfanku+M/gc+Cvgr8HXpOugDE22VvALwGTjsDfBXNFDP/T1JpUM7dx3MXrm9sYxQMcI6LjqggUr+9WL8NUrYKclUNADVgOW1k2IKAGNIAkkXIIqAHLYSvLBgTUgAaQJFIOATVgOWxl2YCAGtAAkkTKIaAGLIetLBsQOMQGrPnwth5MNzRZSRFeKbdwyRhqP7zN53V5y00Ppj9Z+5L1nbVtaT7r7ZxZRxOTNR/e5qfFWbAeTH+y8UL9J8pTfjgEsLQtEcnVMDq3MmUYE+Uon0N6MP144wWMc3DN0g0BLG2znESUaz+8rQfTp5uPtW9GS40X5tcO8AwMBtspW+qlElcMHYFT/FCWOp7VRmccvuiPemuTNee1/ZrttQqw5sPb1wENa55jOeqmUs3clmIb5zN1vGRncn6rl2FOTWY0P+HR8+iEKDy6Hh368+qFWJtst9qAJ51oefQ8OiE8j65Hh/68eiHWJtutNqD3IWyPnkcnFNOj69GhP69eiLXJdqsN6H0I26Pn0QnF9Oh6dOjPqxdi3eR26qR0PL52crUf3taD6fNfxNaur9neuNGmjs0GEwTvhuyUv9g45b2kB9Pnsfbimq0XK3RsLNtRxEDth7f1YPp0E0bKU2co1myxsVLRXAnDejC9FLrTDTeusTsCz5X6oTMGYqFcP0s+aj68rQfTj1fDXV+34sUYemnA45BoZA0Eitd3q5dh1gBXNjpAQA3YQRH2HIIacM/V7yB3NWAHRdhzCGrAPVe/g9zVgB0UYc8hqAH3XP0OclcDdlCEPYegBtxz9TvIXQ3YQRH2HIIacM/V7yB3NWAHRdhzCLUaMHfRw55r1Cr3KjXLbcC/GdHhb3eItoWAtWbWHohmn9uAf4laPT7oeUD7uBWN1ETAWjNrD0Rjz23A+6NWjw++7/iQRjpH4P3G+O4zyhUROwur4+XZU8fvKBKBjJZAgLWaquN4nD3QjN4Az+OApo55rvCuZpHKsRUB1oi1mqrjeJw94KbcbzqXwPODYD6hZiU+RMT/MPpzMM8fmJCoHQLsgeeArwHfDE75nePfQ/5FYP7TzmZ0GzyPXxU63gcmrH0W5b4D0vnl4N+CrV/bqSPaPgL8SdyXgx/NSSX3WzB9M4Bbc4KQ7iYRYM2zmm/trL8Bg/ro3QcGrHV39GxE9AuwmvCwMWCNWesu6XmIit9u1YSHiQFryxp3TXx1fA2sJjwsDFjTbt/5Yq+I0xj8gxpx8y9E1pC13CTxd9tuAf8OrHfEbWHAmrF2RX97b43rgIjRRK+FFK+yXwvm9SP+U+3LwDVjgDvRCAG+Mfwd/AiY13PPgXm36qdgkRAQAkJACAgBISAEhIAQEAJCQAgIASEgBISAEBACQkAICAEhIASEgBAQAkJACAgBISAEhIAQEAJCQAhsA4H/AWYGQHnjvZ0MAAAAAElFTkSuQmCC;" vertex="1" parent="1">
          <mxGeometry x="390" y="470" width="48.48" height="50" as="geometry" />
        </mxCell>
        <mxCell id="FzzvjinRueu_OwRG8yQ0-85" value="" style="shape=image;verticalLabelPosition=bottom;labelBackgroundColor=default;verticalAlign=top;aspect=fixed;imageAspect=0;image=data:image/png,iVBORw0KGgoAAAANSUhEUgAAAKAAAAClCAYAAADbAvaeAAAEDmlDQ1BrQ0dDb2xvclNwYWNlR2VuZXJpY1JHQgAAOI2NVV1oHFUUPpu5syskzoPUpqaSDv41lLRsUtGE2uj+ZbNt3CyTbLRBkMns3Z1pJjPj/KRpKT4UQRDBqOCT4P9bwSchaqvtiy2itFCiBIMo+ND6R6HSFwnruTOzu5O4a73L3PnmnO9+595z7t4LkLgsW5beJQIsGq4t5dPis8fmxMQ6dMF90A190C0rjpUqlSYBG+PCv9rt7yDG3tf2t/f/Z+uuUEcBiN2F2Kw4yiLiZQD+FcWyXYAEQfvICddi+AnEO2ycIOISw7UAVxieD/Cyz5mRMohfRSwoqoz+xNuIB+cj9loEB3Pw2448NaitKSLLRck2q5pOI9O9g/t/tkXda8Tbg0+PszB9FN8DuPaXKnKW4YcQn1Xk3HSIry5ps8UQ/2W5aQnxIwBdu7yFcgrxPsRjVXu8HOh0qao30cArp9SZZxDfg3h1wTzKxu5E/LUxX5wKdX5SnAzmDx4A4OIqLbB69yMesE1pKojLjVdoNsfyiPi45hZmAn3uLWdpOtfQOaVmikEs7ovj8hFWpz7EV6mel0L9Xy23FMYlPYZenAx0yDB1/PX6dledmQjikjkXCxqMJS9WtfFCyH9XtSekEF+2dH+P4tzITduTygGfv58a5VCTH5PtXD7EFZiNyUDBhHnsFTBgE0SQIA9pfFtgo6cKGuhooeilaKH41eDs38Ip+f4At1Rq/sjr6NEwQqb/I/DQqsLvaFUjvAx+eWirddAJZnAj1DFJL0mSg/gcIpPkMBkhoyCSJ8lTZIxk0TpKDjXHliJzZPO50dR5ASNSnzeLvIvod0HG/mdkmOC0z8VKnzcQ2M/Yz2vKldduXjp9bleLu0ZWn7vWc+l0JGcaai10yNrUnXLP/8Jf59ewX+c3Wgz+B34Df+vbVrc16zTMVgp9um9bxEfzPU5kPqUtVWxhs6OiWTVW+gIfywB9uXi7CGcGW/zk98k/kmvJ95IfJn/j3uQ+4c5zn3Kfcd+AyF3gLnJfcl9xH3OfR2rUee80a+6vo7EK5mmXUdyfQlrYLTwoZIU9wsPCZEtP6BWGhAlhL3p2N6sTjRdduwbHsG9kq32sgBepc+xurLPW4T9URpYGJ3ym4+8zA05u44QjST8ZIoVtu3qE7fWmdn5LPdqvgcZz8Ww8BWJ8X3w0PhQ/wnCDGd+LvlHs8dRy6bLLDuKMaZ20tZrqisPJ5ONiCq8yKhYM5cCgKOu66Lsc0aYOtZdo5QCwezI4wm9J/v0X23mlZXOfBjj8Jzv3WrY5D+CsA9D7aMs2gGfjve8ArD6mePZSeCfEYt8CONWDw8FXTxrPqx/r9Vt4biXeANh8vV7/+/16ffMD1N8AuKD/A/8leAvFY9bLAAAAOGVYSWZNTQAqAAAACAABh2kABAAAAAEAAAAaAAAAAAACoAIABAAAAAEAAACgoAMABAAAAAEAAAClAAAAAEzEtMMAAAwxSURBVHgB7V1JyCVXFW6NRgMKaY0GJaKi4iKINIkGJAFBjbjSiC4cGhoCjiAIEYOQRRyg3ThsJe5EgqAoLhQ0IgGjaGtcqSTKTwiJgkPSC6cYh+/r9DVF/beqzj237lCvvgPnr6p7z/id896rV3XrfydOiISAEBACQkAICAEhIASEgBAQAkJACAgBISAEhIAQEAJCQAgIASEgBISAEBACQkAICAEhIASEgBAQAkTgsossNJwIPMWpt0e1FyLpt4JfDz4FfjH4UjDpMfAD4HvBPwR/C/wwWCQEshF4DSx8E/w4+L9Gpix1qCsSAi4EroDWV8DWppuSow3aEgkBMwKvg+RD4KmmSh2nLdoUCYFFBN4LiX+CU5tsSZ42Ty96l8BuEeAXstvBS42UO08f9CUSAv9H4JnYuxOc21xWffqiT5EQOPF8YPBjsLV51pKjT/oW7RiBq5H7EXitpkq1Q9+MQbRDBG5EzufBqU0zlOcFaPJwLHWfMTAW0Y4Q+BByTbmwPGyqR6B7G/gVYH6ZIHOfY5wbylr3GQtjEh04Ak9Ffp8HWxtjLHcPdK+awYhzlBnrWY8ZG2MUHSACz0JO3wZbm2EsZ/3mym+3lB3rW48ZI2MVHRACfGf6JdjaBGO5z0A35dodZakztmM9Zqxz77SYFm0FgWsQ6MNga/GHcrl3L3jnw3tXhTEzdtGGEbgJsf8VPGwq6/6foHfDCrnTBm1Z/Q7lGDtzEG0QgVsQ83/Aw4Ja938DvZetmDNt0abV/1COOTAX0UYQeDrivAM8LGLK/g+ge7JArrRJ2ymxDGWZE3MTdYzA5YjtLvCwcCn7pYuc++JgbiVeHB2XdDuh5X7M3VoxVfrq5fSgYtqH6+p6pJZzov/2BtDQZ84XJOYs6gCB04gh51LHtQ1zoO9Wl4gapn0Yrnmx93ZwyjneULaXi71XIYeci+TEgFiIKiJwaLe7eOutxm3CiiU6XFe5C0i/CGh6vOHPmBjb8F06ZV8LXCv0fM4C0scR3wcrxJjrgjEy1pTmC7JH0NMC19wKTOjfiPHz4AB2ypZ6b56w2+MwY83JlViJVkSA7wr/Aqc0XZA9gt4W3xVy3u2J1Rbe7RFm38Tzos+BQzOlbrd+XpR7vkvsejzf7bvrLkanb4ZPAHFo3/g30Xy518Y+jSwP6doYc2FOqZ8AQb6Xa56baL6WC0h7Byj3ro8WuC5U+CbM59wfvWHB/iFMM8ec+97EWBRB4GMY0wqRCDCRodyVP8RadBGB3DVypRaQ9l6gkwhQC1wzq9T7AtLM9Iqr575470KEbORdUu7HyMd3iVo8aWKh05c4NtHR6zGacyLdYgFpNJGOBrXA1ViM3EsJLReQGlNsJqYFrjPQ82LqJ8Hh4mjqVhdTZ8AdTOVexGeNDuki/gVodDtp0CEVdnUbcwBy7g31L8CWbqgPADXuEjNil/pJE+S3vpDjAkw5S4q4KFNLii7AmPVntwtc97SANKtDKijvboHrHheQVuijLBc5n0abWuD6WcAUziNStwdx3pHVJmWVc8/Hz5YNL996zknvnXDPb8uisgjkXpFgjbukjyCq1He8IP8p6B7ctacuq/REUMSamAf8U7esdVf0akTj+bmC3P9A2hUIGwzGe1eKtWbNuyC+ms6BU19FvBfMxZWitgiwBp778j+DXhefWu9EIKnNt/Z/IG1bwu17965MYu2b0z2IIKUB97qAtHmhFgLwLHBl7ZvSK+E9pfm+DHn9m9mmJZt1ztqwRik1ZQ80o4/CszXYLzWLUo5TEWCtrHVlDzSjr8OzJdD7IHdpsyjlOBWBZ0CBNbPUlj3QjKw/PfCBZhHKsRcB3k61NOCvvQ7W0HvUGORL13AmG1URYM0sDcgecFPudZx/w7NlrR4/fnlDW7QdBPiF5DFDuHwY6hKDXFQktwH5CrFQrh+LD8msj0Dx+lrevdZPSxaFwEUE1IBqhaYIqAGbwi/nakD1QFME1IBN4ZfzQ2xAPhNbi3jHoOYdnpq51cIwy4/lQqX1q7w3EDbAh8E/Av8DTH/c8pjjazfIq2CTN+wfAof8uc8xzq1JtXMbxx7yW9qO9aodLwUW5ksFxILfDw5+YlvOr9EY/LQ4C+bF95gfjnGOMmt8stTMDSFHaSrP8XhUucbgOJCp4xKx8DHD8+Apn8NxylE+h+6A8tDm3D5lc6h2blOxzuU4nJvSLz4+DGJuf+1AngaDvAk+53M89yvIU89D74HS2N7SMXU8VDu3uRiXcgzzczaKzoUAlrZrB3EGBpd8xuapl0q8jXgEjtmbG6OO5xbkGYcvxkG9tWkuv+Hc2n7N9oZBzO2bDRoFvwO5OX9Tc9RLpeugMGVvaZy6qVQzt6XYlvIL80t2JufXOFmeNF5w4pTTtkfPoxPC8+h6dOjPqxdibbLdagOedKLl0fPohPA8uh4d+vPqhVibbLfagH90ouXR8+iE8Dy6Hh368+qFWJtst9qAP3Gi5dHz6ITwPLoeHfrz6oVYN7kNJ6FL27WTexsMLvmMzVPPQ/dCKWZvbow6Hqqd21yMc/kN5+ZsFJ0bBjG3XyKIu2F0zud4jvJeeiMUU36Hg7LU8VLN3OZiHGM4dTxno+jcVEDj8RJBvABGHwCPfcWOKUf5HPoElGO2Y2OUzaHauU3FGsstNjalX3w8FkxsrFQgV8Lw98Exn2GM85Rbg26GkfPgYHu85Rxl1qDaucViHuc3dRzTNY15rtQPDTMgC+X6WfLxJgi8G8wfanku+M/gc+Cvgr8HXpOugDE22VvALwGTjsDfBXNFDP/T1JpUM7dx3MXrm9sYxQMcI6LjqggUr+9WL8NUrYKclUNADVgOW1k2IKAGNIAkkXIIqAHLYSvLBgTUgAaQJFIOATVgOWxl2YCAGtAAkkTKIaAGLIetLBsQOMQGrPnwth5MNzRZSRFeKbdwyRhqP7zN53V5y00Ppj9Z+5L1nbVtaT7r7ZxZRxOTNR/e5qfFWbAeTH+y8UL9J8pTfjgEsLQtEcnVMDq3MmUYE+Uon0N6MP144wWMc3DN0g0BLG2znESUaz+8rQfTp5uPtW9GS40X5tcO8AwMBtspW+qlElcMHYFT/FCWOp7VRmccvuiPemuTNee1/ZrttQqw5sPb1wENa55jOeqmUs3clmIb5zN1vGRncn6rl2FOTWY0P+HR8+iEKDy6Hh368+qFWJtst9qAJ51oefQ8OiE8j65Hh/68eiHWJtutNqD3IWyPnkcnFNOj69GhP69eiLXJdqsN6H0I26Pn0QnF9Oh6dOjPqxdi3eR26qR0PL52crUf3taD6fNfxNaur9neuNGmjs0GEwTvhuyUv9g45b2kB9Pnsfbimq0XK3RsLNtRxEDth7f1YPp0E0bKU2co1myxsVLRXAnDejC9FLrTDTeusTsCz5X6oTMGYqFcP0s+aj68rQfTj1fDXV+34sUYemnA45BoZA0Eitd3q5dh1gBXNjpAQA3YQRH2HIIacM/V7yB3NWAHRdhzCGrAPVe/g9zVgB0UYc8hqAH3XP0OclcDdlCEPYegBtxz9TvIXQ3YQRH2HIIacM/V7yB3NWAHRdhzCLUaMHfRw55r1Cr3KjXLbcC/GdHhb3eItoWAtWbWHohmn9uAf4laPT7oeUD7uBWN1ETAWjNrD0Rjz23A+6NWjw++7/iQRjpH4P3G+O4zyhUROwur4+XZU8fvKBKBjJZAgLWaquN4nD3QjN4Az+OApo55rvCuZpHKsRUB1oi1mqrjeJw94KbcbzqXwPODYD6hZiU+RMT/MPpzMM8fmJCoHQLsgeeArwHfDE75nePfQ/5FYP7TzmZ0GzyPXxU63gcmrH0W5b4D0vnl4N+CrV/bqSPaPgL8SdyXgx/NSSX3WzB9M4Bbc4KQ7iYRYM2zmm/trL8Bg/ro3QcGrHV39GxE9AuwmvCwMWCNWesu6XmIit9u1YSHiQFryxp3TXx1fA2sJjwsDFjTbt/5Yq+I0xj8gxpx8y9E1pC13CTxd9tuAf8OrHfEbWHAmrF2RX97b43rgIjRRK+FFK+yXwvm9SP+U+3LwDVjgDvRCAG+Mfwd/AiY13PPgXm36qdgkRAQAkJACAgBISAEhIAQEAJCQAgIASEgBISAEBACQkAICAEhIASEgBAQAkJACAgBISAEhIAQEAJCQAhsA4H/AWYGQHnjvZ0MAAAAAElFTkSuQmCC;" vertex="1" parent="1">
          <mxGeometry x="720" y="475" width="48.48" height="50" as="geometry" />
        </mxCell>
        <mxCell id="FzzvjinRueu_OwRG8yQ0-86" value="" style="shape=image;verticalLabelPosition=bottom;labelBackgroundColor=default;verticalAlign=top;aspect=fixed;imageAspect=0;image=data:image/png,iVBORw0KGgoAAAANSUhEUgAAAKAAAAClCAYAAADbAvaeAAAEDmlDQ1BrQ0dDb2xvclNwYWNlR2VuZXJpY1JHQgAAOI2NVV1oHFUUPpu5syskzoPUpqaSDv41lLRsUtGE2uj+ZbNt3CyTbLRBkMns3Z1pJjPj/KRpKT4UQRDBqOCT4P9bwSchaqvtiy2itFCiBIMo+ND6R6HSFwnruTOzu5O4a73L3PnmnO9+595z7t4LkLgsW5beJQIsGq4t5dPis8fmxMQ6dMF90A190C0rjpUqlSYBG+PCv9rt7yDG3tf2t/f/Z+uuUEcBiN2F2Kw4yiLiZQD+FcWyXYAEQfvICddi+AnEO2ycIOISw7UAVxieD/Cyz5mRMohfRSwoqoz+xNuIB+cj9loEB3Pw2448NaitKSLLRck2q5pOI9O9g/t/tkXda8Tbg0+PszB9FN8DuPaXKnKW4YcQn1Xk3HSIry5ps8UQ/2W5aQnxIwBdu7yFcgrxPsRjVXu8HOh0qao30cArp9SZZxDfg3h1wTzKxu5E/LUxX5wKdX5SnAzmDx4A4OIqLbB69yMesE1pKojLjVdoNsfyiPi45hZmAn3uLWdpOtfQOaVmikEs7ovj8hFWpz7EV6mel0L9Xy23FMYlPYZenAx0yDB1/PX6dledmQjikjkXCxqMJS9WtfFCyH9XtSekEF+2dH+P4tzITduTygGfv58a5VCTH5PtXD7EFZiNyUDBhHnsFTBgE0SQIA9pfFtgo6cKGuhooeilaKH41eDs38Ip+f4At1Rq/sjr6NEwQqb/I/DQqsLvaFUjvAx+eWirddAJZnAj1DFJL0mSg/gcIpPkMBkhoyCSJ8lTZIxk0TpKDjXHliJzZPO50dR5ASNSnzeLvIvod0HG/mdkmOC0z8VKnzcQ2M/Yz2vKldduXjp9bleLu0ZWn7vWc+l0JGcaai10yNrUnXLP/8Jf59ewX+c3Wgz+B34Df+vbVrc16zTMVgp9um9bxEfzPU5kPqUtVWxhs6OiWTVW+gIfywB9uXi7CGcGW/zk98k/kmvJ95IfJn/j3uQ+4c5zn3Kfcd+AyF3gLnJfcl9xH3OfR2rUee80a+6vo7EK5mmXUdyfQlrYLTwoZIU9wsPCZEtP6BWGhAlhL3p2N6sTjRdduwbHsG9kq32sgBepc+xurLPW4T9URpYGJ3ym4+8zA05u44QjST8ZIoVtu3qE7fWmdn5LPdqvgcZz8Ww8BWJ8X3w0PhQ/wnCDGd+LvlHs8dRy6bLLDuKMaZ20tZrqisPJ5ONiCq8yKhYM5cCgKOu66Lsc0aYOtZdo5QCwezI4wm9J/v0X23mlZXOfBjj8Jzv3WrY5D+CsA9D7aMs2gGfjve8ArD6mePZSeCfEYt8CONWDw8FXTxrPqx/r9Vt4biXeANh8vV7/+/16ffMD1N8AuKD/A/8leAvFY9bLAAAAOGVYSWZNTQAqAAAACAABh2kABAAAAAEAAAAaAAAAAAACoAIABAAAAAEAAACgoAMABAAAAAEAAAClAAAAAEzEtMMAAAwxSURBVHgB7V1JyCVXFW6NRgMKaY0GJaKi4iKINIkGJAFBjbjSiC4cGhoCjiAIEYOQRRyg3ThsJe5EgqAoLhQ0IgGjaGtcqSTKTwiJgkPSC6cYh+/r9DVF/beqzj237lCvvgPnr6p7z/id896rV3XrfydOiISAEBACQkAICAEhIASEgBAQAkJACAgBISAEhIAQEAJCQAgIASEgBISAEBACQkAICAEhIASEgBAQAkTgsossNJwIPMWpt0e1FyLpt4JfDz4FfjH4UjDpMfAD4HvBPwR/C/wwWCQEshF4DSx8E/w4+L9Gpix1qCsSAi4EroDWV8DWppuSow3aEgkBMwKvg+RD4KmmSh2nLdoUCYFFBN4LiX+CU5tsSZ42Ty96l8BuEeAXstvBS42UO08f9CUSAv9H4JnYuxOc21xWffqiT5EQOPF8YPBjsLV51pKjT/oW7RiBq5H7EXitpkq1Q9+MQbRDBG5EzufBqU0zlOcFaPJwLHWfMTAW0Y4Q+BByTbmwPGyqR6B7G/gVYH6ZIHOfY5wbylr3GQtjEh04Ak9Ffp8HWxtjLHcPdK+awYhzlBnrWY8ZG2MUHSACz0JO3wZbm2EsZ/3mym+3lB3rW48ZI2MVHRACfGf6JdjaBGO5z0A35dodZakztmM9Zqxz77SYFm0FgWsQ6MNga/GHcrl3L3jnw3tXhTEzdtGGEbgJsf8VPGwq6/6foHfDCrnTBm1Z/Q7lGDtzEG0QgVsQ83/Aw4Ja938DvZetmDNt0abV/1COOTAX0UYQeDrivAM8LGLK/g+ge7JArrRJ2ymxDGWZE3MTdYzA5YjtLvCwcCn7pYuc++JgbiVeHB2XdDuh5X7M3VoxVfrq5fSgYtqH6+p6pJZzov/2BtDQZ84XJOYs6gCB04gh51LHtQ1zoO9Wl4gapn0Yrnmx93ZwyjneULaXi71XIYeci+TEgFiIKiJwaLe7eOutxm3CiiU6XFe5C0i/CGh6vOHPmBjb8F06ZV8LXCv0fM4C0scR3wcrxJjrgjEy1pTmC7JH0NMC19wKTOjfiPHz4AB2ypZ6b56w2+MwY83JlViJVkSA7wr/Aqc0XZA9gt4W3xVy3u2J1Rbe7RFm38Tzos+BQzOlbrd+XpR7vkvsejzf7bvrLkanb4ZPAHFo3/g30Xy518Y+jSwP6doYc2FOqZ8AQb6Xa56baL6WC0h7Byj3ro8WuC5U+CbM59wfvWHB/iFMM8ec+97EWBRB4GMY0wqRCDCRodyVP8RadBGB3DVypRaQ9l6gkwhQC1wzq9T7AtLM9Iqr575470KEbORdUu7HyMd3iVo8aWKh05c4NtHR6zGacyLdYgFpNJGOBrXA1ViM3EsJLReQGlNsJqYFrjPQ82LqJ8Hh4mjqVhdTZ8AdTOVexGeNDuki/gVodDtp0CEVdnUbcwBy7g31L8CWbqgPADXuEjNil/pJE+S3vpDjAkw5S4q4KFNLii7AmPVntwtc97SANKtDKijvboHrHheQVuijLBc5n0abWuD6WcAUziNStwdx3pHVJmWVc8/Hz5YNL996zknvnXDPb8uisgjkXpFgjbukjyCq1He8IP8p6B7ctacuq/REUMSamAf8U7esdVf0akTj+bmC3P9A2hUIGwzGe1eKtWbNuyC+ms6BU19FvBfMxZWitgiwBp778j+DXhefWu9EIKnNt/Z/IG1bwu17965MYu2b0z2IIKUB97qAtHmhFgLwLHBl7ZvSK+E9pfm+DHn9m9mmJZt1ztqwRik1ZQ80o4/CszXYLzWLUo5TEWCtrHVlDzSjr8OzJdD7IHdpsyjlOBWBZ0CBNbPUlj3QjKw/PfCBZhHKsRcB3k61NOCvvQ7W0HvUGORL13AmG1URYM0sDcgecFPudZx/w7NlrR4/fnlDW7QdBPiF5DFDuHwY6hKDXFQktwH5CrFQrh+LD8msj0Dx+lrevdZPSxaFwEUE1IBqhaYIqAGbwi/nakD1QFME1IBN4ZfzQ2xAPhNbi3jHoOYdnpq51cIwy4/lQqX1q7w3EDbAh8E/Av8DTH/c8pjjazfIq2CTN+wfAof8uc8xzq1JtXMbxx7yW9qO9aodLwUW5ksFxILfDw5+YlvOr9EY/LQ4C+bF95gfjnGOMmt8stTMDSFHaSrP8XhUucbgOJCp4xKx8DHD8+Apn8NxylE+h+6A8tDm3D5lc6h2blOxzuU4nJvSLz4+DGJuf+1AngaDvAk+53M89yvIU89D74HS2N7SMXU8VDu3uRiXcgzzczaKzoUAlrZrB3EGBpd8xuapl0q8jXgEjtmbG6OO5xbkGYcvxkG9tWkuv+Hc2n7N9oZBzO2bDRoFvwO5OX9Tc9RLpeugMGVvaZy6qVQzt6XYlvIL80t2JufXOFmeNF5w4pTTtkfPoxPC8+h6dOjPqxdibbLdagOedKLl0fPohPA8uh4d+vPqhVibbLfagH90ouXR8+iE8Dy6Hh368+qFWJtst9qAP3Gi5dHz6ITwPLoeHfrz6oVYN7kNJ6FL27WTexsMLvmMzVPPQ/dCKWZvbow6Hqqd21yMc/kN5+ZsFJ0bBjG3XyKIu2F0zud4jvJeeiMUU36Hg7LU8VLN3OZiHGM4dTxno+jcVEDj8RJBvABGHwCPfcWOKUf5HPoElGO2Y2OUzaHauU3FGsstNjalX3w8FkxsrFQgV8Lw98Exn2GM85Rbg26GkfPgYHu85Rxl1qDaucViHuc3dRzTNY15rtQPDTMgC+X6WfLxJgi8G8wfanku+M/gc+Cvgr8HXpOugDE22VvALwGTjsDfBXNFDP/T1JpUM7dx3MXrm9sYxQMcI6LjqggUr+9WL8NUrYKclUNADVgOW1k2IKAGNIAkkXIIqAHLYSvLBgTUgAaQJFIOATVgOWxl2YCAGtAAkkTKIaAGLIetLBsQOMQGrPnwth5MNzRZSRFeKbdwyRhqP7zN53V5y00Ppj9Z+5L1nbVtaT7r7ZxZRxOTNR/e5qfFWbAeTH+y8UL9J8pTfjgEsLQtEcnVMDq3MmUYE+Uon0N6MP144wWMc3DN0g0BLG2znESUaz+8rQfTp5uPtW9GS40X5tcO8AwMBtspW+qlElcMHYFT/FCWOp7VRmccvuiPemuTNee1/ZrttQqw5sPb1wENa55jOeqmUs3clmIb5zN1vGRncn6rl2FOTWY0P+HR8+iEKDy6Hh368+qFWJtst9qAJ51oefQ8OiE8j65Hh/68eiHWJtutNqD3IWyPnkcnFNOj69GhP69eiLXJdqsN6H0I26Pn0QnF9Oh6dOjPqxdi3eR26qR0PL52crUf3taD6fNfxNaur9neuNGmjs0GEwTvhuyUv9g45b2kB9Pnsfbimq0XK3RsLNtRxEDth7f1YPp0E0bKU2co1myxsVLRXAnDejC9FLrTDTeusTsCz5X6oTMGYqFcP0s+aj68rQfTj1fDXV+34sUYemnA45BoZA0Eitd3q5dh1gBXNjpAQA3YQRH2HIIacM/V7yB3NWAHRdhzCGrAPVe/g9zVgB0UYc8hqAH3XP0OclcDdlCEPYegBtxz9TvIXQ3YQRH2HIIacM/V7yB3NWAHRdhzCLUaMHfRw55r1Cr3KjXLbcC/GdHhb3eItoWAtWbWHohmn9uAf4laPT7oeUD7uBWN1ETAWjNrD0Rjz23A+6NWjw++7/iQRjpH4P3G+O4zyhUROwur4+XZU8fvKBKBjJZAgLWaquN4nD3QjN4Az+OApo55rvCuZpHKsRUB1oi1mqrjeJw94KbcbzqXwPODYD6hZiU+RMT/MPpzMM8fmJCoHQLsgeeArwHfDE75nePfQ/5FYP7TzmZ0GzyPXxU63gcmrH0W5b4D0vnl4N+CrV/bqSPaPgL8SdyXgx/NSSX3WzB9M4Bbc4KQ7iYRYM2zmm/trL8Bg/ro3QcGrHV39GxE9AuwmvCwMWCNWesu6XmIit9u1YSHiQFryxp3TXx1fA2sJjwsDFjTbt/5Yq+I0xj8gxpx8y9E1pC13CTxd9tuAf8OrHfEbWHAmrF2RX97b43rgIjRRK+FFK+yXwvm9SP+U+3LwDVjgDvRCAG+Mfwd/AiY13PPgXm36qdgkRAQAkJACAgBISAEhIAQEAJCQAgIASEgBISAEBACQkAICAEhIASEgBAQAkJACAgBISAEhIAQEAJCQAhsA4H/AWYGQHnjvZ0MAAAAAElFTkSuQmCC;" vertex="1" parent="1">
          <mxGeometry x="1050" y="475" width="48.48" height="50" as="geometry" />
        </mxCell>
      </root>
    </mxGraphModel>
  </diagram>
</mxfile>
